<?xml version="1.0" encoding="utf-8"?>
<!-- Generator: Adobe Illustrator 23.0.1, SVG Export Plug-In . SVG Version: 6.00 Build 0)  -->
<svg version="1.1" xmlns="http://www.w3.org/2000/svg" xmlns:xlink="http://www.w3.org/1999/xlink" x="0px" y="0px"
	 viewBox="0 0 1379.1 251.6" style="enable-background:new 0 0 1379.1 251.6;" xml:space="preserve">
<style type="text/css">
	.st0{fill:#010101;}
	.st1{fill:#CC962B;}
	.st2{fill:none;stroke:#010101;stroke-width:8;stroke-miterlimit:10;}
</style>
<g id="Livello_1">
	<g>
		<polygon class="st0" points="87.6,75 87.6,25 44.3,0 1,25 1,75 44.3,100 		"/>
	</g>
	<g>
		<polygon class="st1" points="91,72.7 91,27.3 130.3,4.6 169.6,27.3 169.6,72.7 130.3,95.4 		"/>
		<path d="M130.3,9.2l35.3,20.4v40.8l-35.3,20.4L95,70.4V29.6L130.3,9.2 M130.3,0L87,25v50l43.3,25l43.3-25V25L130.3,0L130.3,0z"/>
	</g>
	<g>
		<polygon class="st0" points="259.6,75 259.6,25 216.3,0 173,25 173,75 216.3,100 		"/>
	</g>
	<g>
		<polygon class="st0" points="345.6,75 345.6,25 302.3,0 259,25 259,75 302.3,100 		"/>
	</g>
	<g>
		<polygon class="st1" points="348.8,72.7 348.8,27.3 388.4,4.6 428.1,27.3 428.1,72.7 388.4,95.4 		"/>
		<path d="M388.4,9.2l35.6,20.4v40.7l-35.6,20.4l-35.6-20.4V29.6L388.4,9.2 M388.4,0l-43.6,25v50l43.6,25l43.6-25V25L388.4,0
			L388.4,0z"/>
	</g>
	<g>
		<polygon class="st0" points="518.1,75 518.1,25 474.8,0 431.5,25 431.5,75 474.8,100 		"/>
	</g>
	<g>
		<polygon class="st0" points="605.1,75 605.1,25 561.8,0 518.5,25 518.5,75 561.8,100 		"/>
	</g>
	<g>
		<polygon class="st0" points="691.1,75 691.1,25 647.8,0 604.5,25 604.5,75 647.8,100 		"/>
	</g>
	<g>
		<polygon class="st0" points="776.6,75 776.6,25 733.3,0 690,25 690,75 733.3,100 		"/>
	</g>
	<g>
		<polygon class="st1" points="780,72.7 780,27.3 819.3,4.6 858.6,27.3 858.6,72.7 819.3,95.4 		"/>
		<path d="M819.3,9.2l35.3,20.4v40.8l-35.3,20.4L784,70.4V29.6L819.3,9.2 M819.3,0L776,25v50l43.3,25l43.3-25V25L819.3,0L819.3,0z"
			/>
	</g>
	<g>
		<polygon class="st0" points="948.6,75 948.6,25 905.3,0 862,25 862,75 905.3,100 		"/>
	</g>
	<g>
		<polygon class="st1" points="952,72.7 952,27.3 991.3,4.6 1030.6,27.3 1030.6,72.7 991.3,95.4 		"/>
		<path d="M991.3,9.2l35.3,20.4v40.8l-35.3,20.4L956,70.4V29.6L991.3,9.2 M991.3,0L948,25v50l43.3,25l43.3-25V25L991.3,0L991.3,0z"
			/>
	</g>
	<g>
		<polygon class="st0" points="1120.1,75 1120.1,25 1076.8,0 1033.5,25 1033.5,75 1076.8,100 		"/>
	</g>
	<g>
		<polygon class="st0" points="1206.1,75 1206.1,25 1162.8,0 1119.5,25 1119.5,75 1162.8,100 		"/>
	</g>
	<g>
		<polygon class="st0" points="1292.1,75 1292.1,25 1248.8,0 1205.5,25 1205.5,75 1248.8,100 		"/>
	</g>
	<g>
		<polygon class="st0" points="1378.1,75 1378.1,25 1334.8,0 1291.5,25 1291.5,75 1334.8,100 		"/>
	</g>
	<g>
		<path class="st0" d="M87.3,83.2l35.3,20.4v40.8l-35.3,20.4L52,144.4v-40.8L87.3,83.2 M87.3,74L44,99v50l43.3,25l43.3-25V99
			L87.3,74L87.3,74z"/>
	</g>
	<polyline class="st2" points="344.4,170 301.1,145 257.8,170 257.8,220 301.1,245 	"/>
	<polyline class="st2" points="775.8,219 775.8,169 732.5,144 	"/>
	<polyline class="st2" points="947.5,173 990.8,148 990.8,98 947.5,73 	"/>
	<polyline class="st2" points="83.2,221 126.5,246 169.8,221 169.8,171 126.5,146 	"/>
	<g>
		<path class="st0" d="M259.3,83.2l35.3,20.4v40.8l-35.3,20.4L224,144.4v-40.8L259.3,83.2 M259.3,74L216,99v50l43.3,25l43.3-25V99
			L259.3,74L259.3,74z"/>
	</g>
	<g>
		<path class="st0" d="M517.8,83.2l35.3,20.4v40.8l-35.3,20.4l-35.3-20.4v-40.8L517.8,83.2 M517.8,74l-43.3,25v50l43.3,25l43.3-25
			V99L517.8,74L517.8,74z"/>
	</g>
	<g>
		<path class="st0" d="M560.8,9.2l35.3,20.4v40.8l-35.3,20.4l-35.3-20.4V29.6L560.8,9.2 M560.8,0l-43.3,25v50l43.3,25l43.3-25V25
			L560.8,0L560.8,0z"/>
	</g>
	<g>
		<polygon class="st0" points="45.6,3 45.6,-47 2.3,-72 2.3,28 		"/>
	</g>
	<g>
		<polygon points="49,0.7 49,-44.7 88.3,-67.4 127.6,-44.7 127.6,0.7 88.3,23.4 		"/>
		<path d="M88.3-62.8l35.3,20.4v40.8L88.3,18.8L53-1.6v-40.8L88.3-62.8 M88.3-72L45-47V3l43.3,25l43.3-25v-50L88.3-72L88.3-72z"/>
	</g>
	<g>
		<polygon class="st0" points="217.6,3 217.6,-47 174.3,-72 131,-47 131,3 174.3,28 		"/>
	</g>
	<g>
		<polygon class="st0" points="303.6,3 303.6,-47 260.3,-72 217,-47 217,3 260.3,28 		"/>
	</g>
	<g>
		<polygon points="307.5,0.7 307.5,-44.7 346.8,-67.4 386.1,-44.7 386.1,0.7 346.8,23.4 		"/>
		<path d="M346.8-62.8l35.3,20.4v40.8l-35.3,20.4L311.5-1.6v-40.8L346.8-62.8 M346.8-72l-43.3,25V3l43.3,25l43.3-25v-50L346.8-72
			L346.8-72z"/>
	</g>
	<g>
		<polygon class="st0" points="476.1,3 476.1,-47 432.8,-72 389.5,-47 389.5,3 432.8,28 		"/>
	</g>
	<g>
		<polygon class="st0" points="563.1,3 563.1,-47 519.8,-72 476.5,-47 476.5,3 519.8,28 		"/>
	</g>
	<g>
		<polygon class="st0" points="649.1,3 649.1,-47 605.8,-72 562.5,-47 562.5,3 605.8,28 		"/>
	</g>
	<g>
		<polygon class="st0" points="734.6,3 734.6,-47 691.3,-72 648,-47 648,3 691.3,28 		"/>
	</g>
	<g>
		<polygon points="738,0.7 738,-44.7 777.3,-67.4 816.6,-44.7 816.6,0.7 777.3,23.4 		"/>
		<path d="M777.3-62.8l35.3,20.4v40.8l-35.3,20.4L742-1.6v-40.8L777.3-62.8 M777.3-72L734-47V3l43.3,25l43.3-25v-50L777.3-72
			L777.3-72z"/>
	</g>
	<g>
		<polygon class="st0" points="906.6,3 906.6,-47 863.3,-72 820,-47 820,3 863.3,28 		"/>
	</g>
	<g>
		<polygon points="910,0.7 910,-44.7 949.3,-67.4 988.6,-44.7 988.6,0.7 949.3,23.4 		"/>
		<path d="M949.3-62.8l35.3,20.4v40.8l-35.3,20.4L914-1.6v-40.8L949.3-62.8 M949.3-72L906-47V3l43.3,25l43.3-25v-50L949.3-72
			L949.3-72z"/>
	</g>
	<g>
		<polygon class="st0" points="1078.1,3 1078.1,-47 1034.8,-72 991.5,-47 991.5,3 1034.8,28 		"/>
	</g>
	<g>
		<polygon class="st0" points="1164.1,3 1164.1,-47 1120.8,-72 1077.5,-47 1077.5,3 1120.8,28 		"/>
	</g>
	<g>
		<polygon class="st0" points="1250.1,3 1250.1,-47 1206.8,-72 1163.5,-47 1163.5,3 1206.8,28 		"/>
	</g>
	<g>
		<polygon class="st0" points="1336.1,3 1336.1,-47 1292.8,-72 1249.5,-47 1249.5,3 1292.8,28 		"/>
	</g>
	<g>
		<polygon class="st0" points="1376.8,28 1333.5,3 1333.5,-47 1376.8,-72 		"/>
	</g>
	<g>
		<path class="st0" d="M518.8-62.8l35.3,20.4v40.8l-35.3,20.4L483.5-1.6v-40.8L518.8-62.8 M518.8-72l-43.3,25V3l43.3,25l43.3-25v-50
			L518.8-72L518.8-72z"/>
	</g>
	<g>
		<path class="st0" d="M691.8,83.2l35.3,20.4v40.8l-35.3,20.4l-35.3-20.4v-40.8L691.8,83.2 M691.8,74l-43.3,25v50l43.3,25l43.3-25
			V99L691.8,74L691.8,74z"/>
	</g>
	<g>
		<path class="st0" d="M777.8,83.2l35.3,20.4v40.8l-35.3,20.4l-35.3-20.4v-40.8L777.8,83.2 M777.8,74l-43.3,25v50l43.3,25l43.3-25
			V99L777.8,74L777.8,74z"/>
	</g>
	<g>
		<path class="st0" d="M1119.8,83.2l35.3,20.4v40.8l-35.3,20.4l-35.3-20.4v-40.8L1119.8,83.2 M1119.8,74l-43.3,25v50l43.3,25
			l43.3-25V99L1119.8,74L1119.8,74z"/>
	</g>
	<g>
		<path class="st0" d="M1291.8,82.2l35.3,20.4v40.8l-35.3,20.4l-35.3-20.4v-40.8L1291.8,82.2 M1291.8,73l-43.3,25v50l43.3,25
			l43.3-25V98L1291.8,73L1291.8,73z"/>
	</g>
</g>
<g id="Livello_2">
</g>
</svg>
