<svg id="Livello_1" data-name="Livello 1" xmlns="http://www.w3.org/2000/svg" viewBox="0 0 1000 403"><defs><style>.cls-1{fill:#896620;}.cls-2{fill:#49360f;}.cls-3{fill:#c7962c;}.cls-4{fill:#614915;}.cls-5{fill:#a37b24;}</style></defs><title>mole</title><g id="mole"><path class="cls-1" d="M782.3,539.8v-9.5l-.7-1.2V527h-1.5l3.6-4.3A137.13,137.13,0,0,1,813,454.9v-3.8l-.7-1.2-.7-2.1h-2.1v-2.1h3.4l.2-24.3-1.4-.7,4.3-5,4.3-11.4-2.1-.7v-2.1l2.1-.7V390l-1.4-1.4.7-2.1h2.1v-10l-.7-1.4.7-.7-1.4-.7v-2.1l1.4-.8v-5.6l-.7-.7.7-1.3,2.1-72.9,5.7,309.6-52.1-12.1V558.6h.7l-.7-10.5-2.1-2.3Z" transform="translate(0 -290.2)"/><path class="cls-2" d="M823.6,290.2l5.7,72.8,1.4,1.4-.7,1.4v5.7l1.4-.7v2.1l-1.4,1.4v11.4l3.6.7v1.4l-1.4,2.1.3,10.7h1.8v2.1l-1.4,2.1,4.3,10.7,5,5-1.4.7v20.7l3.6.7v4.3l-2.1,1.4.7,1.4-1.4,2.1.7,3.6c17.3,18.9,27.6,41.9,32.8,67.8L878,526l-.6,1.4h-1.5l1.4,11.4,6.4,6-1.4,1.1.7,18.5.7,20-54.2,15Z" transform="translate(0 -290.2)"/><polygon class="cls-3" points="883.4 289.5 1000 299.6 1000 403 538.8 403 538.8 268.7 558.6 267.8 560.1 273.6 589.3 281.4 777.3 283.2 814 283.5 828.9 284.8 872.6 288.6 883.4 289.5"/><polygon class="cls-4" points="986.6 287.1 1000 292.7 1000 303.3 984.8 310.3 965.6 310.3 927.8 305.3 866.7 299.2 848.6 297.5 855 295.1 860.6 293 872.6 288.6 883.2 284.7 887.5 283.1 900.9 278.2 940.3 281.4 948.1 285 986.6 287.1"/><path class="cls-4" d="M831.1,585.9l23.9-.6,5.6-2,27-9.9-4-5.6H856.5l-13.9-3.9-30-2.1v-4.4l-22.1-10.6-52.8,1.4L724.2,556l-5.7-2.8L700,558.9l-23.5,2.8-10.7-6.4-32.1-2.1-7.8,5-48.5,1.4-4.6-7.5-.4-.4-17.1-2.1-17.8,9.3,20.7,2.1-7.1,6.4,20.7,7.1,53.5,6.4a802.19,802.19,0,0,1,84.9,2.1l64.9-2.1Z" transform="translate(0 -290.2)"/><polygon class="cls-5" points="965.6 310.3 967 312.4 967.7 368.8 987 371.6 985.6 368.1 985.6 358.8 989.1 358.8 988.4 312.4 984.8 310.3 965.6 310.3"/><polygon class="cls-5" points="831.1 295.7 832.2 297.5 832.2 344.8 852.9 348.1 852.2 299.6 848.6 297.5 855 295.1 831.1 295.7"/><polygon class="cls-5" points="709.9 292.8 710.2 294.6 709.9 335.6 780.8 343.1 780.1 298.2 774.8 290.7 709.9 292.8"/><polygon class="cls-1" points="579.7 292.5 579.7 403 0 403 0 278.1 77.5 277.5 103.9 286 119.6 280.3 159.5 283.9 161 279.6 174.5 275.3 251.6 273.2 253.4 274.4 261.5 273.9 282.4 274.4 282.9 271.1 286.5 272.5 323.6 272.5 344.3 271.8 381.4 257.5 444.5 256.4 455.6 268.2 535.5 269.6 538.8 270.9 552.1 275.9 571.1 283.1 571.1 286.8 579.7 292.5"/></g></svg>