<?xml version="1.0" encoding="utf-8"?>
<!-- Generator: Adobe Illustrator 23.0.1, SVG Export Plug-In . SVG Version: 6.00 Build 0)  -->
<svg version="1.1" id="Livello_1" xmlns="http://www.w3.org/2000/svg" xmlns:xlink="http://www.w3.org/1999/xlink" x="0px" y="0px"
	 viewBox="0 0 1000 671.4" style="enable-background:new 0 0 1000 671.4;" xml:space="preserve">
<style type="text/css">
	.st0{fill:#FFD28A;}
	.st1{fill:#E5AB35;}
</style>
<title>monti</title>
<g id="monti">
	<path class="st0" d="M101.1,115.2c0,5.8-0.4,11.6-1.3,17.3c-2.8,19.1-10.4,37.1-22,52.5C59,210,31,226.4,0,230.5V0
		C57.8,7.6,101,56.9,101.1,115.2z"/>
	<path class="st1" d="M998.8,155.2l1.2-1.6v233.8H0v-244h10.8l6.4-7.1l8.6-1.2l13.6,2.4l7.9,1.2l7.9-1.2l8.1-3.5l4.8-2.4L71,134
		l8.6,1.2l0.7-3.5h5l7.2-1.2l7.6,2.1l1,0.3l7.9-1.2l2.9-4.7l2.9,3.5l5.8,3.5l2.8-2.4l7.1-1.2l7.1,1.2l5,7.1l1.4-4.7l2.7-1.9l0,0
		l2.3-1.6l0.9-0.7l6.3-4.7l3.8-2.8l1.8-1.3l0,0l3.6,3.5v0.1l2.8,4.7l3.6,2.4l7.1,7.1l7.1,2.4l10-9.5l5,2.4l6.4-4.7l7.1-5.9l4.3,5.9
		l10-5.9l34.5-20.1l4.4,4.7h8.5l7.1,11.8l16.4-3.5l10.7,10.6H323l10.7-3.5l4.3,3.5l3.6-1.2l8.6,8.3l6.4-2.4l6.4,6.5l10.8-10
		l11.4-9.5l10,2.4l6.4,8.3l14.3-11.8h5l22.1,4.5l6.4-2.4l7.9,4.7l7.9-1.2l12.1,4.7l4.3-2.4l5-2.4l4.3-1.2l7.9-3.5l5.7-7.1l1.4,1.2
		l2.1,4.7h6.4l2.8,4.7l3.6-2.4l1.2,2.3h3.8l5.7,2.4l2.9-1.2l2.9,4.7l2.9-2.4l2.8,4.8l7.2-2.4l1.4-1.2h1.4l1.4,1.2l3.6,4.7l2.8-1.2
		l3.6,3.5l2.1-1.2l2.9-3.5l7.1-4.7l0.7,2.4l5.7,3.5l2.2-3.5h3.6l7.1-2.4l1.4,5.9l3.6,1.2l0.7-1.2l2.1-3.5l4.3-3.5l7.1,2.4l3.6-1.2
		l4.3,3.5h4.3l3.6-1.2l2.9,2.4l5-2.4l1.4-2.4l3.6-1.2l3.6-1.2l5.7,2.4l2.8,4.7l4.3,2.4l3.6-3.5l2.2-2.4h3.6l3.7,1.2l4.9,1.2l3.6-1.2
		l2.7,3.5l3.7,4.7l2.2-2.4l1.4,2.4l3.6,2.4l3.6,1.2l2.9-3.5h2.1l3.6,1.2l2.2-1.2l3.7-4.7l1.3,1.2l0.7,2.4l16.4,9.5l1.4-1.2h3.6
		l7.2-1.2l5.7,5.9l2.2,1.2l2.8,1.2l1.4-1.2l2.2-1.2l2.1,1.2l2.9-1.2l4.3-2.4h12.2l2.9,1.2l2.9-2.4l2.1,2.4l1.4-2.4l2.1-3.5l2.1-4.7
		l2.2-2.4l2.1-2.4l2.1,2.4l4.6,6.5l0.4,0.6l2.9,3.5l5,7.1l7.2,1.2l2.1,4.7l1.4-1.2l2.9,1.2l1.3-0.2l31.8-5.4l2-0.3h3.6l2.1-1.2
		l2.9,2.4l2.1-1.2l3.6,2.4l6.4,1.2l3.6-1.2l1.4,1.2l7.9,8.3l7.9-2.4l7.9-8.3l3.6-3.5l7.2,7.1l3.6-1.2l2.9,1.2l1.4-2.4h2.8l5.7-1.2
		l4.3-5.9l5-4.7l5-5.9l3.6,1.2l2.9,2.4l0.7,2.4l2.1,3.5l5.7,8.3l3.6-1.2l7.2-1.2l4.3,2.4l5-2.4L998.8,155.2z"/>
</g>
</svg>
