<?xml version="1.0" encoding="utf-8"?>
<!-- Generator: Adobe Illustrator 23.0.1, SVG Export Plug-In . SVG Version: 6.00 Build 0)  -->
<svg version="1.1" id="Livello_1" xmlns="http://www.w3.org/2000/svg" xmlns:xlink="http://www.w3.org/1999/xlink" x="0px" y="0px"
	 viewBox="0 0 1000 491" style="enable-background:new 0 0 1000 491;" xml:space="preserve">
<style type="text/css">
	.st0{fill:#191203;}
	.st1{fill:url(#SVGID_1_);}
</style>
<title>primo-piano</title>
<g id="primo_piano">
	<polygon class="st0" points="1000,58.3 1000,86.2 204.8,86.2 204.8,79.4 204.1,78.1 214.1,63.2 423.8,53.6 470.2,51 478,49 
		481.6,51.5 481.6,53.6 490.2,55.5 498.7,50.3 518,54.2 538.8,61.7 567.9,72.3 567.9,56.8 562.9,54.2 579.7,50.8 582.2,50.3 
		582.2,48.4 580.8,45.8 583.6,43.2 601.4,43.9 613.6,41.5 613.6,38.1 616.4,34.8 622.1,36.8 627.1,34.8 664.2,35.6 664.2,32.9 
		669.9,29.7 673.5,34.2 704.9,34.8 714.9,27.7 721.3,33.6 742,32.9 746,28.6 746.2,28.4 746.7,28.7 752.5,32.2 759.8,32.2 
		761.7,30.1 768.3,22.9 771.9,19 771.9,16.1 780.5,16.1 780.6,15.9 786.2,0 791.8,18.7 807.6,18.7 816.2,24.5 818.3,22.6 
		821.8,25.5 821.8,34.2 830.4,29.7 832.2,30 852.8,33.5 967.7,52.9 986.2,56 	"/>
	<polygon class="st0" points="1000,81.3 1000,295.9 0,289.9 0,61 39,61 94.2,83.2 86.1,83.2 86.1,126.2 204.1,126.2 204.8,86.2 
		389.2,73.9 538.8,76.3 579.7,76.9 775.1,80 935.4,80.9 	"/>
</g>
<linearGradient id="SVGID_1_" gradientUnits="userSpaceOnUse" x1="500" y1="293.5" x2="500" y2="135.8898">
	<stop  offset="0.4099" style="stop-color:#010101"/>
	<stop  offset="0.6688" style="stop-color:#0D0A02"/>
	<stop  offset="1" style="stop-color:#191203"/>
</linearGradient>
<rect y="135.9" class="st1" width="1000" height="157.6"/>
</svg>
