<?xml version="1.0" encoding="utf-8"?>
<!-- Generator: Adobe Illustrator 23.0.1, SVG Export Plug-In . SVG Version: 6.00 Build 0)  -->
<svg version="1.1" id="Livello_1" xmlns="http://www.w3.org/2000/svg" xmlns:xlink="http://www.w3.org/1999/xlink" x="0px" y="0px"
	 viewBox="0 0 1000 174.1" style="enable-background:new 0 0 1000 174.1;" xml:space="preserve">
<style type="text/css">
	.st0{fill:#49360F;}
</style>
<title>secondo-piano</title>
<g id="secondo_piano">
	<rect y="169.1" class="st0" width="1000" height="347.8"/>
	<polygon class="st0" points="1000,118.8 1000,174.1 0,174.1 0,56.6 9.7,62.1 9.7,70.7 153.4,63.5 153.8,60.7 154.6,61.4 
		154.6,63.5 172.4,63 172.4,60.7 175.2,60.5 175.2,62.8 244.4,59.3 246.6,57.1 249.4,59.3 272.2,57.6 272.2,57.8 333.6,55.7 
		334.3,46.4 330.7,44.3 367.1,30 403.5,37.9 408.5,35.7 408.5,22.9 406.4,21.5 445.6,2.9 538.8,0.7 566.1,0 579.7,3.2 590.4,5.8 
		590.6,4.7 594.7,4.3 598.2,6.5 611.8,6.5 611.1,5.8 613.9,3.6 630.3,5 635.3,2.2 646,2.2 648.9,3.6 661.7,3.6 671.7,13.6 710,19.3 
		719.5,20.7 723.1,19.3 750.2,17.9 750.6,23.6 753,23.6 768.3,30 775.1,32.9 780.8,35 935.4,94.1 950.5,99.9 	"/>
	<polygon class="st0" points="803.7,43.7 963.9,64.5 1111,38.9 983.4,196.9 	"/>
</g>
</svg>
