<svg id="Livello_1" data-name="Livello 1" xmlns="http://www.w3.org/2000/svg" viewBox="0 0 1000 209"><defs><style>.cls-1{fill:#ce9729;}</style></defs><title>skyline</title><g id="skyline"><polygon class="cls-1" points="989.1 32.8 1000 33.3 1000 209 0 209 0 41.9 27.6 30 37.6 30 48.3 27 77.8 27.7 86.1 27.8 99.6 34.3 109.6 35.7 114.6 32.8 138.1 33.5 187.4 32.8 208.8 33.5 209.5 40 259.4 39.3 297.9 36.4 315 28.6 347.1 28.6 389.9 41.4 424.2 40.7 430.6 39.3 447 39.8 447 42.8 503.4 45 506.9 40 515.5 40 524.8 37.8 566.1 36.4 569.7 46.4 596.1 47.1 597.5 30.1 597.5 12.9 600.4 11.4 604.7 0 610.4 12.1 610.4 19.3 611.8 14.3 612.5 47.1 623.2 36.4 651.7 37.1 657.4 40.7 684.4 42 696 45.7 698.1 44.2 717.7 47.7 725.9 50 750.9 46.4 782.2 46 828 45.5 875.9 45 882.1 45 897.1 49.2 908.5 52.8 922.8 52.1 927.1 54.1 927.1 45 940.6 41.4 944.9 41.3 944.9 43.5 979.1 42.7 979.1 35.7 989.1 32.8"/></g></svg>