<svg id="Livello_1" data-name="Livello 1" xmlns="http://www.w3.org/2000/svg" viewBox="0 0 1943.27 189"><defs><style>.cls-1{fill:#ffce33;}</style></defs><title>alveare3</title><rect x="0.13" width="1943" height="127"/><rect class="cls-1" x="0.13" y="132" width="1943" height="57"/><path d="M31.33,88.3a9.81,9.81,0,0,1-8.48-4.9L6.68,55.4a9.8,9.8,0,0,1,0-9.8l16.17-28a9.81,9.81,0,0,1,8.48-4.9H63.67a9.81,9.81,0,0,1,8.48,4.9l16.17,28a9.8,9.8,0,0,1,0,9.8l-16.17,28a9.81,9.81,0,0,1-8.48,4.9Z" transform="translate(0.13)"/><path d="M63.67,18.2a4.3,4.3,0,0,1,3.72,2.15l16.17,28a4.34,4.34,0,0,1,0,4.3l-16.17,28a4.3,4.3,0,0,1-3.72,2.15H31.33a4.3,4.3,0,0,1-3.72-2.15l-16.17-28a4.34,4.34,0,0,1,0-4.3l16.17-28a4.3,4.3,0,0,1,3.72-2.15H63.67m0-11H31.33a15.3,15.3,0,0,0-13.25,7.65l-16.16,28a15.27,15.27,0,0,0,0,15.3l16.16,28A15.3,15.3,0,0,0,31.33,93.8H63.67a15.3,15.3,0,0,0,13.25-7.65l16.16-28a15.27,15.27,0,0,0,0-15.3l-16.16-28A15.3,15.3,0,0,0,63.67,7.2Z" transform="translate(0.13)"/><path d="M97.33,126.3a9.81,9.81,0,0,1-8.48-4.9l-16.17-28a9.8,9.8,0,0,1,0-9.8l16.17-28a9.81,9.81,0,0,1,8.48-4.9h32.34a9.81,9.81,0,0,1,8.48,4.9l16.17,28a9.8,9.8,0,0,1,0,9.8l-16.17,28a9.81,9.81,0,0,1-8.48,4.9Z" transform="translate(0.13)"/><path d="M129.67,56.2a4.3,4.3,0,0,1,3.72,2.15l16.17,28a4.34,4.34,0,0,1,0,4.3l-16.17,28a4.3,4.3,0,0,1-3.72,2.15H97.33a4.3,4.3,0,0,1-3.72-2.15l-16.17-28a4.34,4.34,0,0,1,0-4.3l16.17-28a4.3,4.3,0,0,1,3.72-2.15h32.34m0-11H97.33a15.3,15.3,0,0,0-13.25,7.65l-16.16,28a15.27,15.27,0,0,0,0,15.3l16.16,28a15.3,15.3,0,0,0,13.25,7.65h32.34a15.3,15.3,0,0,0,13.25-7.65l16.16-28a15.27,15.27,0,0,0,0-15.3l-16.16-28a15.3,15.3,0,0,0-13.25-7.65Z" transform="translate(0.13)"/><path d="M31.33,164.3a9.81,9.81,0,0,1-8.48-4.9l-16.17-28a9.8,9.8,0,0,1,0-9.8l16.17-28a9.81,9.81,0,0,1,8.48-4.9H63.67a9.81,9.81,0,0,1,8.48,4.9l16.17,28a9.8,9.8,0,0,1,0,9.8l-16.17,28a9.81,9.81,0,0,1-8.48,4.9Z" transform="translate(0.13)"/><path d="M63.67,94.2a4.3,4.3,0,0,1,3.72,2.15l16.17,28a4.34,4.34,0,0,1,0,4.3l-16.17,28a4.3,4.3,0,0,1-3.72,2.15H31.33a4.3,4.3,0,0,1-3.72-2.15l-16.17-28a4.34,4.34,0,0,1,0-4.3l16.17-28a4.3,4.3,0,0,1,3.72-2.15H63.67m0-11H31.33a15.3,15.3,0,0,0-13.25,7.65l-16.16,28a15.27,15.27,0,0,0,0,15.3l16.16,28a15.3,15.3,0,0,0,13.25,7.65H63.67a15.3,15.3,0,0,0,13.25-7.65l16.16-28a15.27,15.27,0,0,0,0-15.3l-16.16-28A15.3,15.3,0,0,0,63.67,83.2Z" transform="translate(0.13)"/><path class="cls-1" d="M163.33,88.3a9.81,9.81,0,0,1-8.48-4.9l-16.17-28a9.8,9.8,0,0,1,0-9.8l16.17-28a9.81,9.81,0,0,1,8.48-4.9h32.34a9.81,9.81,0,0,1,8.48,4.9l16.17,28a9.8,9.8,0,0,1,0,9.8l-16.17,28a9.81,9.81,0,0,1-8.48,4.9Z" transform="translate(0.13)"/><path d="M195.67,18.2a4.3,4.3,0,0,1,3.72,2.15l16.17,28a4.34,4.34,0,0,1,0,4.3l-16.17,28a4.3,4.3,0,0,1-3.72,2.15H163.33a4.3,4.3,0,0,1-3.72-2.15l-16.17-28a4.34,4.34,0,0,1,0-4.3l16.17-28a4.3,4.3,0,0,1,3.72-2.15h32.34m0-11H163.33a15.3,15.3,0,0,0-13.25,7.65l-16.16,28a15.27,15.27,0,0,0,0,15.3l16.16,28a15.3,15.3,0,0,0,13.25,7.65h32.34a15.3,15.3,0,0,0,13.25-7.65l16.16-28a15.27,15.27,0,0,0,0-15.3l-16.16-28A15.3,15.3,0,0,0,195.67,7.2Z" transform="translate(0.13)"/><path class="cls-1" d="M229.33,126.3a9.81,9.81,0,0,1-8.48-4.9l-16.17-28a9.8,9.8,0,0,1,0-9.8l16.17-28a9.81,9.81,0,0,1,8.48-4.9h32.34a9.81,9.81,0,0,1,8.48,4.9l16.17,28a9.8,9.8,0,0,1,0,9.8l-16.17,28a9.81,9.81,0,0,1-8.48,4.9Z" transform="translate(0.13)"/><path d="M261.67,56.2a4.3,4.3,0,0,1,3.72,2.15l16.17,28a4.34,4.34,0,0,1,0,4.3l-16.17,28a4.3,4.3,0,0,1-3.72,2.15H229.33a4.3,4.3,0,0,1-3.72-2.15l-16.17-28a4.34,4.34,0,0,1,0-4.3l16.17-28a4.3,4.3,0,0,1,3.72-2.15h32.34m0-11H229.33a15.3,15.3,0,0,0-13.25,7.65l-16.16,28a15.27,15.27,0,0,0,0,15.3l16.16,28a15.3,15.3,0,0,0,13.25,7.65h32.34a15.3,15.3,0,0,0,13.25-7.65l16.16-28a15.27,15.27,0,0,0,0-15.3l-16.16-28a15.3,15.3,0,0,0-13.25-7.65Z" transform="translate(0.13)"/><path d="M163.33,164.3a9.81,9.81,0,0,1-8.48-4.9l-16.17-28a9.8,9.8,0,0,1,0-9.8l16.17-28a9.81,9.81,0,0,1,8.48-4.9h32.34a9.81,9.81,0,0,1,8.48,4.9l16.17,28a9.8,9.8,0,0,1,0,9.8l-16.17,28a9.81,9.81,0,0,1-8.48,4.9Z" transform="translate(0.13)"/><path d="M195.67,94.2a4.3,4.3,0,0,1,3.72,2.15l16.17,28a4.34,4.34,0,0,1,0,4.3l-16.17,28a4.3,4.3,0,0,1-3.72,2.15H163.33a4.3,4.3,0,0,1-3.72-2.15l-16.17-28a4.34,4.34,0,0,1,0-4.3l16.17-28a4.3,4.3,0,0,1,3.72-2.15h32.34m0-11H163.33a15.3,15.3,0,0,0-13.25,7.65l-16.16,28a15.27,15.27,0,0,0,0,15.3l16.16,28a15.3,15.3,0,0,0,13.25,7.65h32.34a15.3,15.3,0,0,0,13.25-7.65l16.16-28a15.27,15.27,0,0,0,0-15.3l-16.16-28a15.3,15.3,0,0,0-13.25-7.65Z" transform="translate(0.13)"/><path d="M295.33,88.3a9.81,9.81,0,0,1-8.48-4.9l-16.17-28a9.8,9.8,0,0,1,0-9.8l16.17-28a9.81,9.81,0,0,1,8.48-4.9h32.34a9.81,9.81,0,0,1,8.48,4.9l16.17,28a9.8,9.8,0,0,1,0,9.8l-16.17,28a9.81,9.81,0,0,1-8.48,4.9Z" transform="translate(0.13)"/><path d="M327.67,18.2a4.3,4.3,0,0,1,3.72,2.15l16.17,28a4.34,4.34,0,0,1,0,4.3l-16.17,28a4.3,4.3,0,0,1-3.72,2.15H295.33a4.3,4.3,0,0,1-3.72-2.15l-16.17-28a4.34,4.34,0,0,1,0-4.3l16.17-28a4.3,4.3,0,0,1,3.72-2.15h32.34m0-11H295.33a15.3,15.3,0,0,0-13.25,7.65l-16.16,28a15.27,15.27,0,0,0,0,15.3l16.16,28a15.3,15.3,0,0,0,13.25,7.65h32.34a15.3,15.3,0,0,0,13.25-7.65l16.16-28a15.27,15.27,0,0,0,0-15.3l-16.16-28A15.3,15.3,0,0,0,327.67,7.2Z" transform="translate(0.13)"/><path class="cls-1" d="M361.33,126.3a9.81,9.81,0,0,1-8.48-4.9l-16.17-28a9.8,9.8,0,0,1,0-9.8l16.17-28a9.81,9.81,0,0,1,8.48-4.9h32.34a9.81,9.81,0,0,1,8.48,4.9l16.17,28a9.8,9.8,0,0,1,0,9.8l-16.17,28a9.81,9.81,0,0,1-8.48,4.9Z" transform="translate(0.13)"/><path d="M393.67,56.2a4.3,4.3,0,0,1,3.72,2.15l16.17,28a4.34,4.34,0,0,1,0,4.3l-16.17,28a4.3,4.3,0,0,1-3.72,2.15H361.33a4.3,4.3,0,0,1-3.72-2.15l-16.17-28a4.34,4.34,0,0,1,0-4.3l16.17-28a4.3,4.3,0,0,1,3.72-2.15h32.34m0-11H361.33a15.3,15.3,0,0,0-13.25,7.65l-16.16,28a15.27,15.27,0,0,0,0,15.3l16.16,28a15.3,15.3,0,0,0,13.25,7.65h32.34a15.3,15.3,0,0,0,13.25-7.65l16.16-28a15.27,15.27,0,0,0,0-15.3l-16.16-28a15.3,15.3,0,0,0-13.25-7.65Z" transform="translate(0.13)"/><path class="cls-1" d="M295.33,164.3a9.81,9.81,0,0,1-8.48-4.9l-16.17-28a9.8,9.8,0,0,1,0-9.8l16.17-28a9.81,9.81,0,0,1,8.48-4.9h32.34a9.81,9.81,0,0,1,8.48,4.9l16.17,28a9.8,9.8,0,0,1,0,9.8l-16.17,28a9.81,9.81,0,0,1-8.48,4.9Z" transform="translate(0.13)"/><path d="M327.67,94.2a4.3,4.3,0,0,1,3.72,2.15l16.17,28a4.34,4.34,0,0,1,0,4.3l-16.17,28a4.3,4.3,0,0,1-3.72,2.15H295.33a4.3,4.3,0,0,1-3.72-2.15l-16.17-28a4.34,4.34,0,0,1,0-4.3l16.17-28a4.3,4.3,0,0,1,3.72-2.15h32.34m0-11H295.33a15.3,15.3,0,0,0-13.25,7.65l-16.16,28a15.27,15.27,0,0,0,0,15.3l16.16,28a15.3,15.3,0,0,0,13.25,7.65h32.34a15.3,15.3,0,0,0,13.25-7.65l16.16-28a15.27,15.27,0,0,0,0-15.3l-16.16-28a15.3,15.3,0,0,0-13.25-7.65Z" transform="translate(0.13)"/><path d="M427.33,88.3a9.81,9.81,0,0,1-8.48-4.9l-16.17-28a9.8,9.8,0,0,1,0-9.8l16.17-28a9.81,9.81,0,0,1,8.48-4.9h32.34a9.81,9.81,0,0,1,8.48,4.9l16.17,28a9.8,9.8,0,0,1,0,9.8l-16.17,28a9.81,9.81,0,0,1-8.48,4.9Z" transform="translate(0.13)"/><path d="M459.67,18.2a4.3,4.3,0,0,1,3.72,2.15l16.17,28a4.34,4.34,0,0,1,0,4.3l-16.17,28a4.3,4.3,0,0,1-3.72,2.15H427.33a4.3,4.3,0,0,1-3.72-2.15l-16.17-28a4.34,4.34,0,0,1,0-4.3l16.17-28a4.3,4.3,0,0,1,3.72-2.15h32.34m0-11H427.33a15.3,15.3,0,0,0-13.25,7.65l-16.16,28a15.27,15.27,0,0,0,0,15.3l16.16,28a15.3,15.3,0,0,0,13.25,7.65h32.34a15.3,15.3,0,0,0,13.25-7.65l16.16-28a15.27,15.27,0,0,0,0-15.3l-16.16-28A15.3,15.3,0,0,0,459.67,7.2Z" transform="translate(0.13)"/><path class="cls-1" d="M493.33,126.3a9.81,9.81,0,0,1-8.48-4.9l-16.17-28a9.8,9.8,0,0,1,0-9.8l16.17-28a9.81,9.81,0,0,1,8.48-4.9h32.34a9.81,9.81,0,0,1,8.48,4.9l16.17,28a9.8,9.8,0,0,1,0,9.8l-16.17,28a9.81,9.81,0,0,1-8.48,4.9Z" transform="translate(0.13)"/><path d="M525.67,56.2a4.3,4.3,0,0,1,3.72,2.15l16.17,28a4.34,4.34,0,0,1,0,4.3l-16.17,28a4.3,4.3,0,0,1-3.72,2.15H493.33a4.3,4.3,0,0,1-3.72-2.15l-16.17-28a4.34,4.34,0,0,1,0-4.3l16.17-28a4.3,4.3,0,0,1,3.72-2.15h32.34m0-11H493.33a15.3,15.3,0,0,0-13.25,7.65l-16.16,28a15.27,15.27,0,0,0,0,15.3l16.16,28a15.3,15.3,0,0,0,13.25,7.65h32.34a15.3,15.3,0,0,0,13.25-7.65l16.16-28a15.27,15.27,0,0,0,0-15.3l-16.16-28a15.3,15.3,0,0,0-13.25-7.65Z" transform="translate(0.13)"/><path class="cls-1" d="M427.33,164.3a9.81,9.81,0,0,1-8.48-4.9l-16.17-28a9.8,9.8,0,0,1,0-9.8l16.17-28a9.81,9.81,0,0,1,8.48-4.9h32.34a9.81,9.81,0,0,1,8.48,4.9l16.17,28a9.8,9.8,0,0,1,0,9.8l-16.17,28a9.81,9.81,0,0,1-8.48,4.9Z" transform="translate(0.13)"/><path d="M459.67,94.2a4.3,4.3,0,0,1,3.72,2.15l16.17,28a4.34,4.34,0,0,1,0,4.3l-16.17,28a4.3,4.3,0,0,1-3.72,2.15H427.33a4.3,4.3,0,0,1-3.72-2.15l-16.17-28a4.34,4.34,0,0,1,0-4.3l16.17-28a4.3,4.3,0,0,1,3.72-2.15h32.34m0-11H427.33a15.3,15.3,0,0,0-13.25,7.65l-16.16,28a15.27,15.27,0,0,0,0,15.3l16.16,28a15.3,15.3,0,0,0,13.25,7.65h32.34a15.3,15.3,0,0,0,13.25-7.65l16.16-28a15.27,15.27,0,0,0,0-15.3l-16.16-28a15.3,15.3,0,0,0-13.25-7.65Z" transform="translate(0.13)"/><path d="M559.33,88.3a9.81,9.81,0,0,1-8.48-4.9l-16.17-28a9.8,9.8,0,0,1,0-9.8l16.17-28a9.81,9.81,0,0,1,8.48-4.9h32.34a9.81,9.81,0,0,1,8.48,4.9l16.17,28a9.8,9.8,0,0,1,0,9.8l-16.17,28a9.81,9.81,0,0,1-8.48,4.9Z" transform="translate(0.13)"/><path d="M591.67,18.2a4.3,4.3,0,0,1,3.72,2.15l16.17,28a4.34,4.34,0,0,1,0,4.3l-16.17,28a4.3,4.3,0,0,1-3.72,2.15H559.33a4.3,4.3,0,0,1-3.72-2.15l-16.17-28a4.34,4.34,0,0,1,0-4.3l16.17-28a4.3,4.3,0,0,1,3.72-2.15h32.34m0-11H559.33a15.3,15.3,0,0,0-13.25,7.65l-16.16,28a15.27,15.27,0,0,0,0,15.3l16.16,28a15.3,15.3,0,0,0,13.25,7.65h32.34a15.3,15.3,0,0,0,13.25-7.65l16.16-28a15.27,15.27,0,0,0,0-15.3l-16.16-28A15.3,15.3,0,0,0,591.67,7.2Z" transform="translate(0.13)"/><path class="cls-1" d="M625.33,126.3a9.81,9.81,0,0,1-8.48-4.9l-16.17-28a9.8,9.8,0,0,1,0-9.8l16.17-28a9.81,9.81,0,0,1,8.48-4.9h32.34a9.81,9.81,0,0,1,8.48,4.9l16.17,28a9.8,9.8,0,0,1,0,9.8l-16.17,28a9.81,9.81,0,0,1-8.48,4.9Z" transform="translate(0.13)"/><path d="M657.67,56.2a4.3,4.3,0,0,1,3.72,2.15l16.17,28a4.34,4.34,0,0,1,0,4.3l-16.17,28a4.3,4.3,0,0,1-3.72,2.15H625.33a4.3,4.3,0,0,1-3.72-2.15l-16.17-28a4.34,4.34,0,0,1,0-4.3l16.17-28a4.3,4.3,0,0,1,3.72-2.15h32.34m0-11H625.33a15.3,15.3,0,0,0-13.25,7.65l-16.16,28a15.27,15.27,0,0,0,0,15.3l16.16,28a15.3,15.3,0,0,0,13.25,7.65h32.34a15.3,15.3,0,0,0,13.25-7.65l16.16-28a15.27,15.27,0,0,0,0-15.3l-16.16-28a15.3,15.3,0,0,0-13.25-7.65Z" transform="translate(0.13)"/><path d="M559.33,164.3a9.81,9.81,0,0,1-8.48-4.9l-16.17-28a9.8,9.8,0,0,1,0-9.8l16.17-28a9.81,9.81,0,0,1,8.48-4.9h32.34a9.81,9.81,0,0,1,8.48,4.9l16.17,28a9.8,9.8,0,0,1,0,9.8l-16.17,28a9.81,9.81,0,0,1-8.48,4.9Z" transform="translate(0.13)"/><path d="M591.67,94.2a4.3,4.3,0,0,1,3.72,2.15l16.17,28a4.34,4.34,0,0,1,0,4.3l-16.17,28a4.3,4.3,0,0,1-3.72,2.15H559.33a4.3,4.3,0,0,1-3.72-2.15l-16.17-28a4.34,4.34,0,0,1,0-4.3l16.17-28a4.3,4.3,0,0,1,3.72-2.15h32.34m0-11H559.33a15.3,15.3,0,0,0-13.25,7.65l-16.16,28a15.27,15.27,0,0,0,0,15.3l16.16,28a15.3,15.3,0,0,0,13.25,7.65h32.34a15.3,15.3,0,0,0,13.25-7.65l16.16-28a15.27,15.27,0,0,0,0-15.3l-16.16-28a15.3,15.3,0,0,0-13.25-7.65Z" transform="translate(0.13)"/><path d="M691.33,88.3a9.81,9.81,0,0,1-8.48-4.9l-16.17-28a9.8,9.8,0,0,1,0-9.8l16.17-28a9.81,9.81,0,0,1,8.48-4.9h32.34a9.81,9.81,0,0,1,8.48,4.9l16.17,28a9.8,9.8,0,0,1,0,9.8l-16.17,28a9.81,9.81,0,0,1-8.48,4.9Z" transform="translate(0.13)"/><path d="M723.67,18.2a4.3,4.3,0,0,1,3.72,2.15l16.17,28a4.34,4.34,0,0,1,0,4.3l-16.17,28a4.3,4.3,0,0,1-3.72,2.15H691.33a4.3,4.3,0,0,1-3.72-2.15l-16.17-28a4.34,4.34,0,0,1,0-4.3l16.17-28a4.3,4.3,0,0,1,3.72-2.15h32.34m0-11H691.33a15.3,15.3,0,0,0-13.25,7.65l-16.16,28a15.27,15.27,0,0,0,0,15.3l16.16,28a15.3,15.3,0,0,0,13.25,7.65h32.34a15.3,15.3,0,0,0,13.25-7.65l16.16-28a15.27,15.27,0,0,0,0-15.3l-16.16-28A15.3,15.3,0,0,0,723.67,7.2Z" transform="translate(0.13)"/><path class="cls-1" d="M757.33,126.3a9.81,9.81,0,0,1-8.48-4.9l-16.17-28a9.8,9.8,0,0,1,0-9.8l16.17-28a9.81,9.81,0,0,1,8.48-4.9h32.34a9.81,9.81,0,0,1,8.48,4.9l16.17,28a9.8,9.8,0,0,1,0,9.8l-16.17,28a9.81,9.81,0,0,1-8.48,4.9Z" transform="translate(0.13)"/><path d="M789.67,56.2a4.3,4.3,0,0,1,3.72,2.15l16.17,28a4.34,4.34,0,0,1,0,4.3l-16.17,28a4.3,4.3,0,0,1-3.72,2.15H757.33a4.3,4.3,0,0,1-3.72-2.15l-16.17-28a4.34,4.34,0,0,1,0-4.3l16.17-28a4.3,4.3,0,0,1,3.72-2.15h32.34m0-11H757.33a15.3,15.3,0,0,0-13.25,7.65l-16.16,28a15.27,15.27,0,0,0,0,15.3l16.16,28a15.3,15.3,0,0,0,13.25,7.65h32.34a15.3,15.3,0,0,0,13.25-7.65l16.16-28a15.27,15.27,0,0,0,0-15.3l-16.16-28a15.3,15.3,0,0,0-13.25-7.65Z" transform="translate(0.13)"/><path class="cls-1" d="M691.33,164.3a9.81,9.81,0,0,1-8.48-4.9l-16.17-28a9.8,9.8,0,0,1,0-9.8l16.17-28a9.81,9.81,0,0,1,8.48-4.9h32.34a9.81,9.81,0,0,1,8.48,4.9l16.17,28a9.8,9.8,0,0,1,0,9.8l-16.17,28a9.81,9.81,0,0,1-8.48,4.9Z" transform="translate(0.13)"/><path d="M723.67,94.2a4.3,4.3,0,0,1,3.72,2.15l16.17,28a4.34,4.34,0,0,1,0,4.3l-16.17,28a4.3,4.3,0,0,1-3.72,2.15H691.33a4.3,4.3,0,0,1-3.72-2.15l-16.17-28a4.34,4.34,0,0,1,0-4.3l16.17-28a4.3,4.3,0,0,1,3.72-2.15h32.34m0-11H691.33a15.3,15.3,0,0,0-13.25,7.65l-16.16,28a15.27,15.27,0,0,0,0,15.3l16.16,28a15.3,15.3,0,0,0,13.25,7.65h32.34a15.3,15.3,0,0,0,13.25-7.65l16.16-28a15.27,15.27,0,0,0,0-15.3l-16.16-28a15.3,15.3,0,0,0-13.25-7.65Z" transform="translate(0.13)"/><path d="M823.33,88.3a9.81,9.81,0,0,1-8.48-4.9l-16.17-28a9.8,9.8,0,0,1,0-9.8l16.17-28a9.81,9.81,0,0,1,8.48-4.9h32.34a9.81,9.81,0,0,1,8.48,4.9l16.17,28a9.8,9.8,0,0,1,0,9.8l-16.17,28a9.81,9.81,0,0,1-8.48,4.9Z" transform="translate(0.13)"/><path d="M855.67,18.2a4.3,4.3,0,0,1,3.72,2.15l16.17,28a4.34,4.34,0,0,1,0,4.3l-16.17,28a4.3,4.3,0,0,1-3.72,2.15H823.33a4.3,4.3,0,0,1-3.72-2.15l-16.17-28a4.34,4.34,0,0,1,0-4.3l16.17-28a4.3,4.3,0,0,1,3.72-2.15h32.34m0-11H823.33a15.3,15.3,0,0,0-13.25,7.65l-16.16,28a15.27,15.27,0,0,0,0,15.3l16.16,28a15.3,15.3,0,0,0,13.25,7.65h32.34a15.3,15.3,0,0,0,13.25-7.65l16.16-28a15.27,15.27,0,0,0,0-15.3l-16.16-28A15.3,15.3,0,0,0,855.67,7.2Z" transform="translate(0.13)"/><path class="cls-1" d="M889.33,126.3a9.81,9.81,0,0,1-8.48-4.9l-16.17-28a9.8,9.8,0,0,1,0-9.8l16.17-28a9.81,9.81,0,0,1,8.48-4.9h32.34a9.81,9.81,0,0,1,8.48,4.9l16.17,28a9.8,9.8,0,0,1,0,9.8l-16.17,28a9.81,9.81,0,0,1-8.48,4.9Z" transform="translate(0.13)"/><path d="M921.67,56.2a4.3,4.3,0,0,1,3.72,2.15l16.17,28a4.34,4.34,0,0,1,0,4.3l-16.17,28a4.3,4.3,0,0,1-3.72,2.15H889.33a4.3,4.3,0,0,1-3.72-2.15l-16.17-28a4.34,4.34,0,0,1,0-4.3l16.17-28a4.3,4.3,0,0,1,3.72-2.15h32.34m0-11H889.33a15.3,15.3,0,0,0-13.25,7.65l-16.16,28a15.27,15.27,0,0,0,0,15.3l16.16,28a15.3,15.3,0,0,0,13.25,7.65h32.34a15.3,15.3,0,0,0,13.25-7.65l16.16-28a15.27,15.27,0,0,0,0-15.3l-16.16-28a15.3,15.3,0,0,0-13.25-7.65Z" transform="translate(0.13)"/><path class="cls-1" d="M823.33,164.3a9.81,9.81,0,0,1-8.48-4.9l-16.17-28a9.8,9.8,0,0,1,0-9.8l16.17-28a9.81,9.81,0,0,1,8.48-4.9h32.34a9.81,9.81,0,0,1,8.48,4.9l16.17,28a9.8,9.8,0,0,1,0,9.8l-16.17,28a9.81,9.81,0,0,1-8.48,4.9Z" transform="translate(0.13)"/><path d="M855.67,94.2a4.3,4.3,0,0,1,3.72,2.15l16.17,28a4.34,4.34,0,0,1,0,4.3l-16.17,28a4.3,4.3,0,0,1-3.72,2.15H823.33a4.3,4.3,0,0,1-3.72-2.15l-16.17-28a4.34,4.34,0,0,1,0-4.3l16.17-28a4.3,4.3,0,0,1,3.72-2.15h32.34m0-11H823.33a15.3,15.3,0,0,0-13.25,7.65l-16.16,28a15.27,15.27,0,0,0,0,15.3l16.16,28a15.3,15.3,0,0,0,13.25,7.65h32.34a15.3,15.3,0,0,0,13.25-7.65l16.16-28a15.27,15.27,0,0,0,0-15.3l-16.16-28a15.3,15.3,0,0,0-13.25-7.65Z" transform="translate(0.13)"/><path class="cls-1" d="M955.33,88.3a9.81,9.81,0,0,1-8.48-4.9l-16.17-28a9.8,9.8,0,0,1,0-9.8l16.17-28a9.81,9.81,0,0,1,8.48-4.9h32.34a9.81,9.81,0,0,1,8.48,4.9l16.17,28a9.8,9.8,0,0,1,0,9.8l-16.17,28a9.81,9.81,0,0,1-8.48,4.9Z" transform="translate(0.13)"/><path d="M987.67,18.2a4.3,4.3,0,0,1,3.72,2.15l16.17,28a4.34,4.34,0,0,1,0,4.3l-16.17,28a4.3,4.3,0,0,1-3.72,2.15H955.33a4.3,4.3,0,0,1-3.72-2.15l-16.17-28a4.34,4.34,0,0,1,0-4.3l16.17-28a4.3,4.3,0,0,1,3.72-2.15h32.34m0-11H955.33a15.3,15.3,0,0,0-13.25,7.65l-16.16,28a15.27,15.27,0,0,0,0,15.3l16.16,28a15.3,15.3,0,0,0,13.25,7.65h32.34a15.3,15.3,0,0,0,13.25-7.65l16.16-28a15.27,15.27,0,0,0,0-15.3l-16.16-28A15.3,15.3,0,0,0,987.67,7.2Z" transform="translate(0.13)"/><path d="M1021.33,126.3a9.81,9.81,0,0,1-8.48-4.9l-16.17-28a9.8,9.8,0,0,1,0-9.8l16.17-28a9.81,9.81,0,0,1,8.48-4.9h32.34a9.81,9.81,0,0,1,8.48,4.9l16.17,28a9.8,9.8,0,0,1,0,9.8l-16.17,28a9.81,9.81,0,0,1-8.48,4.9Z" transform="translate(0.13)"/><path d="M1053.67,56.2a4.3,4.3,0,0,1,3.72,2.15l16.17,28a4.34,4.34,0,0,1,0,4.3l-16.17,28a4.3,4.3,0,0,1-3.72,2.15h-32.34a4.3,4.3,0,0,1-3.72-2.15l-16.17-28a4.34,4.34,0,0,1,0-4.3l16.17-28a4.3,4.3,0,0,1,3.72-2.15h32.34m0-11h-32.34a15.3,15.3,0,0,0-13.25,7.65l-16.16,28a15.27,15.27,0,0,0,0,15.3l16.16,28a15.3,15.3,0,0,0,13.25,7.65h32.34a15.3,15.3,0,0,0,13.25-7.65l16.16-28a15.27,15.27,0,0,0,0-15.3l-16.16-28a15.3,15.3,0,0,0-13.25-7.65Z" transform="translate(0.13)"/><path d="M955.33,164.3a9.81,9.81,0,0,1-8.48-4.9l-16.17-28a9.8,9.8,0,0,1,0-9.8l16.17-28a9.81,9.81,0,0,1,8.48-4.9h32.34a9.81,9.81,0,0,1,8.48,4.9l16.17,28a9.8,9.8,0,0,1,0,9.8l-16.17,28a9.81,9.81,0,0,1-8.48,4.9Z" transform="translate(0.13)"/><path d="M987.67,94.2a4.3,4.3,0,0,1,3.72,2.15l16.17,28a4.34,4.34,0,0,1,0,4.3l-16.17,28a4.3,4.3,0,0,1-3.72,2.15H955.33a4.3,4.3,0,0,1-3.72-2.15l-16.17-28a4.34,4.34,0,0,1,0-4.3l16.17-28a4.3,4.3,0,0,1,3.72-2.15h32.34m0-11H955.33a15.3,15.3,0,0,0-13.25,7.65l-16.16,28a15.27,15.27,0,0,0,0,15.3l16.16,28a15.3,15.3,0,0,0,13.25,7.65h32.34a15.3,15.3,0,0,0,13.25-7.65l16.16-28a15.27,15.27,0,0,0,0-15.3l-16.16-28a15.3,15.3,0,0,0-13.25-7.65Z" transform="translate(0.13)"/><path class="cls-1" d="M1087.33,88.3a9.81,9.81,0,0,1-8.48-4.9l-16.17-28a9.8,9.8,0,0,1,0-9.8l16.17-28a9.81,9.81,0,0,1,8.48-4.9h32.34a9.81,9.81,0,0,1,8.48,4.9l16.17,28a9.8,9.8,0,0,1,0,9.8l-16.17,28a9.81,9.81,0,0,1-8.48,4.9Z" transform="translate(0.13)"/><path d="M1119.67,18.2a4.3,4.3,0,0,1,3.72,2.15l16.17,28a4.34,4.34,0,0,1,0,4.3l-16.17,28a4.3,4.3,0,0,1-3.72,2.15h-32.34a4.3,4.3,0,0,1-3.72-2.15l-16.17-28a4.34,4.34,0,0,1,0-4.3l16.17-28a4.3,4.3,0,0,1,3.72-2.15h32.34m0-11h-32.34a15.3,15.3,0,0,0-13.25,7.65l-16.16,28a15.27,15.27,0,0,0,0,15.3l16.16,28a15.3,15.3,0,0,0,13.25,7.65h32.34a15.3,15.3,0,0,0,13.25-7.65l16.16-28a15.27,15.27,0,0,0,0-15.3l-16.16-28a15.3,15.3,0,0,0-13.25-7.65Z" transform="translate(0.13)"/><path d="M1153.33,126.3a9.81,9.81,0,0,1-8.48-4.9l-16.17-28a9.8,9.8,0,0,1,0-9.8l16.17-28a9.81,9.81,0,0,1,8.48-4.9h32.34a9.81,9.81,0,0,1,8.48,4.9l16.17,28a9.8,9.8,0,0,1,0,9.8l-16.17,28a9.81,9.81,0,0,1-8.48,4.9Z" transform="translate(0.13)"/><path d="M1185.67,56.2a4.3,4.3,0,0,1,3.72,2.15l16.17,28a4.34,4.34,0,0,1,0,4.3l-16.17,28a4.3,4.3,0,0,1-3.72,2.15h-32.34a4.3,4.3,0,0,1-3.72-2.15l-16.17-28a4.34,4.34,0,0,1,0-4.3l16.17-28a4.3,4.3,0,0,1,3.72-2.15h32.34m0-11h-32.34a15.3,15.3,0,0,0-13.25,7.65l-16.16,28a15.27,15.27,0,0,0,0,15.3l16.16,28a15.3,15.3,0,0,0,13.25,7.65h32.34a15.3,15.3,0,0,0,13.25-7.65l16.16-28a15.27,15.27,0,0,0,0-15.3l-16.16-28a15.3,15.3,0,0,0-13.25-7.65Z" transform="translate(0.13)"/><path class="cls-1" d="M1087.33,164.3a9.81,9.81,0,0,1-8.48-4.9l-16.17-28a9.8,9.8,0,0,1,0-9.8l16.17-28a9.81,9.81,0,0,1,8.48-4.9h32.34a9.81,9.81,0,0,1,8.48,4.9l16.17,28a9.8,9.8,0,0,1,0,9.8l-16.17,28a9.81,9.81,0,0,1-8.48,4.9Z" transform="translate(0.13)"/><path d="M1119.67,94.2a4.3,4.3,0,0,1,3.72,2.15l16.17,28a4.34,4.34,0,0,1,0,4.3l-16.17,28a4.3,4.3,0,0,1-3.72,2.15h-32.34a4.3,4.3,0,0,1-3.72-2.15l-16.17-28a4.34,4.34,0,0,1,0-4.3l16.17-28a4.3,4.3,0,0,1,3.72-2.15h32.34m0-11h-32.34a15.3,15.3,0,0,0-13.25,7.65l-16.16,28a15.27,15.27,0,0,0,0,15.3l16.16,28a15.3,15.3,0,0,0,13.25,7.65h32.34a15.3,15.3,0,0,0,13.25-7.65l16.16-28a15.27,15.27,0,0,0,0-15.3l-16.16-28a15.3,15.3,0,0,0-13.25-7.65Z" transform="translate(0.13)"/><path class="cls-1" d="M1219.33,88.3a9.81,9.81,0,0,1-8.48-4.9l-16.17-28a9.8,9.8,0,0,1,0-9.8l16.17-28a9.81,9.81,0,0,1,8.48-4.9h32.34a9.81,9.81,0,0,1,8.48,4.9l16.17,28a9.8,9.8,0,0,1,0,9.8l-16.17,28a9.81,9.81,0,0,1-8.48,4.9Z" transform="translate(0.13)"/><path d="M1251.67,18.2a4.3,4.3,0,0,1,3.72,2.15l16.17,28a4.34,4.34,0,0,1,0,4.3l-16.17,28a4.3,4.3,0,0,1-3.72,2.15h-32.34a4.3,4.3,0,0,1-3.72-2.15l-16.17-28a4.34,4.34,0,0,1,0-4.3l16.17-28a4.3,4.3,0,0,1,3.72-2.15h32.34m0-11h-32.34a15.3,15.3,0,0,0-13.25,7.65l-16.16,28a15.27,15.27,0,0,0,0,15.3l16.16,28a15.3,15.3,0,0,0,13.25,7.65h32.34a15.3,15.3,0,0,0,13.25-7.65l16.16-28a15.27,15.27,0,0,0,0-15.3l-16.16-28a15.3,15.3,0,0,0-13.25-7.65Z" transform="translate(0.13)"/><path d="M1285.33,126.3a9.81,9.81,0,0,1-8.48-4.9l-16.17-28a9.8,9.8,0,0,1,0-9.8l16.17-28a9.81,9.81,0,0,1,8.48-4.9h32.34a9.81,9.81,0,0,1,8.48,4.9l16.17,28a9.8,9.8,0,0,1,0,9.8l-16.17,28a9.81,9.81,0,0,1-8.48,4.9Z" transform="translate(0.13)"/><path d="M1317.67,56.2a4.3,4.3,0,0,1,3.72,2.15l16.17,28a4.34,4.34,0,0,1,0,4.3l-16.17,28a4.3,4.3,0,0,1-3.72,2.15h-32.34a4.3,4.3,0,0,1-3.72-2.15l-16.17-28a4.34,4.34,0,0,1,0-4.3l16.17-28a4.3,4.3,0,0,1,3.72-2.15h32.34m0-11h-32.34a15.3,15.3,0,0,0-13.25,7.65l-16.16,28a15.27,15.27,0,0,0,0,15.3l16.16,28a15.3,15.3,0,0,0,13.25,7.65h32.34a15.3,15.3,0,0,0,13.25-7.65l16.16-28a15.27,15.27,0,0,0,0-15.3l-16.16-28a15.3,15.3,0,0,0-13.25-7.65Z" transform="translate(0.13)"/><path class="cls-1" d="M1219.33,164.3a9.81,9.81,0,0,1-8.48-4.9l-16.17-28a9.8,9.8,0,0,1,0-9.8l16.17-28a9.81,9.81,0,0,1,8.48-4.9h32.34a9.81,9.81,0,0,1,8.48,4.9l16.17,28a9.8,9.8,0,0,1,0,9.8l-16.17,28a9.81,9.81,0,0,1-8.48,4.9Z" transform="translate(0.13)"/><path d="M1251.67,94.2a4.3,4.3,0,0,1,3.72,2.15l16.17,28a4.34,4.34,0,0,1,0,4.3l-16.17,28a4.3,4.3,0,0,1-3.72,2.15h-32.34a4.3,4.3,0,0,1-3.72-2.15l-16.17-28a4.34,4.34,0,0,1,0-4.3l16.17-28a4.3,4.3,0,0,1,3.72-2.15h32.34m0-11h-32.34a15.3,15.3,0,0,0-13.25,7.65l-16.16,28a15.27,15.27,0,0,0,0,15.3l16.16,28a15.3,15.3,0,0,0,13.25,7.65h32.34a15.3,15.3,0,0,0,13.25-7.65l16.16-28a15.27,15.27,0,0,0,0-15.3l-16.16-28a15.3,15.3,0,0,0-13.25-7.65Z" transform="translate(0.13)"/><path d="M1351.33,88.3a9.81,9.81,0,0,1-8.48-4.9l-16.17-28a9.8,9.8,0,0,1,0-9.8l16.17-28a9.81,9.81,0,0,1,8.48-4.9h32.34a9.81,9.81,0,0,1,8.48,4.9l16.17,28a9.8,9.8,0,0,1,0,9.8l-16.17,28a9.81,9.81,0,0,1-8.48,4.9Z" transform="translate(0.13)"/><path d="M1383.67,18.2a4.3,4.3,0,0,1,3.72,2.15l16.17,28a4.34,4.34,0,0,1,0,4.3l-16.17,28a4.3,4.3,0,0,1-3.72,2.15h-32.34a4.3,4.3,0,0,1-3.72-2.15l-16.17-28a4.34,4.34,0,0,1,0-4.3l16.17-28a4.3,4.3,0,0,1,3.72-2.15h32.34m0-11h-32.34a15.3,15.3,0,0,0-13.25,7.65l-16.16,28a15.27,15.27,0,0,0,0,15.3l16.16,28a15.3,15.3,0,0,0,13.25,7.65h32.34a15.3,15.3,0,0,0,13.25-7.65l16.16-28a15.27,15.27,0,0,0,0-15.3l-16.16-28a15.3,15.3,0,0,0-13.25-7.65Z" transform="translate(0.13)"/><path d="M1417.33,126.3a9.81,9.81,0,0,1-8.48-4.9l-16.17-28a9.8,9.8,0,0,1,0-9.8l16.17-28a9.81,9.81,0,0,1,8.48-4.9h32.34a9.81,9.81,0,0,1,8.48,4.9l16.17,28a9.8,9.8,0,0,1,0,9.8l-16.17,28a9.81,9.81,0,0,1-8.48,4.9Z" transform="translate(0.13)"/><path d="M1449.67,56.2a4.3,4.3,0,0,1,3.72,2.15l16.17,28a4.34,4.34,0,0,1,0,4.3l-16.17,28a4.3,4.3,0,0,1-3.72,2.15h-32.34a4.3,4.3,0,0,1-3.72-2.15l-16.17-28a4.34,4.34,0,0,1,0-4.3l16.17-28a4.3,4.3,0,0,1,3.72-2.15h32.34m0-11h-32.34a15.3,15.3,0,0,0-13.25,7.65l-16.16,28a15.27,15.27,0,0,0,0,15.3l16.16,28a15.3,15.3,0,0,0,13.25,7.65h32.34a15.3,15.3,0,0,0,13.25-7.65l16.16-28a15.27,15.27,0,0,0,0-15.3l-16.16-28a15.3,15.3,0,0,0-13.25-7.65Z" transform="translate(0.13)"/><path class="cls-1" d="M1351.33,164.3a9.81,9.81,0,0,1-8.48-4.9l-16.17-28a9.8,9.8,0,0,1,0-9.8l16.17-28a9.81,9.81,0,0,1,8.48-4.9h32.34a9.81,9.81,0,0,1,8.48,4.9l16.17,28a9.8,9.8,0,0,1,0,9.8l-16.17,28a9.81,9.81,0,0,1-8.48,4.9Z" transform="translate(0.13)"/><path d="M1383.67,94.2a4.3,4.3,0,0,1,3.72,2.15l16.17,28a4.34,4.34,0,0,1,0,4.3l-16.17,28a4.3,4.3,0,0,1-3.72,2.15h-32.34a4.3,4.3,0,0,1-3.72-2.15l-16.17-28a4.34,4.34,0,0,1,0-4.3l16.17-28a4.3,4.3,0,0,1,3.72-2.15h32.34m0-11h-32.34a15.3,15.3,0,0,0-13.25,7.65l-16.16,28a15.27,15.27,0,0,0,0,15.3l16.16,28a15.3,15.3,0,0,0,13.25,7.65h32.34a15.3,15.3,0,0,0,13.25-7.65l16.16-28a15.27,15.27,0,0,0,0-15.3l-16.16-28a15.3,15.3,0,0,0-13.25-7.65Z" transform="translate(0.13)"/><path class="cls-1" d="M1483.33,88.3a9.81,9.81,0,0,1-8.48-4.9l-16.17-28a9.8,9.8,0,0,1,0-9.8l16.17-28a9.81,9.81,0,0,1,8.48-4.9h32.34a9.81,9.81,0,0,1,8.48,4.9l16.17,28a9.8,9.8,0,0,1,0,9.8l-16.17,28a9.81,9.81,0,0,1-8.48,4.9Z" transform="translate(0.13)"/><path d="M1515.67,18.2a4.3,4.3,0,0,1,3.72,2.15l16.17,28a4.34,4.34,0,0,1,0,4.3l-16.17,28a4.3,4.3,0,0,1-3.72,2.15h-32.34a4.3,4.3,0,0,1-3.72-2.15l-16.17-28a4.34,4.34,0,0,1,0-4.3l16.17-28a4.3,4.3,0,0,1,3.72-2.15h32.34m0-11h-32.34a15.3,15.3,0,0,0-13.25,7.65l-16.16,28a15.27,15.27,0,0,0,0,15.3l16.16,28a15.3,15.3,0,0,0,13.25,7.65h32.34a15.3,15.3,0,0,0,13.25-7.65l16.16-28a15.27,15.27,0,0,0,0-15.3l-16.16-28a15.3,15.3,0,0,0-13.25-7.65Z" transform="translate(0.13)"/><path d="M1549.33,126.3a9.81,9.81,0,0,1-8.48-4.9l-16.17-28a9.8,9.8,0,0,1,0-9.8l16.17-28a9.81,9.81,0,0,1,8.48-4.9h32.34a9.81,9.81,0,0,1,8.48,4.9l16.17,28a9.8,9.8,0,0,1,0,9.8l-16.17,28a9.81,9.81,0,0,1-8.48,4.9Z" transform="translate(0.13)"/><path d="M1581.67,56.2a4.3,4.3,0,0,1,3.72,2.15l16.17,28a4.34,4.34,0,0,1,0,4.3l-16.17,28a4.3,4.3,0,0,1-3.72,2.15h-32.34a4.3,4.3,0,0,1-3.72-2.15l-16.17-28a4.34,4.34,0,0,1,0-4.3l16.17-28a4.3,4.3,0,0,1,3.72-2.15h32.34m0-11h-32.34a15.3,15.3,0,0,0-13.25,7.65l-16.16,28a15.27,15.27,0,0,0,0,15.3l16.16,28a15.3,15.3,0,0,0,13.25,7.65h32.34a15.3,15.3,0,0,0,13.25-7.65l16.16-28a15.27,15.27,0,0,0,0-15.3l-16.16-28a15.3,15.3,0,0,0-13.25-7.65Z" transform="translate(0.13)"/><path class="cls-1" d="M1483.33,164.3a9.81,9.81,0,0,1-8.48-4.9l-16.17-28a9.8,9.8,0,0,1,0-9.8l16.17-28a9.81,9.81,0,0,1,8.48-4.9h32.34a9.81,9.81,0,0,1,8.48,4.9l16.17,28a9.8,9.8,0,0,1,0,9.8l-16.17,28a9.81,9.81,0,0,1-8.48,4.9Z" transform="translate(0.13)"/><path d="M1515.67,94.2a4.3,4.3,0,0,1,3.72,2.15l16.17,28a4.34,4.34,0,0,1,0,4.3l-16.17,28a4.3,4.3,0,0,1-3.72,2.15h-32.34a4.3,4.3,0,0,1-3.72-2.15l-16.17-28a4.34,4.34,0,0,1,0-4.3l16.17-28a4.3,4.3,0,0,1,3.72-2.15h32.34m0-11h-32.34a15.3,15.3,0,0,0-13.25,7.65l-16.16,28a15.27,15.27,0,0,0,0,15.3l16.16,28a15.3,15.3,0,0,0,13.25,7.65h32.34a15.3,15.3,0,0,0,13.25-7.65l16.16-28a15.27,15.27,0,0,0,0-15.3l-16.16-28a15.3,15.3,0,0,0-13.25-7.65Z" transform="translate(0.13)"/><path class="cls-1" d="M1615.33,88.3a9.81,9.81,0,0,1-8.48-4.9l-16.17-28a9.8,9.8,0,0,1,0-9.8l16.17-28a9.81,9.81,0,0,1,8.48-4.9h32.34a9.81,9.81,0,0,1,8.48,4.9l16.17,28a9.8,9.8,0,0,1,0,9.8l-16.17,28a9.81,9.81,0,0,1-8.48,4.9Z" transform="translate(0.13)"/><path d="M1647.67,18.2a4.3,4.3,0,0,1,3.72,2.15l16.17,28a4.34,4.34,0,0,1,0,4.3l-16.17,28a4.3,4.3,0,0,1-3.72,2.15h-32.34a4.3,4.3,0,0,1-3.72-2.15l-16.17-28a4.34,4.34,0,0,1,0-4.3l16.17-28a4.3,4.3,0,0,1,3.72-2.15h32.34m0-11h-32.34a15.3,15.3,0,0,0-13.25,7.65l-16.16,28a15.27,15.27,0,0,0,0,15.3l16.16,28a15.3,15.3,0,0,0,13.25,7.65h32.34a15.3,15.3,0,0,0,13.25-7.65l16.16-28a15.27,15.27,0,0,0,0-15.3l-16.16-28a15.3,15.3,0,0,0-13.25-7.65Z" transform="translate(0.13)"/><path class="cls-1" d="M1681.33,126.3a9.81,9.81,0,0,1-8.48-4.9l-16.17-28a9.8,9.8,0,0,1,0-9.8l16.17-28a9.81,9.81,0,0,1,8.48-4.9h32.34a9.81,9.81,0,0,1,8.48,4.9l16.17,28a9.8,9.8,0,0,1,0,9.8l-16.17,28a9.81,9.81,0,0,1-8.48,4.9Z" transform="translate(0.13)"/><path d="M1713.67,56.2a4.3,4.3,0,0,1,3.72,2.15l16.17,28a4.34,4.34,0,0,1,0,4.3l-16.17,28a4.3,4.3,0,0,1-3.72,2.15h-32.34a4.3,4.3,0,0,1-3.72-2.15l-16.17-28a4.34,4.34,0,0,1,0-4.3l16.17-28a4.3,4.3,0,0,1,3.72-2.15h32.34m0-11h-32.34a15.3,15.3,0,0,0-13.25,7.65l-16.16,28a15.27,15.27,0,0,0,0,15.3l16.16,28a15.3,15.3,0,0,0,13.25,7.65h32.34a15.3,15.3,0,0,0,13.25-7.65l16.16-28a15.27,15.27,0,0,0,0-15.3l-16.16-28a15.3,15.3,0,0,0-13.25-7.65Z" transform="translate(0.13)"/><path d="M1615.33,164.3a9.81,9.81,0,0,1-8.48-4.9l-16.17-28a9.8,9.8,0,0,1,0-9.8l16.17-28a9.81,9.81,0,0,1,8.48-4.9h32.34a9.81,9.81,0,0,1,8.48,4.9l16.17,28a9.8,9.8,0,0,1,0,9.8l-16.17,28a9.81,9.81,0,0,1-8.48,4.9Z" transform="translate(0.13)"/><path d="M1647.67,94.2a4.3,4.3,0,0,1,3.72,2.15l16.17,28a4.34,4.34,0,0,1,0,4.3l-16.17,28a4.3,4.3,0,0,1-3.72,2.15h-32.34a4.3,4.3,0,0,1-3.72-2.15l-16.17-28a4.34,4.34,0,0,1,0-4.3l16.17-28a4.3,4.3,0,0,1,3.72-2.15h32.34m0-11h-32.34a15.3,15.3,0,0,0-13.25,7.65l-16.16,28a15.27,15.27,0,0,0,0,15.3l16.16,28a15.3,15.3,0,0,0,13.25,7.65h32.34a15.3,15.3,0,0,0,13.25-7.65l16.16-28a15.27,15.27,0,0,0,0-15.3l-16.16-28a15.3,15.3,0,0,0-13.25-7.65Z" transform="translate(0.13)"/><path d="M1747.33,88.3a9.81,9.81,0,0,1-8.48-4.9l-16.17-28a9.8,9.8,0,0,1,0-9.8l16.17-28a9.81,9.81,0,0,1,8.48-4.9h32.34a9.81,9.81,0,0,1,8.48,4.9l16.17,28a9.8,9.8,0,0,1,0,9.8l-16.17,28a9.81,9.81,0,0,1-8.48,4.9Z" transform="translate(0.13)"/><path d="M1779.67,18.2a4.3,4.3,0,0,1,3.72,2.15l16.17,28a4.34,4.34,0,0,1,0,4.3l-16.17,28a4.3,4.3,0,0,1-3.72,2.15h-32.34a4.3,4.3,0,0,1-3.72-2.15l-16.17-28a4.34,4.34,0,0,1,0-4.3l16.17-28a4.3,4.3,0,0,1,3.72-2.15h32.34m0-11h-32.34a15.3,15.3,0,0,0-13.25,7.65l-16.16,28a15.27,15.27,0,0,0,0,15.3l16.16,28a15.3,15.3,0,0,0,13.25,7.65h32.34a15.3,15.3,0,0,0,13.25-7.65l16.16-28a15.27,15.27,0,0,0,0-15.3l-16.16-28a15.3,15.3,0,0,0-13.25-7.65Z" transform="translate(0.13)"/><path d="M1813.33,126.3a9.81,9.81,0,0,1-8.48-4.9l-16.17-28a9.8,9.8,0,0,1,0-9.8l16.17-28a9.81,9.81,0,0,1,8.48-4.9h32.34a9.81,9.81,0,0,1,8.48,4.9l16.17,28a9.8,9.8,0,0,1,0,9.8l-16.17,28a9.81,9.81,0,0,1-8.48,4.9Z" transform="translate(0.13)"/><path d="M1845.67,56.2a4.3,4.3,0,0,1,3.72,2.15l16.17,28a4.34,4.34,0,0,1,0,4.3l-16.17,28a4.3,4.3,0,0,1-3.72,2.15h-32.34a4.3,4.3,0,0,1-3.72-2.15l-16.17-28a4.34,4.34,0,0,1,0-4.3l16.17-28a4.3,4.3,0,0,1,3.72-2.15h32.34m0-11h-32.34a15.3,15.3,0,0,0-13.25,7.65l-16.16,28a15.27,15.27,0,0,0,0,15.3l16.16,28a15.3,15.3,0,0,0,13.25,7.65h32.34a15.3,15.3,0,0,0,13.25-7.65l16.16-28a15.27,15.27,0,0,0,0-15.3l-16.16-28a15.3,15.3,0,0,0-13.25-7.65Z" transform="translate(0.13)"/><path class="cls-1" d="M1747.33,164.3a9.81,9.81,0,0,1-8.48-4.9l-16.17-28a9.8,9.8,0,0,1,0-9.8l16.17-28a9.81,9.81,0,0,1,8.48-4.9h32.34a9.81,9.81,0,0,1,8.48,4.9l16.17,28a9.8,9.8,0,0,1,0,9.8l-16.17,28a9.81,9.81,0,0,1-8.48,4.9Z" transform="translate(0.13)"/><path d="M1779.67,94.2a4.3,4.3,0,0,1,3.72,2.15l16.17,28a4.34,4.34,0,0,1,0,4.3l-16.17,28a4.3,4.3,0,0,1-3.72,2.15h-32.34a4.3,4.3,0,0,1-3.72-2.15l-16.17-28a4.34,4.34,0,0,1,0-4.3l16.17-28a4.3,4.3,0,0,1,3.72-2.15h32.34m0-11h-32.34a15.3,15.3,0,0,0-13.25,7.65l-16.16,28a15.27,15.27,0,0,0,0,15.3l16.16,28a15.3,15.3,0,0,0,13.25,7.65h32.34a15.3,15.3,0,0,0,13.25-7.65l16.16-28a15.27,15.27,0,0,0,0-15.3l-16.16-28a15.3,15.3,0,0,0-13.25-7.65Z" transform="translate(0.13)"/><path d="M1879.33,88.3a9.81,9.81,0,0,1-8.48-4.9l-16.17-28a9.8,9.8,0,0,1,0-9.8l16.17-28a9.81,9.81,0,0,1,8.48-4.9h32.34a9.81,9.81,0,0,1,8.48,4.9l16.17,28a9.8,9.8,0,0,1,0,9.8l-16.17,28a9.81,9.81,0,0,1-8.48,4.9Z" transform="translate(0.13)"/><path d="M1911.67,18.2a4.3,4.3,0,0,1,3.72,2.15l16.17,28a4.34,4.34,0,0,1,0,4.3l-16.17,28a4.3,4.3,0,0,1-3.72,2.15h-32.34a4.3,4.3,0,0,1-3.72-2.15l-16.17-28a4.34,4.34,0,0,1,0-4.3l16.17-28a4.3,4.3,0,0,1,3.72-2.15h32.34m0-11h-32.34a15.3,15.3,0,0,0-13.25,7.65l-16.16,28a15.27,15.27,0,0,0,0,15.3l16.16,28a15.3,15.3,0,0,0,13.25,7.65h32.34a15.3,15.3,0,0,0,13.25-7.65l16.16-28a15.27,15.27,0,0,0,0-15.3l-16.16-28a15.3,15.3,0,0,0-13.25-7.65Z" transform="translate(0.13)"/><path d="M1879.33,164.3a9.81,9.81,0,0,1-8.48-4.9l-16.17-28a9.8,9.8,0,0,1,0-9.8l16.17-28a9.81,9.81,0,0,1,8.48-4.9h32.34a9.81,9.81,0,0,1,8.48,4.9l16.17,28a9.8,9.8,0,0,1,0,9.8l-16.17,28a9.81,9.81,0,0,1-8.48,4.9Z" transform="translate(0.13)"/><path d="M1911.67,94.2a4.3,4.3,0,0,1,3.72,2.15l16.17,28a4.34,4.34,0,0,1,0,4.3l-16.17,28a4.3,4.3,0,0,1-3.72,2.15h-32.34a4.3,4.3,0,0,1-3.72-2.15l-16.17-28a4.34,4.34,0,0,1,0-4.3l16.17-28a4.3,4.3,0,0,1,3.72-2.15h32.34m0-11h-32.34a15.3,15.3,0,0,0-13.25,7.65l-16.16,28a15.27,15.27,0,0,0,0,15.3l16.16,28a15.3,15.3,0,0,0,13.25,7.65h32.34a15.3,15.3,0,0,0,13.25-7.65l16.16-28a15.27,15.27,0,0,0,0-15.3l-16.16-28a15.3,15.3,0,0,0-13.25-7.65Z" transform="translate(0.13)"/></svg>