<svg id="Livello_1" data-name="Livello 1" xmlns="http://www.w3.org/2000/svg" viewBox="0 0 162.27 162.6"><defs><style>.cls-1{fill:#ffb43b;}.cls-2{fill:#cc962b;}</style></defs><title>alveare1</title><path class="cls-1" d="M133.33,301.3a9.81,9.81,0,0,1-8.48-4.9l-16.17-28a9.8,9.8,0,0,1,0-9.8l16.17-28a9.81,9.81,0,0,1,8.48-4.9h32.34a9.81,9.81,0,0,1,8.48,4.9l16.17,28a9.8,9.8,0,0,1,0,9.8l-16.17,28a9.81,9.81,0,0,1-8.48,4.9Z" transform="translate(-101.87 -220.2)"/><path class="cls-2" d="M165.67,231.2a4.3,4.3,0,0,1,3.72,2.15l16.17,28a4.34,4.34,0,0,1,0,4.3l-16.17,28a4.3,4.3,0,0,1-3.72,2.15H133.33a4.3,4.3,0,0,1-3.72-2.15l-16.17-28a4.34,4.34,0,0,1,0-4.3l16.17-28a4.3,4.3,0,0,1,3.72-2.15h32.34m0-11H133.33a15.3,15.3,0,0,0-13.25,7.65l-16.16,28a15.27,15.27,0,0,0,0,15.3l16.16,28a15.3,15.3,0,0,0,13.25,7.65h32.34a15.3,15.3,0,0,0,13.25-7.65l16.16-28a15.27,15.27,0,0,0,0-15.3l-16.16-28a15.3,15.3,0,0,0-13.25-7.65Z" transform="translate(-101.87 -220.2)"/><path class="cls-1" d="M200.33,337.3a9.79,9.79,0,0,1-8.48-4.9l-16.17-28a9.8,9.8,0,0,1,0-9.8l16.17-28a9.81,9.81,0,0,1,8.48-4.9h32.34a9.81,9.81,0,0,1,8.48,4.9l16.17,28a9.8,9.8,0,0,1,0,9.8l-16.17,28a9.79,9.79,0,0,1-8.48,4.9Z" transform="translate(-101.87 -220.2)"/><path class="cls-2" d="M232.67,267.2a4.3,4.3,0,0,1,3.72,2.15l16.17,28a4.34,4.34,0,0,1,0,4.3l-16.17,28a4.3,4.3,0,0,1-3.72,2.15H200.33a4.3,4.3,0,0,1-3.72-2.15l-16.17-28a4.34,4.34,0,0,1,0-4.3l16.17-28a4.3,4.3,0,0,1,3.72-2.15h32.34m0-11H200.33a15.3,15.3,0,0,0-13.25,7.65l-16.16,28a15.27,15.27,0,0,0,0,15.3l16.16,28a15.3,15.3,0,0,0,13.25,7.65h32.34a15.3,15.3,0,0,0,13.25-7.65l16.16-28a15.27,15.27,0,0,0,0-15.3l-16.16-28a15.3,15.3,0,0,0-13.25-7.65Z" transform="translate(-101.87 -220.2)"/><path class="cls-1" d="M135.33,377.3a9.81,9.81,0,0,1-8.48-4.9l-16.17-28a9.8,9.8,0,0,1,0-9.8l16.17-28a9.81,9.81,0,0,1,8.48-4.9h32.34a9.81,9.81,0,0,1,8.48,4.9l16.17,28a9.8,9.8,0,0,1,0,9.8l-16.17,28a9.81,9.81,0,0,1-8.48,4.9Z" transform="translate(-101.87 -220.2)"/><path class="cls-2" d="M167.67,307.2a4.3,4.3,0,0,1,3.72,2.15l16.17,28a4.34,4.34,0,0,1,0,4.3l-16.17,28a4.3,4.3,0,0,1-3.72,2.15H135.33a4.3,4.3,0,0,1-3.72-2.15l-16.17-28a4.34,4.34,0,0,1,0-4.3l16.17-28a4.3,4.3,0,0,1,3.72-2.15h32.34m0-11H135.33a15.3,15.3,0,0,0-13.25,7.65l-16.16,28a15.27,15.27,0,0,0,0,15.3l16.16,28a15.3,15.3,0,0,0,13.25,7.65h32.34a15.3,15.3,0,0,0,13.25-7.65l16.16-28a15.27,15.27,0,0,0,0-15.3l-16.16-28a15.3,15.3,0,0,0-13.25-7.65Z" transform="translate(-101.87 -220.2)"/></svg>