<svg id="Livello_1" data-name="Livello 1" xmlns="http://www.w3.org/2000/svg" viewBox="0 0 199.6 226.27"><defs><style>.cls-1{fill:#ffb43b;}.cls-2{fill:#cc962b;}</style></defs><title>alveare2</title><path class="cls-1" d="M508.5,344.63a9.8,9.8,0,0,1-4.9-1.31l-28-16.17a9.81,9.81,0,0,1-4.9-8.48V286.33a9.81,9.81,0,0,1,4.9-8.48l28-16.17a9.82,9.82,0,0,1,9.8,0l28,16.17a9.81,9.81,0,0,1,4.9,8.48v32.34a9.81,9.81,0,0,1-4.9,8.48l-28,16.17A9.8,9.8,0,0,1,508.5,344.63Z" transform="translate(-352.2 -189.87)"/><path class="cls-2" d="M508.5,265.87a4.37,4.37,0,0,1,2.15.57l28,16.17a4.3,4.3,0,0,1,2.15,3.72v32.34a4.3,4.3,0,0,1-2.15,3.72l-28,16.17a4.34,4.34,0,0,1-4.3,0l-28-16.17a4.3,4.3,0,0,1-2.15-3.72V286.33a4.3,4.3,0,0,1,2.15-3.72l28-16.17a4.37,4.37,0,0,1,2.15-.57m0-11a15.27,15.27,0,0,0-7.65,2.05l-28,16.16a15.3,15.3,0,0,0-7.65,13.25v32.34a15.3,15.3,0,0,0,7.65,13.25l28,16.16a15.3,15.3,0,0,0,15.3,0l28-16.16a15.3,15.3,0,0,0,7.65-13.25V286.33a15.3,15.3,0,0,0-7.65-13.25l-28-16.16a15.27,15.27,0,0,0-7.65-2.05Z" transform="translate(-352.2 -189.87)"/><path class="cls-1" d="M470.23,410.63a9.79,9.79,0,0,1-5-1.35l-27.87-16.4a9.84,9.84,0,0,1-4.82-8.53l.26-32.33a9.82,9.82,0,0,1,5-8.44l28.14-15.94a9.82,9.82,0,0,1,9.8.08l27.87,16.4a9.84,9.84,0,0,1,4.82,8.53L508.17,385a9.82,9.82,0,0,1-5,8.44l-28.14,15.94a9.84,9.84,0,0,1-4.83,1.27Z" transform="translate(-352.2 -189.87)"/><path class="cls-2" d="M470.77,331.87a4.3,4.3,0,0,1,2.18.59l27.87,16.4a4.29,4.29,0,0,1,2.11,3.74l-.26,32.34a4.33,4.33,0,0,1-2.18,3.7l-28.14,15.94a4.38,4.38,0,0,1-2.12.55,4.3,4.3,0,0,1-2.18-.59l-27.87-16.4a4.29,4.29,0,0,1-2.11-3.74l.26-32.34a4.33,4.33,0,0,1,2.18-3.7l28.14-15.94a4.38,4.38,0,0,1,2.12-.55m0-11a15.34,15.34,0,0,0-7.54,2l-28.14,15.94A15.32,15.32,0,0,0,427.33,352l-.26,32.34a15.28,15.28,0,0,0,7.53,13.31L462.47,414a15.34,15.34,0,0,0,15.3.13l28.14-15.94A15.32,15.32,0,0,0,513.67,385l.26-32.34a15.28,15.28,0,0,0-7.53-13.31L478.53,323a15.3,15.3,0,0,0-7.76-2.11Z" transform="translate(-352.2 -189.87)"/><path class="cls-1" d="M432.5,344.63a9.8,9.8,0,0,1-4.9-1.31l-28-16.17a9.81,9.81,0,0,1-4.9-8.48V286.33a9.81,9.81,0,0,1,4.9-8.48l28-16.17a9.82,9.82,0,0,1,9.8,0l28,16.17a9.81,9.81,0,0,1,4.9,8.48v32.34a9.81,9.81,0,0,1-4.9,8.48l-28,16.17A9.8,9.8,0,0,1,432.5,344.63Z" transform="translate(-352.2 -189.87)"/><path class="cls-2" d="M432.5,265.87a4.37,4.37,0,0,1,2.15.57l28,16.17a4.3,4.3,0,0,1,2.15,3.72v32.34a4.3,4.3,0,0,1-2.15,3.72l-28,16.17a4.34,4.34,0,0,1-4.3,0l-28-16.17a4.3,4.3,0,0,1-2.15-3.72V286.33a4.3,4.3,0,0,1,2.15-3.72l28-16.17a4.37,4.37,0,0,1,2.15-.57m0-11a15.27,15.27,0,0,0-7.65,2.05l-28,16.16a15.3,15.3,0,0,0-7.65,13.25v32.34a15.3,15.3,0,0,0,7.65,13.25l28,16.16a15.3,15.3,0,0,0,15.3,0l28-16.16a15.3,15.3,0,0,0,7.65-13.25V286.33a15.3,15.3,0,0,0-7.65-13.25l-28-16.16a15.27,15.27,0,0,0-7.65-2.05Z" transform="translate(-352.2 -189.87)"/><path class="cls-1" d="M471.5,279.63a9.8,9.8,0,0,1-4.9-1.31l-28-16.17a9.81,9.81,0,0,1-4.9-8.48V221.33a9.81,9.81,0,0,1,4.9-8.48l28-16.17a9.82,9.82,0,0,1,9.8,0l28,16.17a9.81,9.81,0,0,1,4.9,8.48v32.34a9.81,9.81,0,0,1-4.9,8.48l-28,16.17A9.8,9.8,0,0,1,471.5,279.63Z" transform="translate(-352.2 -189.87)"/><path class="cls-2" d="M471.5,200.87a4.37,4.37,0,0,1,2.15.57l28,16.17a4.3,4.3,0,0,1,2.15,3.72v32.34a4.3,4.3,0,0,1-2.15,3.72l-28,16.17a4.34,4.34,0,0,1-4.3,0l-28-16.17a4.3,4.3,0,0,1-2.15-3.72V221.33a4.3,4.3,0,0,1,2.15-3.72l28-16.17a4.37,4.37,0,0,1,2.15-.57m0-11a15.27,15.27,0,0,0-7.65,2l-28,16.16a15.3,15.3,0,0,0-7.65,13.25v32.34a15.3,15.3,0,0,0,7.65,13.25l28,16.16a15.3,15.3,0,0,0,15.3,0l28-16.16a15.3,15.3,0,0,0,7.65-13.25V221.33a15.3,15.3,0,0,0-7.65-13.25l-28-16.16a15.27,15.27,0,0,0-7.65-2Z" transform="translate(-352.2 -189.87)"/><path class="cls-1" d="M395.5,410.63a9.8,9.8,0,0,1-4.9-1.31l-28-16.17a9.81,9.81,0,0,1-4.9-8.48V352.33a9.81,9.81,0,0,1,4.9-8.48l28-16.17a9.82,9.82,0,0,1,9.8,0l28,16.17a9.81,9.81,0,0,1,4.9,8.48v32.34a9.81,9.81,0,0,1-4.9,8.48l-28,16.17A9.8,9.8,0,0,1,395.5,410.63Z" transform="translate(-352.2 -189.87)"/><path class="cls-2" d="M395.5,331.87a4.37,4.37,0,0,1,2.15.57l28,16.17a4.3,4.3,0,0,1,2.15,3.72v32.34a4.3,4.3,0,0,1-2.15,3.72l-28,16.17a4.34,4.34,0,0,1-4.3,0l-28-16.17a4.3,4.3,0,0,1-2.15-3.72V352.33a4.3,4.3,0,0,1,2.15-3.72l28-16.17a4.37,4.37,0,0,1,2.15-.57m0-11a15.27,15.27,0,0,0-7.65,2.05l-28,16.16a15.3,15.3,0,0,0-7.65,13.25v32.34a15.3,15.3,0,0,0,7.65,13.25l28,16.16a15.3,15.3,0,0,0,15.3,0l28-16.16a15.3,15.3,0,0,0,7.65-13.25V352.33a15.3,15.3,0,0,0-7.65-13.25l-28-16.16a15.27,15.27,0,0,0-7.65-2.05Z" transform="translate(-352.2 -189.87)"/></svg>