<?xml version="1.0" encoding="utf-8"?>
<!-- Generator: Adobe Illustrator 23.0.1, SVG Export Plug-In . SVG Version: 6.00 Build 0)  -->
<svg version="1.1" id="Livello_1" xmlns="http://www.w3.org/2000/svg" xmlns:xlink="http://www.w3.org/1999/xlink" x="0px" y="0px"
	 viewBox="0 0 1855 189" style="enable-background:new 0 0 1855 189;" xml:space="preserve">
<style type="text/css">
	.st0{fill:#CC962B;}
</style>
<title>alveare3</title>
<rect x="-47" width="1943" height="127"/>
<rect x="-47" y="132" class="st0" width="1943" height="57"/>
<path d="M-15.7,88.3c-3.5,0-6.7-1.9-8.5-4.9l-16.2-28c-1.8-3-1.8-6.8,0-9.8l16.2-28c1.8-3,5-4.9,8.5-4.9h32.3c3.5,0,6.7,1.9,8.5,4.9
	l16.2,28c1.8,3,1.8,6.8,0,9.8l-16.2,28c-1.8,3-5,4.9-8.5,4.9H-15.7z"/>
<path d="M16.7,18.2c1.5,0,3,0.8,3.7,2.1l16.2,28c0.8,1.3,0.8,3,0,4.3l-16.2,28c-0.8,1.3-2.2,2.1-3.7,2.2h-32.3c-1.5,0-3-0.8-3.7-2.2
	l-16.2-28c-0.8-1.3-0.8-3,0-4.3l16.2-28c0.8-1.3,2.2-2.1,3.7-2.1L16.7,18.2 M16.7,7.2h-32.3c-5.5,0-10.5,2.9-13.3,7.6l-16.2,28
	c-2.7,4.7-2.7,10.6,0,15.3l16.2,28c2.7,4.7,7.8,7.6,13.3,7.7h32.3c5.5,0,10.5-2.9,13.3-7.7l16.2-28c2.7-4.7,2.7-10.6,0-15.3
	l-16.2-28C27.2,10.1,22.1,7.2,16.7,7.2z"/>
<path d="M50.3,126.3c-3.5,0-6.7-1.9-8.5-4.9l-16.2-28c-1.8-3-1.8-6.8,0-9.8l16.2-28c1.8-3,5-4.9,8.5-4.9h32.3c3.5,0,6.7,1.9,8.5,4.9
	l16.2,28c1.8,3,1.8,6.8,0,9.8l-16.2,28c-1.8,3-5,4.9-8.5,4.9H50.3z"/>
<path d="M82.7,56.2c1.5,0,3,0.8,3.7,2.2l16.2,28c0.8,1.3,0.8,3,0,4.3l-16.2,28c-0.8,1.3-2.2,2.1-3.7,2.2H50.3c-1.5,0-3-0.8-3.7-2.2
	l-16.2-28c-0.8-1.3-0.8-3,0-4.3l16.2-28c0.8-1.3,2.2-2.1,3.7-2.2L82.7,56.2 M82.7,45.2H50.3c-5.5,0-10.5,2.9-13.3,7.7l-16.2,28
	c-2.7,4.7-2.7,10.6,0,15.3l16.2,28c2.7,4.7,7.8,7.6,13.3,7.6h32.3c5.5,0,10.5-2.9,13.3-7.7l16.2-28c2.7-4.7,2.7-10.6,0-15.3
	l-16.2-28C93.2,48.1,88.1,45.2,82.7,45.2z"/>
<path d="M-15.7,164.3c-3.5,0-6.7-1.9-8.5-4.9l-16.2-28c-1.8-3-1.8-6.8,0-9.8l16.2-28c1.8-3,5-4.9,8.5-4.9h32.3
	c3.5,0,6.7,1.9,8.5,4.9l16.2,28c1.8,3,1.8,6.8,0,9.8l-16.2,28c-1.8,3-5,4.9-8.5,4.9H-15.7z"/>
<path d="M16.7,94.2c1.5,0,3,0.8,3.7,2.2l16.2,28c0.8,1.3,0.8,3,0,4.3l-16.2,28c-0.8,1.3-2.2,2.1-3.7,2.1h-32.3c-1.5,0-3-0.8-3.7-2.1
	l-16.2-28c-0.8-1.3-0.8-3,0-4.3l16.2-28c0.8-1.3,2.2-2.1,3.7-2.2L16.7,94.2 M16.7,83.2h-32.3c-5.5,0-10.5,2.9-13.3,7.7l-16.2,28
	c-2.7,4.7-2.7,10.6,0,15.3l16.2,28c2.7,4.7,7.8,7.6,13.3,7.6h32.3c5.5,0,10.5-2.9,13.3-7.6l16.2-28c2.7-4.7,2.7-10.6,0-15.3
	l-16.2-28C27.2,86.1,22.1,83.2,16.7,83.2z"/>
<path class="st0" d="M116.3,88.3c-3.5,0-6.7-1.9-8.5-4.9l-16.2-28c-1.8-3-1.8-6.8,0-9.8l16.2-28c1.8-3,5-4.9,8.5-4.9h32.3
	c3.5,0,6.7,1.9,8.5,4.9l16.2,28c1.8,3,1.8,6.8,0,9.8l-16.2,28c-1.8,3-5,4.9-8.5,4.9H116.3z"/>
<path d="M148.7,18.2c1.5,0,3,0.8,3.7,2.1l16.2,28c0.8,1.3,0.8,3,0,4.3l-16.2,28c-0.8,1.3-2.2,2.1-3.7,2.2h-32.3
	c-1.5,0-3-0.8-3.7-2.2l-16.2-28c-0.8-1.3-0.8-3,0-4.3l16.2-28c0.8-1.3,2.2-2.1,3.7-2.1L148.7,18.2 M148.7,7.2h-32.3
	c-5.5,0-10.5,2.9-13.3,7.6l-16.2,28c-2.7,4.7-2.7,10.6,0,15.3l16.2,28c2.7,4.7,7.8,7.6,13.3,7.7h32.3c5.5,0,10.5-2.9,13.3-7.7
	l16.2-28c2.7-4.7,2.7-10.6,0-15.3l-16.2-28C159.2,10.1,154.1,7.2,148.7,7.2z"/>
<path class="st0" d="M182.3,126.3c-3.5,0-6.7-1.9-8.5-4.9l-16.2-28c-1.8-3-1.8-6.8,0-9.8l16.2-28c1.8-3,5-4.9,8.5-4.9h32.3
	c3.5,0,6.7,1.9,8.5,4.9l16.2,28c1.8,3,1.8,6.8,0,9.8l-16.2,28c-1.8,3-5,4.9-8.5,4.9H182.3z"/>
<path d="M214.7,56.2c1.5,0,3,0.8,3.7,2.2l16.2,28c0.8,1.3,0.8,3,0,4.3l-16.2,28c-0.8,1.3-2.2,2.1-3.7,2.2h-32.3
	c-1.5,0-3-0.8-3.7-2.2l-16.2-28c-0.8-1.3-0.8-3,0-4.3l16.2-28c0.8-1.3,2.2-2.1,3.7-2.2L214.7,56.2 M214.7,45.2h-32.3
	c-5.5,0-10.5,2.9-13.3,7.7l-16.2,28c-2.7,4.7-2.7,10.6,0,15.3l16.2,28c2.7,4.7,7.8,7.6,13.3,7.6h32.3c5.5,0,10.5-2.9,13.3-7.7
	l16.2-28c2.7-4.7,2.7-10.6,0-15.3l-16.2-28C225.2,48.1,220.1,45.2,214.7,45.2z"/>
<path d="M116.3,164.3c-3.5,0-6.7-1.9-8.5-4.9l-16.2-28c-1.8-3-1.8-6.8,0-9.8l16.2-28c1.8-3,5-4.9,8.5-4.9h32.3
	c3.5,0,6.7,1.9,8.5,4.9l16.2,28c1.8,3,1.8,6.8,0,9.8l-16.2,28c-1.8,3-5,4.9-8.5,4.9H116.3z"/>
<path d="M148.7,94.2c1.5,0,3,0.8,3.7,2.2l16.2,28c0.8,1.3,0.8,3,0,4.3l-16.2,28c-0.8,1.3-2.2,2.1-3.7,2.1h-32.3
	c-1.5,0-3-0.8-3.7-2.1l-16.2-28c-0.8-1.3-0.8-3,0-4.3l16.2-28c0.8-1.3,2.2-2.1,3.7-2.2L148.7,94.2 M148.7,83.2h-32.3
	c-5.5,0-10.5,2.9-13.3,7.7l-16.2,28c-2.7,4.7-2.7,10.6,0,15.3l16.2,28c2.7,4.7,7.8,7.6,13.3,7.6h32.3c5.5,0,10.5-2.9,13.3-7.6
	l16.2-28c2.7-4.7,2.7-10.6,0-15.3l-16.2-28C159.2,86.1,154.1,83.2,148.7,83.2z"/>
<path d="M248.3,88.3c-3.5,0-6.7-1.9-8.5-4.9l-16.2-28c-1.8-3-1.8-6.8,0-9.8l16.2-28c1.8-3,5-4.9,8.5-4.9h32.3c3.5,0,6.7,1.9,8.5,4.9
	l16.2,28c1.8,3,1.8,6.8,0,9.8l-16.2,28c-1.8,3-5,4.9-8.5,4.9H248.3z"/>
<path d="M280.7,18.2c1.5,0,3,0.8,3.7,2.1l16.2,28c0.8,1.3,0.8,3,0,4.3l-16.2,28c-0.8,1.3-2.2,2.1-3.7,2.2h-32.3
	c-1.5,0-3-0.8-3.7-2.2l-16.2-28c-0.8-1.3-0.8-3,0-4.3l16.2-28c0.8-1.3,2.2-2.1,3.7-2.1L280.7,18.2 M280.7,7.2h-32.3
	c-5.5,0-10.5,2.9-13.3,7.6l-16.2,28c-2.7,4.7-2.7,10.6,0,15.3l16.2,28c2.7,4.7,7.8,7.6,13.3,7.7h32.3c5.5,0,10.5-2.9,13.3-7.7
	l16.2-28c2.7-4.7,2.7-10.6,0-15.3l-16.2-28C291.2,10.1,286.1,7.2,280.7,7.2z"/>
<path class="st0" d="M314.3,126.3c-3.5,0-6.7-1.9-8.5-4.9l-16.2-28c-1.8-3-1.8-6.8,0-9.8l16.2-28c1.8-3,5-4.9,8.5-4.9h32.3
	c3.5,0,6.7,1.9,8.5,4.9l16.2,28c1.8,3,1.8,6.8,0,9.8l-16.2,28c-1.8,3-5,4.9-8.5,4.9H314.3z"/>
<path d="M346.7,56.2c1.5,0,3,0.8,3.7,2.2l16.2,28c0.8,1.3,0.8,3,0,4.3l-16.2,28c-0.8,1.3-2.2,2.1-3.7,2.2h-32.3
	c-1.5,0-3-0.8-3.7-2.2l-16.2-28c-0.8-1.3-0.8-3,0-4.3l16.2-28c0.8-1.3,2.2-2.1,3.7-2.2L346.7,56.2 M346.7,45.2h-32.3
	c-5.5,0-10.5,2.9-13.3,7.7l-16.2,28c-2.7,4.7-2.7,10.6,0,15.3l16.2,28c2.7,4.7,7.8,7.6,13.3,7.6h32.3c5.5,0,10.5-2.9,13.3-7.7
	l16.2-28c2.7-4.7,2.7-10.6,0-15.3l-16.2-28C357.2,48.1,352.1,45.2,346.7,45.2z"/>
<path class="st0" d="M248.3,164.3c-3.5,0-6.7-1.9-8.5-4.9l-16.2-28c-1.8-3-1.8-6.8,0-9.8l16.2-28c1.8-3,5-4.9,8.5-4.9h32.3
	c3.5,0,6.7,1.9,8.5,4.9l16.2,28c1.8,3,1.8,6.8,0,9.8l-16.2,28c-1.8,3-5,4.9-8.5,4.9H248.3z"/>
<path d="M280.7,94.2c1.5,0,3,0.8,3.7,2.2l16.2,28c0.8,1.3,0.8,3,0,4.3l-16.2,28c-0.8,1.3-2.2,2.1-3.7,2.1h-32.3
	c-1.5,0-3-0.8-3.7-2.1l-16.2-28c-0.8-1.3-0.8-3,0-4.3l16.2-28c0.8-1.3,2.2-2.1,3.7-2.2L280.7,94.2 M280.7,83.2h-32.3
	c-5.5,0-10.5,2.9-13.3,7.7l-16.2,28c-2.7,4.7-2.7,10.6,0,15.3l16.2,28c2.7,4.7,7.8,7.6,13.3,7.6h32.3c5.5,0,10.5-2.9,13.3-7.6
	l16.2-28c2.7-4.7,2.7-10.6,0-15.3l-16.2-28C291.2,86.1,286.1,83.2,280.7,83.2z"/>
<path d="M380.3,88.3c-3.5,0-6.7-1.9-8.5-4.9l-16.2-28c-1.8-3-1.8-6.8,0-9.8l16.2-28c1.8-3,5-4.9,8.5-4.9h32.3c3.5,0,6.7,1.9,8.5,4.9
	l16.2,28c1.8,3,1.8,6.8,0,9.8l-16.2,28c-1.8,3-5,4.9-8.5,4.9H380.3z"/>
<path d="M412.7,18.2c1.5,0,3,0.8,3.7,2.1l16.2,28c0.8,1.3,0.8,3,0,4.3l-16.2,28c-0.8,1.3-2.2,2.1-3.7,2.2h-32.3
	c-1.5,0-3-0.8-3.7-2.2l-16.2-28c-0.8-1.3-0.8-3,0-4.3l16.2-28c0.8-1.3,2.2-2.1,3.7-2.1L412.7,18.2 M412.7,7.2h-32.3
	c-5.5,0-10.5,2.9-13.3,7.6l-16.2,28c-2.7,4.7-2.7,10.6,0,15.3l16.2,28c2.7,4.7,7.8,7.6,13.3,7.7h32.3c5.5,0,10.5-2.9,13.3-7.7
	l16.2-28c2.7-4.7,2.7-10.6,0-15.3l-16.2-28C423.2,10.1,418.1,7.2,412.7,7.2L412.7,7.2z"/>
<path class="st0" d="M446.3,126.3c-3.5,0-6.7-1.9-8.5-4.9l-16.2-28c-1.8-3-1.8-6.8,0-9.8l16.2-28c1.8-3,5-4.9,8.5-4.9h32.3
	c3.5,0,6.7,1.9,8.5,4.9l16.2,28c1.8,3,1.8,6.8,0,9.8l-16.2,28c-1.8,3-5,4.9-8.5,4.9H446.3z"/>
<path d="M478.7,56.2c1.5,0,3,0.8,3.7,2.2l16.2,28c0.8,1.3,0.8,3,0,4.3l-16.2,28c-0.8,1.3-2.2,2.1-3.7,2.2h-32.3
	c-1.5,0-3-0.8-3.7-2.2l-16.2-28c-0.8-1.3-0.8-3,0-4.3l16.2-28c0.8-1.3,2.2-2.1,3.7-2.2L478.7,56.2 M478.7,45.2h-32.3
	c-5.5,0-10.5,2.9-13.3,7.7l-16.2,28c-2.7,4.7-2.7,10.6,0,15.3l16.2,28c2.7,4.7,7.8,7.6,13.3,7.6h32.3c5.5,0,10.5-2.9,13.3-7.7
	l16.2-28c2.7-4.7,2.7-10.6,0-15.3l-16.2-28C489.2,48.1,484.1,45.2,478.7,45.2z"/>
<path class="st0" d="M380.3,164.3c-3.5,0-6.7-1.9-8.5-4.9l-16.2-28c-1.8-3-1.8-6.8,0-9.8l16.2-28c1.8-3,5-4.9,8.5-4.9h32.3
	c3.5,0,6.7,1.9,8.5,4.9l16.2,28c1.8,3,1.8,6.8,0,9.8l-16.2,28c-1.8,3-5,4.9-8.5,4.9H380.3z"/>
<path d="M412.7,94.2c1.5,0,3,0.8,3.7,2.2l16.2,28c0.8,1.3,0.8,3,0,4.3l-16.2,28c-0.8,1.3-2.2,2.1-3.7,2.1h-32.3
	c-1.5,0-3-0.8-3.7-2.1l-16.2-28c-0.8-1.3-0.8-3,0-4.3l16.2-28c0.8-1.3,2.2-2.1,3.7-2.2L412.7,94.2 M412.7,83.2h-32.3
	c-5.5,0-10.5,2.9-13.3,7.7l-16.2,28c-2.7,4.7-2.7,10.6,0,15.3l16.2,28c2.7,4.7,7.8,7.6,13.3,7.6h32.3c5.5,0,10.5-2.9,13.3-7.6
	l16.2-28c2.7-4.7,2.7-10.6,0-15.3l-16.2-28C423.2,86.1,418.1,83.2,412.7,83.2z"/>
<path d="M512.3,88.3c-3.5,0-6.7-1.9-8.5-4.9l-16.2-28c-1.8-3-1.8-6.8,0-9.8l16.2-28c1.8-3,5-4.9,8.5-4.9h32.3c3.5,0,6.7,1.9,8.5,4.9
	l16.2,28c1.8,3,1.8,6.8,0,9.8l-16.2,28c-1.8,3-5,4.9-8.5,4.9H512.3z"/>
<path d="M544.7,18.2c1.5,0,3,0.8,3.7,2.1l16.2,28c0.8,1.3,0.8,3,0,4.3l-16.2,28c-0.8,1.3-2.2,2.1-3.7,2.2h-32.3
	c-1.5,0-3-0.8-3.7-2.2l-16.2-28c-0.8-1.3-0.8-3,0-4.3l16.2-28c0.8-1.3,2.2-2.1,3.7-2.1L544.7,18.2 M544.7,7.2h-32.3
	c-5.5,0-10.5,2.9-13.3,7.6l-16.2,28c-2.7,4.7-2.7,10.6,0,15.3l16.2,28c2.7,4.7,7.8,7.6,13.3,7.7h32.3c5.5,0,10.5-2.9,13.3-7.7
	l16.2-28c2.7-4.7,2.7-10.6,0-15.3l-16.2-28C555.2,10.1,550.1,7.2,544.7,7.2L544.7,7.2z"/>
<path class="st0" d="M578.3,126.3c-3.5,0-6.7-1.9-8.5-4.9l-16.2-28c-1.8-3-1.8-6.8,0-9.8l16.2-28c1.8-3,5-4.9,8.5-4.9h32.3
	c3.5,0,6.7,1.9,8.5,4.9l16.2,28c1.8,3,1.8,6.8,0,9.8l-16.2,28c-1.8,3-5,4.9-8.5,4.9H578.3z"/>
<path d="M610.7,56.2c1.5,0,3,0.8,3.7,2.2l16.2,28c0.8,1.3,0.8,3,0,4.3l-16.2,28c-0.8,1.3-2.2,2.1-3.7,2.2h-32.3
	c-1.5,0-3-0.8-3.7-2.2l-16.2-28c-0.8-1.3-0.8-3,0-4.3l16.2-28c0.8-1.3,2.2-2.1,3.7-2.2L610.7,56.2 M610.7,45.2h-32.3
	c-5.5,0-10.5,2.9-13.3,7.7l-16.2,28c-2.7,4.7-2.7,10.6,0,15.3l16.2,28c2.7,4.7,7.8,7.6,13.3,7.6h32.3c5.5,0,10.5-2.9,13.3-7.7
	l16.2-28c2.7-4.7,2.7-10.6,0-15.3l-16.2-28C621.2,48.1,616.1,45.2,610.7,45.2z"/>
<path d="M512.3,164.3c-3.5,0-6.7-1.9-8.5-4.9l-16.2-28c-1.8-3-1.8-6.8,0-9.8l16.2-28c1.8-3,5-4.9,8.5-4.9h32.3
	c3.5,0,6.7,1.9,8.5,4.9l16.2,28c1.8,3,1.8,6.8,0,9.8l-16.2,28c-1.8,3-5,4.9-8.5,4.9H512.3z"/>
<path d="M544.7,94.2c1.5,0,3,0.8,3.7,2.2l16.2,28c0.8,1.3,0.8,3,0,4.3l-16.2,28c-0.8,1.3-2.2,2.1-3.7,2.1h-32.3
	c-1.5,0-3-0.8-3.7-2.1l-16.2-28c-0.8-1.3-0.8-3,0-4.3l16.2-28c0.8-1.3,2.2-2.1,3.7-2.2L544.7,94.2 M544.7,83.2h-32.3
	c-5.5,0-10.5,2.9-13.3,7.7l-16.2,28c-2.7,4.7-2.7,10.6,0,15.3l16.2,28c2.7,4.7,7.8,7.6,13.3,7.6h32.3c5.5,0,10.5-2.9,13.3-7.6
	l16.2-28c2.7-4.7,2.7-10.6,0-15.3l-16.2-28C555.2,86.1,550.1,83.2,544.7,83.2z"/>
<path d="M644.3,88.3c-3.5,0-6.7-1.9-8.5-4.9l-16.2-28c-1.8-3-1.8-6.8,0-9.8l16.2-28c1.8-3,5-4.9,8.5-4.9h32.3c3.5,0,6.7,1.9,8.5,4.9
	l16.2,28c1.8,3,1.8,6.8,0,9.8l-16.2,28c-1.8,3-5,4.9-8.5,4.9H644.3z"/>
<path d="M676.7,18.2c1.5,0,3,0.8,3.7,2.1l16.2,28c0.8,1.3,0.8,3,0,4.3l-16.2,28c-0.8,1.3-2.2,2.1-3.7,2.2h-32.3
	c-1.5,0-3-0.8-3.7-2.2l-16.2-28c-0.8-1.3-0.8-3,0-4.3l16.2-28c0.8-1.3,2.2-2.1,3.7-2.1L676.7,18.2 M676.7,7.2h-32.3
	c-5.5,0-10.5,2.9-13.3,7.6l-16.2,28c-2.7,4.7-2.7,10.6,0,15.3l16.2,28c2.7,4.7,7.8,7.6,13.3,7.7h32.3c5.5,0,10.5-2.9,13.3-7.7
	l16.2-28c2.7-4.7,2.7-10.6,0-15.3l-16.2-28C687.2,10.1,682.1,7.2,676.7,7.2L676.7,7.2z"/>
<path class="st0" d="M710.3,126.3c-3.5,0-6.7-1.9-8.5-4.9l-16.2-28c-1.8-3-1.8-6.8,0-9.8l16.2-28c1.8-3,5-4.9,8.5-4.9h32.3
	c3.5,0,6.7,1.9,8.5,4.9l16.2,28c1.8,3,1.8,6.8,0,9.8l-16.2,28c-1.8,3-5,4.9-8.5,4.9H710.3z"/>
<path d="M742.7,56.2c1.5,0,3,0.8,3.7,2.2l16.2,28c0.8,1.3,0.8,3,0,4.3l-16.2,28c-0.8,1.3-2.2,2.1-3.7,2.2h-32.3
	c-1.5,0-3-0.8-3.7-2.2l-16.2-28c-0.8-1.3-0.8-3,0-4.3l16.2-28c0.8-1.3,2.2-2.1,3.7-2.2L742.7,56.2 M742.7,45.2h-32.3
	c-5.5,0-10.5,2.9-13.3,7.7l-16.2,28c-2.7,4.7-2.7,10.6,0,15.3l16.2,28c2.7,4.7,7.8,7.6,13.3,7.6h32.3c5.5,0,10.5-2.9,13.3-7.7
	l16.2-28c2.7-4.7,2.7-10.6,0-15.3l-16.2-28C753.2,48.1,748.1,45.2,742.7,45.2z"/>
<path class="st0" d="M644.3,164.3c-3.5,0-6.7-1.9-8.5-4.9l-16.2-28c-1.8-3-1.8-6.8,0-9.8l16.2-28c1.8-3,5-4.9,8.5-4.9h32.3
	c3.5,0,6.7,1.9,8.5,4.9l16.2,28c1.8,3,1.8,6.8,0,9.8l-16.2,28c-1.8,3-5,4.9-8.5,4.9H644.3z"/>
<path d="M676.7,94.2c1.5,0,3,0.8,3.7,2.2l16.2,28c0.8,1.3,0.8,3,0,4.3l-16.2,28c-0.8,1.3-2.2,2.1-3.7,2.1h-32.3
	c-1.5,0-3-0.8-3.7-2.1l-16.2-28c-0.8-1.3-0.8-3,0-4.3l16.2-28c0.8-1.3,2.2-2.1,3.7-2.2L676.7,94.2 M676.7,83.2h-32.3
	c-5.5,0-10.5,2.9-13.3,7.7l-16.2,28c-2.7,4.7-2.7,10.6,0,15.3l16.2,28c2.7,4.7,7.8,7.6,13.3,7.6h32.3c5.5,0,10.5-2.9,13.3-7.6
	l16.2-28c2.7-4.7,2.7-10.6,0-15.3l-16.2-28C687.2,86.1,682.1,83.2,676.7,83.2z"/>
<path d="M776.3,88.3c-3.5,0-6.7-1.9-8.5-4.9l-16.2-28c-1.8-3-1.8-6.8,0-9.8l16.2-28c1.8-3,5-4.9,8.5-4.9h32.3c3.5,0,6.7,1.9,8.5,4.9
	l16.2,28c1.8,3,1.8,6.8,0,9.8l-16.2,28c-1.8,3-5,4.9-8.5,4.9H776.3z"/>
<path d="M808.7,18.2c1.5,0,3,0.8,3.7,2.1l16.2,28c0.8,1.3,0.8,3,0,4.3l-16.2,28c-0.8,1.3-2.2,2.1-3.7,2.2h-32.3
	c-1.5,0-3-0.8-3.7-2.2l-16.2-28c-0.8-1.3-0.8-3,0-4.3l16.2-28c0.8-1.3,2.2-2.1,3.7-2.1L808.7,18.2 M808.7,7.2h-32.3
	c-5.5,0-10.5,2.9-13.3,7.6l-16.2,28c-2.7,4.7-2.7,10.6,0,15.3l16.2,28c2.7,4.7,7.8,7.6,13.3,7.7h32.3c5.5,0,10.5-2.9,13.3-7.7
	l16.2-28c2.7-4.7,2.7-10.6,0-15.3l-16.2-28C819.2,10.1,814.1,7.2,808.7,7.2L808.7,7.2z"/>
<path class="st0" d="M842.3,126.3c-3.5,0-6.7-1.9-8.5-4.9l-16.2-28c-1.8-3-1.8-6.8,0-9.8l16.2-28c1.8-3,5-4.9,8.5-4.9h32.3
	c3.5,0,6.7,1.9,8.5,4.9l16.2,28c1.8,3,1.8,6.8,0,9.8l-16.2,28c-1.8,3-5,4.9-8.5,4.9H842.3z"/>
<path d="M874.7,56.2c1.5,0,3,0.8,3.7,2.2l16.2,28c0.8,1.3,0.8,3,0,4.3l-16.2,28c-0.8,1.3-2.2,2.1-3.7,2.2h-32.3
	c-1.5,0-3-0.8-3.7-2.2l-16.2-28c-0.8-1.3-0.8-3,0-4.3l16.2-28c0.8-1.3,2.2-2.1,3.7-2.2L874.7,56.2 M874.7,45.2h-32.3
	c-5.5,0-10.5,2.9-13.3,7.7l-16.2,28c-2.7,4.7-2.7,10.6,0,15.3l16.2,28c2.7,4.7,7.8,7.6,13.3,7.6h32.3c5.5,0,10.5-2.9,13.3-7.7
	l16.2-28c2.7-4.7,2.7-10.6,0-15.3l-16.2-28C885.2,48.1,880.1,45.2,874.7,45.2z"/>
<path class="st0" d="M776.3,164.3c-3.5,0-6.7-1.9-8.5-4.9l-16.2-28c-1.8-3-1.8-6.8,0-9.8l16.2-28c1.8-3,5-4.9,8.5-4.9h32.3
	c3.5,0,6.7,1.9,8.5,4.9l16.2,28c1.8,3,1.8,6.8,0,9.8l-16.2,28c-1.8,3-5,4.9-8.5,4.9H776.3z"/>
<path d="M808.7,94.2c1.5,0,3,0.8,3.7,2.2l16.2,28c0.8,1.3,0.8,3,0,4.3l-16.2,28c-0.8,1.3-2.2,2.1-3.7,2.1h-32.3
	c-1.5,0-3-0.8-3.7-2.1l-16.2-28c-0.8-1.3-0.8-3,0-4.3l16.2-28c0.8-1.3,2.2-2.1,3.7-2.2L808.7,94.2 M808.7,83.2h-32.3
	c-5.5,0-10.5,2.9-13.3,7.7l-16.2,28c-2.7,4.7-2.7,10.6,0,15.3l16.2,28c2.7,4.7,7.8,7.6,13.3,7.6h32.3c5.5,0,10.5-2.9,13.3-7.6
	l16.2-28c2.7-4.7,2.7-10.6,0-15.3l-16.2-28C819.2,86.1,814.1,83.2,808.7,83.2z"/>
<path class="st0" d="M908.3,88.3c-3.5,0-6.7-1.9-8.5-4.9l-16.2-28c-1.8-3-1.8-6.8,0-9.8l16.2-28c1.8-3,5-4.9,8.5-4.9h32.3
	c3.5,0,6.7,1.9,8.5,4.9l16.2,28c1.8,3,1.8,6.8,0,9.8l-16.2,28c-1.8,3-5,4.9-8.5,4.9H908.3z"/>
<path d="M940.7,18.2c1.5,0,3,0.8,3.7,2.1l16.2,28c0.8,1.3,0.8,3,0,4.3l-16.2,28c-0.8,1.3-2.2,2.1-3.7,2.2h-32.3
	c-1.5,0-3-0.8-3.7-2.2l-16.2-28c-0.8-1.3-0.8-3,0-4.3l16.2-28c0.8-1.3,2.2-2.1,3.7-2.1L940.7,18.2 M940.7,7.2h-32.3
	c-5.5,0-10.5,2.9-13.3,7.6l-16.2,28c-2.7,4.7-2.7,10.6,0,15.3l16.2,28c2.7,4.7,7.8,7.6,13.3,7.7h32.3c5.5,0,10.5-2.9,13.3-7.7
	l16.2-28c2.7-4.7,2.7-10.6,0-15.3l-16.2-28C951.2,10.1,946.1,7.2,940.7,7.2L940.7,7.2z"/>
<path d="M974.3,126.3c-3.5,0-6.7-1.9-8.5-4.9l-16.2-28c-1.8-3-1.8-6.8,0-9.8l16.2-28c1.8-3,5-4.9,8.5-4.9h32.3
	c3.5,0,6.7,1.9,8.5,4.9l16.2,28c1.8,3,1.8,6.8,0,9.8l-16.2,28c-1.8,3-5,4.9-8.5,4.9H974.3z"/>
<path d="M1006.7,56.2c1.5,0,3,0.8,3.7,2.2l16.2,28c0.8,1.3,0.8,3,0,4.3l-16.2,28c-0.8,1.3-2.2,2.1-3.7,2.2h-32.3
	c-1.5,0-3-0.8-3.7-2.2l-16.2-28c-0.8-1.3-0.8-3,0-4.3l16.2-28c0.8-1.3,2.2-2.1,3.7-2.2L1006.7,56.2 M1006.7,45.2h-32.3
	c-5.5,0-10.5,2.9-13.3,7.7l-16.2,28c-2.7,4.7-2.7,10.6,0,15.3l16.2,28c2.7,4.7,7.8,7.6,13.3,7.6h32.3c5.5,0,10.5-2.9,13.3-7.7
	l16.2-28c2.7-4.7,2.7-10.6,0-15.3l-16.2-28C1017.2,48.1,1012.1,45.2,1006.7,45.2L1006.7,45.2z"/>
<path d="M908.3,164.3c-3.5,0-6.7-1.9-8.5-4.9l-16.2-28c-1.8-3-1.8-6.8,0-9.8l16.2-28c1.8-3,5-4.9,8.5-4.9h32.3
	c3.5,0,6.7,1.9,8.5,4.9l16.2,28c1.8,3,1.8,6.8,0,9.8l-16.2,28c-1.8,3-5,4.9-8.5,4.9H908.3z"/>
<path d="M940.7,94.2c1.5,0,3,0.8,3.7,2.2l16.2,28c0.8,1.3,0.8,3,0,4.3l-16.2,28c-0.8,1.3-2.2,2.1-3.7,2.1h-32.3
	c-1.5,0-3-0.8-3.7-2.1l-16.2-28c-0.8-1.3-0.8-3,0-4.3l16.2-28c0.8-1.3,2.2-2.1,3.7-2.2L940.7,94.2 M940.7,83.2h-32.3
	c-5.5,0-10.5,2.9-13.3,7.7l-16.2,28c-2.7,4.7-2.7,10.6,0,15.3l16.2,28c2.7,4.7,7.8,7.6,13.3,7.6h32.3c5.5,0,10.5-2.9,13.3-7.6
	l16.2-28c2.7-4.7,2.7-10.6,0-15.3l-16.2-28C951.2,86.1,946.1,83.2,940.7,83.2z"/>
<path class="st0" d="M1040.3,88.3c-3.5,0-6.7-1.9-8.5-4.9l-16.2-28c-1.8-3-1.8-6.8,0-9.8l16.2-28c1.8-3,5-4.9,8.5-4.9h32.3
	c3.5,0,6.7,1.9,8.5,4.9l16.2,28c1.8,3,1.8,6.8,0,9.8l-16.2,28c-1.8,3-5,4.9-8.5,4.9H1040.3z"/>
<path d="M1072.7,18.2c1.5,0,3,0.8,3.7,2.1l16.2,28c0.8,1.3,0.8,3,0,4.3l-16.2,28c-0.8,1.3-2.2,2.1-3.7,2.2h-32.3
	c-1.5,0-3-0.8-3.7-2.2l-16.2-28c-0.8-1.3-0.8-3,0-4.3l16.2-28c0.8-1.3,2.2-2.1,3.7-2.1L1072.7,18.2 M1072.7,7.2h-32.3
	c-5.5,0-10.5,2.9-13.3,7.6l-16.2,28c-2.7,4.7-2.7,10.6,0,15.3l16.2,28c2.7,4.7,7.8,7.6,13.3,7.7h32.3c5.5,0,10.5-2.9,13.3-7.7
	l16.2-28c2.7-4.7,2.7-10.6,0-15.3l-16.2-28C1083.2,10.1,1078.1,7.2,1072.7,7.2z"/>
<path d="M1106.3,126.3c-3.5,0-6.7-1.9-8.5-4.9l-16.2-28c-1.8-3-1.8-6.8,0-9.8l16.2-28c1.8-3,5-4.9,8.5-4.9h32.3
	c3.5,0,6.7,1.9,8.5,4.9l16.2,28c1.8,3,1.8,6.8,0,9.8l-16.2,28c-1.8,3-5,4.9-8.5,4.9H1106.3z"/>
<path d="M1138.7,56.2c1.5,0,3,0.8,3.7,2.2l16.2,28c0.8,1.3,0.8,3,0,4.3l-16.2,28c-0.8,1.3-2.2,2.1-3.7,2.2h-32.3
	c-1.5,0-3-0.8-3.7-2.2l-16.2-28c-0.8-1.3-0.8-3,0-4.3l16.2-28c0.8-1.3,2.2-2.1,3.7-2.2L1138.7,56.2 M1138.7,45.2h-32.3
	c-5.5,0-10.5,2.9-13.3,7.7l-16.2,28c-2.7,4.7-2.7,10.6,0,15.3l16.2,28c2.7,4.7,7.8,7.6,13.3,7.6h32.3c5.5,0,10.5-2.9,13.3-7.7
	l16.2-28c2.7-4.7,2.7-10.6,0-15.3l-16.2-28C1149.2,48.1,1144.1,45.2,1138.7,45.2z"/>
<path class="st0" d="M1040.3,164.3c-3.5,0-6.7-1.9-8.5-4.9l-16.2-28c-1.8-3-1.8-6.8,0-9.8l16.2-28c1.8-3,5-4.9,8.5-4.9h32.3
	c3.5,0,6.7,1.9,8.5,4.9l16.2,28c1.8,3,1.8,6.8,0,9.8l-16.2,28c-1.8,3-5,4.9-8.5,4.9H1040.3z"/>
<path d="M1072.7,94.2c1.5,0,3,0.8,3.7,2.2l16.2,28c0.8,1.3,0.8,3,0,4.3l-16.2,28c-0.8,1.3-2.2,2.1-3.7,2.1h-32.3
	c-1.5,0-3-0.8-3.7-2.1l-16.2-28c-0.8-1.3-0.8-3,0-4.3l16.2-28c0.8-1.3,2.2-2.1,3.7-2.2L1072.7,94.2 M1072.7,83.2h-32.3
	c-5.5,0-10.5,2.9-13.3,7.7l-16.2,28c-2.7,4.7-2.7,10.6,0,15.3l16.2,28c2.7,4.7,7.8,7.6,13.3,7.6h32.3c5.5,0,10.5-2.9,13.3-7.6
	l16.2-28c2.7-4.7,2.7-10.6,0-15.3l-16.2-28C1083.2,86.1,1078.1,83.2,1072.7,83.2z"/>
<path class="st0" d="M1172.3,88.3c-3.5,0-6.7-1.9-8.5-4.9l-16.2-28c-1.8-3-1.8-6.8,0-9.8l16.2-28c1.8-3,5-4.9,8.5-4.9h32.3
	c3.5,0,6.7,1.9,8.5,4.9l16.2,28c1.8,3,1.8,6.8,0,9.8l-16.2,28c-1.8,3-5,4.9-8.5,4.9H1172.3z"/>
<path d="M1204.7,18.2c1.5,0,3,0.8,3.7,2.1l16.2,28c0.8,1.3,0.8,3,0,4.3l-16.2,28c-0.8,1.3-2.2,2.1-3.7,2.2h-32.3
	c-1.5,0-3-0.8-3.7-2.2l-16.2-28c-0.8-1.3-0.8-3,0-4.3l16.2-28c0.8-1.3,2.2-2.1,3.7-2.1L1204.7,18.2 M1204.7,7.2h-32.3
	c-5.5,0-10.5,2.9-13.3,7.6l-16.2,28c-2.7,4.7-2.7,10.6,0,15.3l16.2,28c2.7,4.7,7.8,7.6,13.3,7.7h32.3c5.5,0,10.5-2.9,13.3-7.7
	l16.2-28c2.7-4.7,2.7-10.6,0-15.3l-16.2-28C1215.2,10.1,1210.1,7.2,1204.7,7.2z"/>
<path d="M1238.3,126.3c-3.5,0-6.7-1.9-8.5-4.9l-16.2-28c-1.8-3-1.8-6.8,0-9.8l16.2-28c1.8-3,5-4.9,8.5-4.9h32.3
	c3.5,0,6.7,1.9,8.5,4.9l16.2,28c1.8,3,1.8,6.8,0,9.8l-16.2,28c-1.8,3-5,4.9-8.5,4.9H1238.3z"/>
<path d="M1270.7,56.2c1.5,0,3,0.8,3.7,2.2l16.2,28c0.8,1.3,0.8,3,0,4.3l-16.2,28c-0.8,1.3-2.2,2.1-3.7,2.2h-32.3
	c-1.5,0-3-0.8-3.7-2.2l-16.2-28c-0.8-1.3-0.8-3,0-4.3l16.2-28c0.8-1.3,2.2-2.1,3.7-2.2L1270.7,56.2 M1270.7,45.2h-32.3
	c-5.5,0-10.5,2.9-13.3,7.7l-16.2,28c-2.7,4.7-2.7,10.6,0,15.3l16.2,28c2.7,4.7,7.8,7.6,13.3,7.6h32.3c5.5,0,10.5-2.9,13.3-7.7
	l16.2-28c2.7-4.7,2.7-10.6,0-15.3l-16.2-28C1281.2,48.1,1276.1,45.2,1270.7,45.2z"/>
<path class="st0" d="M1172.3,164.3c-3.5,0-6.7-1.9-8.5-4.9l-16.2-28c-1.8-3-1.8-6.8,0-9.8l16.2-28c1.8-3,5-4.9,8.5-4.9h32.3
	c3.5,0,6.7,1.9,8.5,4.9l16.2,28c1.8,3,1.8,6.8,0,9.8l-16.2,28c-1.8,3-5,4.9-8.5,4.9H1172.3z"/>
<path d="M1204.7,94.2c1.5,0,3,0.8,3.7,2.2l16.2,28c0.8,1.3,0.8,3,0,4.3l-16.2,28c-0.8,1.3-2.2,2.1-3.7,2.1h-32.3
	c-1.5,0-3-0.8-3.7-2.1l-16.2-28c-0.8-1.3-0.8-3,0-4.3l16.2-28c0.8-1.3,2.2-2.1,3.7-2.2L1204.7,94.2 M1204.7,83.2h-32.3
	c-5.5,0-10.5,2.9-13.3,7.7l-16.2,28c-2.7,4.7-2.7,10.6,0,15.3l16.2,28c2.7,4.7,7.8,7.6,13.3,7.6h32.3c5.5,0,10.5-2.9,13.3-7.6
	l16.2-28c2.7-4.7,2.7-10.6,0-15.3l-16.2-28C1215.2,86.1,1210.1,83.2,1204.7,83.2z"/>
<path d="M1304.3,88.3c-3.5,0-6.7-1.9-8.5-4.9l-16.2-28c-1.8-3-1.8-6.8,0-9.8l16.2-28c1.8-3,5-4.9,8.5-4.9h32.3
	c3.5,0,6.7,1.9,8.5,4.9l16.2,28c1.8,3,1.8,6.8,0,9.8l-16.2,28c-1.8,3-5,4.9-8.5,4.9H1304.3z"/>
<path d="M1336.7,18.2c1.5,0,3,0.8,3.7,2.1l16.2,28c0.8,1.3,0.8,3,0,4.3l-16.2,28c-0.8,1.3-2.2,2.1-3.7,2.2h-32.3
	c-1.5,0-3-0.8-3.7-2.2l-16.2-28c-0.8-1.3-0.8-3,0-4.3l16.2-28c0.8-1.3,2.2-2.1,3.7-2.1L1336.7,18.2 M1336.7,7.2h-32.3
	c-5.5,0-10.5,2.9-13.3,7.6l-16.2,28c-2.7,4.7-2.7,10.6,0,15.3l16.2,28c2.7,4.7,7.8,7.6,13.3,7.7h32.3c5.5,0,10.5-2.9,13.3-7.7
	l16.2-28c2.7-4.7,2.7-10.6,0-15.3l-16.2-28C1347.2,10.1,1342.1,7.2,1336.7,7.2z"/>
<path d="M1370.3,126.3c-3.5,0-6.7-1.9-8.5-4.9l-16.2-28c-1.8-3-1.8-6.8,0-9.8l16.2-28c1.8-3,5-4.9,8.5-4.9h32.3
	c3.5,0,6.7,1.9,8.5,4.9l16.2,28c1.8,3,1.8,6.8,0,9.8l-16.2,28c-1.8,3-5,4.9-8.5,4.9H1370.3z"/>
<path d="M1402.7,56.2c1.5,0,3,0.8,3.7,2.2l16.2,28c0.8,1.3,0.8,3,0,4.3l-16.2,28c-0.8,1.3-2.2,2.1-3.7,2.2h-32.3
	c-1.5,0-3-0.8-3.7-2.2l-16.2-28c-0.8-1.3-0.8-3,0-4.3l16.2-28c0.8-1.3,2.2-2.1,3.7-2.2L1402.7,56.2 M1402.7,45.2h-32.3
	c-5.5,0-10.5,2.9-13.3,7.7l-16.2,28c-2.7,4.7-2.7,10.6,0,15.3l16.2,28c2.7,4.7,7.8,7.6,13.3,7.6h32.3c5.5,0,10.5-2.9,13.3-7.7
	l16.2-28c2.7-4.7,2.7-10.6,0-15.3l-16.2-28C1413.2,48.1,1408.1,45.2,1402.7,45.2z"/>
<path class="st0" d="M1304.3,164.3c-3.5,0-6.7-1.9-8.5-4.9l-16.2-28c-1.8-3-1.8-6.8,0-9.8l16.2-28c1.8-3,5-4.9,8.5-4.9h32.3
	c3.5,0,6.7,1.9,8.5,4.9l16.2,28c1.8,3,1.8,6.8,0,9.8l-16.2,28c-1.8,3-5,4.9-8.5,4.9H1304.3z"/>
<path d="M1336.7,94.2c1.5,0,3,0.8,3.7,2.2l16.2,28c0.8,1.3,0.8,3,0,4.3l-16.2,28c-0.8,1.3-2.2,2.1-3.7,2.1h-32.3
	c-1.5,0-3-0.8-3.7-2.1l-16.2-28c-0.8-1.3-0.8-3,0-4.3l16.2-28c0.8-1.3,2.2-2.1,3.7-2.2L1336.7,94.2 M1336.7,83.2h-32.3
	c-5.5,0-10.5,2.9-13.3,7.7l-16.2,28c-2.7,4.7-2.7,10.6,0,15.3l16.2,28c2.7,4.7,7.8,7.6,13.3,7.6h32.3c5.5,0,10.5-2.9,13.3-7.6
	l16.2-28c2.7-4.7,2.7-10.6,0-15.3l-16.2-28C1347.2,86.1,1342.1,83.2,1336.7,83.2z"/>
<path class="st0" d="M1436.3,88.3c-3.5,0-6.7-1.9-8.5-4.9l-16.2-28c-1.8-3-1.8-6.8,0-9.8l16.2-28c1.8-3,5-4.9,8.5-4.9h32.3
	c3.5,0,6.7,1.9,8.5,4.9l16.2,28c1.8,3,1.8,6.8,0,9.8l-16.2,28c-1.8,3-5,4.9-8.5,4.9H1436.3z"/>
<path d="M1468.7,18.2c1.5,0,3,0.8,3.7,2.1l16.2,28c0.8,1.3,0.8,3,0,4.3l-16.2,28c-0.8,1.3-2.2,2.1-3.7,2.2h-32.3
	c-1.5,0-3-0.8-3.7-2.2l-16.2-28c-0.8-1.3-0.8-3,0-4.3l16.2-28c0.8-1.3,2.2-2.1,3.7-2.1L1468.7,18.2 M1468.7,7.2h-32.3
	c-5.5,0-10.5,2.9-13.3,7.6l-16.2,28c-2.7,4.7-2.7,10.6,0,15.3l16.2,28c2.7,4.7,7.8,7.6,13.3,7.7h32.3c5.5,0,10.5-2.9,13.3-7.7
	l16.2-28c2.7-4.7,2.7-10.6,0-15.3l-16.2-28C1479.2,10.1,1474.1,7.2,1468.7,7.2z"/>
<path d="M1502.3,126.3c-3.5,0-6.7-1.9-8.5-4.9l-16.2-28c-1.8-3-1.8-6.8,0-9.8l16.2-28c1.8-3,5-4.9,8.5-4.9h32.3
	c3.5,0,6.7,1.9,8.5,4.9l16.2,28c1.8,3,1.8,6.8,0,9.8l-16.2,28c-1.8,3-5,4.9-8.5,4.9H1502.3z"/>
<path d="M1534.7,56.2c1.5,0,3,0.8,3.7,2.2l16.2,28c0.8,1.3,0.8,3,0,4.3l-16.2,28c-0.8,1.3-2.2,2.1-3.7,2.2h-32.3
	c-1.5,0-3-0.8-3.7-2.2l-16.2-28c-0.8-1.3-0.8-3,0-4.3l16.2-28c0.8-1.3,2.2-2.1,3.7-2.2L1534.7,56.2 M1534.7,45.2h-32.3
	c-5.5,0-10.5,2.9-13.3,7.7l-16.2,28c-2.7,4.7-2.7,10.6,0,15.3l16.2,28c2.7,4.7,7.8,7.6,13.3,7.6h32.3c5.5,0,10.5-2.9,13.3-7.7
	l16.2-28c2.7-4.7,2.7-10.6,0-15.3l-16.2-28C1545.2,48.1,1540.1,45.2,1534.7,45.2z"/>
<path class="st0" d="M1436.3,164.3c-3.5,0-6.7-1.9-8.5-4.9l-16.2-28c-1.8-3-1.8-6.8,0-9.8l16.2-28c1.8-3,5-4.9,8.5-4.9h32.3
	c3.5,0,6.7,1.9,8.5,4.9l16.2,28c1.8,3,1.8,6.8,0,9.8l-16.2,28c-1.8,3-5,4.9-8.5,4.9H1436.3z"/>
<path d="M1468.7,94.2c1.5,0,3,0.8,3.7,2.2l16.2,28c0.8,1.3,0.8,3,0,4.3l-16.2,28c-0.8,1.3-2.2,2.1-3.7,2.1h-32.3
	c-1.5,0-3-0.8-3.7-2.1l-16.2-28c-0.8-1.3-0.8-3,0-4.3l16.2-28c0.8-1.3,2.2-2.1,3.7-2.2L1468.7,94.2 M1468.7,83.2h-32.3
	c-5.5,0-10.5,2.9-13.3,7.7l-16.2,28c-2.7,4.7-2.7,10.6,0,15.3l16.2,28c2.7,4.7,7.8,7.6,13.3,7.6h32.3c5.5,0,10.5-2.9,13.3-7.6
	l16.2-28c2.7-4.7,2.7-10.6,0-15.3l-16.2-28C1479.2,86.1,1474.1,83.2,1468.7,83.2z"/>
<path class="st0" d="M1568.3,88.3c-3.5,0-6.7-1.9-8.5-4.9l-16.2-28c-1.8-3-1.8-6.8,0-9.8l16.2-28c1.8-3,5-4.9,8.5-4.9h32.3
	c3.5,0,6.7,1.9,8.5,4.9l16.2,28c1.8,3,1.8,6.8,0,9.8l-16.2,28c-1.8,3-5,4.9-8.5,4.9H1568.3z"/>
<path d="M1600.7,18.2c1.5,0,3,0.8,3.7,2.1l16.2,28c0.8,1.3,0.8,3,0,4.3l-16.2,28c-0.8,1.3-2.2,2.1-3.7,2.2h-32.3
	c-1.5,0-3-0.8-3.7-2.2l-16.2-28c-0.8-1.3-0.8-3,0-4.3l16.2-28c0.8-1.3,2.2-2.1,3.7-2.1L1600.7,18.2 M1600.7,7.2h-32.3
	c-5.5,0-10.5,2.9-13.3,7.6l-16.2,28c-2.7,4.7-2.7,10.6,0,15.3l16.2,28c2.7,4.7,7.8,7.6,13.3,7.7h32.3c5.5,0,10.5-2.9,13.3-7.7
	l16.2-28c2.7-4.7,2.7-10.6,0-15.3l-16.2-28C1611.2,10.1,1606.1,7.2,1600.7,7.2z"/>
<path class="st0" d="M1634.3,126.3c-3.5,0-6.7-1.9-8.5-4.9l-16.2-28c-1.8-3-1.8-6.8,0-9.8l16.2-28c1.8-3,5-4.9,8.5-4.9h32.3
	c3.5,0,6.7,1.9,8.5,4.9l16.2,28c1.8,3,1.8,6.8,0,9.8l-16.2,28c-1.8,3-5,4.9-8.5,4.9H1634.3z"/>
<path d="M1666.7,56.2c1.5,0,3,0.8,3.7,2.2l16.2,28c0.8,1.3,0.8,3,0,4.3l-16.2,28c-0.8,1.3-2.2,2.1-3.7,2.2h-32.3
	c-1.5,0-3-0.8-3.7-2.2l-16.2-28c-0.8-1.3-0.8-3,0-4.3l16.2-28c0.8-1.3,2.2-2.1,3.7-2.2L1666.7,56.2 M1666.7,45.2h-32.3
	c-5.5,0-10.5,2.9-13.3,7.7l-16.2,28c-2.7,4.7-2.7,10.6,0,15.3l16.2,28c2.7,4.7,7.8,7.6,13.3,7.6h32.3c5.5,0,10.5-2.9,13.3-7.7
	l16.2-28c2.7-4.7,2.7-10.6,0-15.3l-16.2-28C1677.2,48.1,1672.1,45.2,1666.7,45.2z"/>
<path d="M1568.3,164.3c-3.5,0-6.7-1.9-8.5-4.9l-16.2-28c-1.8-3-1.8-6.8,0-9.8l16.2-28c1.8-3,5-4.9,8.5-4.9h32.3
	c3.5,0,6.7,1.9,8.5,4.9l16.2,28c1.8,3,1.8,6.8,0,9.8l-16.2,28c-1.8,3-5,4.9-8.5,4.9H1568.3z"/>
<path d="M1600.7,94.2c1.5,0,3,0.8,3.7,2.2l16.2,28c0.8,1.3,0.8,3,0,4.3l-16.2,28c-0.8,1.3-2.2,2.1-3.7,2.1h-32.3
	c-1.5,0-3-0.8-3.7-2.1l-16.2-28c-0.8-1.3-0.8-3,0-4.3l16.2-28c0.8-1.3,2.2-2.1,3.7-2.2L1600.7,94.2 M1600.7,83.2h-32.3
	c-5.5,0-10.5,2.9-13.3,7.7l-16.2,28c-2.7,4.7-2.7,10.6,0,15.3l16.2,28c2.7,4.7,7.8,7.6,13.3,7.6h32.3c5.5,0,10.5-2.9,13.3-7.6
	l16.2-28c2.7-4.7,2.7-10.6,0-15.3l-16.2-28C1611.2,86.1,1606.1,83.2,1600.7,83.2z"/>
<path d="M1700.3,88.3c-3.5,0-6.7-1.9-8.5-4.9l-16.2-28c-1.8-3-1.8-6.8,0-9.8l16.2-28c1.8-3,5-4.9,8.5-4.9h32.3
	c3.5,0,6.7,1.9,8.5,4.9l16.2,28c1.8,3,1.8,6.8,0,9.8l-16.2,28c-1.8,3-5,4.9-8.5,4.9H1700.3z"/>
<path d="M1732.7,18.2c1.5,0,3,0.8,3.7,2.1l16.2,28c0.8,1.3,0.8,3,0,4.3l-16.2,28c-0.8,1.3-2.2,2.1-3.7,2.2h-32.3
	c-1.5,0-3-0.8-3.7-2.2l-16.2-28c-0.8-1.3-0.8-3,0-4.3l16.2-28c0.8-1.3,2.2-2.1,3.7-2.1L1732.7,18.2 M1732.7,7.2h-32.3
	c-5.5,0-10.5,2.9-13.3,7.6l-16.2,28c-2.7,4.7-2.7,10.6,0,15.3l16.2,28c2.7,4.7,7.8,7.6,13.3,7.7h32.3c5.5,0,10.5-2.9,13.3-7.7
	l16.2-28c2.7-4.7,2.7-10.6,0-15.3l-16.2-28C1743.2,10.1,1738.1,7.2,1732.7,7.2z"/>
<path d="M1766.3,126.3c-3.5,0-6.7-1.9-8.5-4.9l-16.2-28c-1.8-3-1.8-6.8,0-9.8l16.2-28c1.8-3,5-4.9,8.5-4.9h32.3
	c3.5,0,6.7,1.9,8.5,4.9l16.2,28c1.8,3,1.8,6.8,0,9.8l-16.2,28c-1.8,3-5,4.9-8.5,4.9H1766.3z"/>
<path d="M1798.7,56.2c1.5,0,3,0.8,3.7,2.2l16.2,28c0.8,1.3,0.8,3,0,4.3l-16.2,28c-0.8,1.3-2.2,2.1-3.7,2.2h-32.3
	c-1.5,0-3-0.8-3.7-2.2l-16.2-28c-0.8-1.3-0.8-3,0-4.3l16.2-28c0.8-1.3,2.2-2.1,3.7-2.2L1798.7,56.2 M1798.7,45.2h-32.3
	c-5.5,0-10.5,2.9-13.3,7.7l-16.2,28c-2.7,4.7-2.7,10.6,0,15.3l16.2,28c2.7,4.7,7.8,7.6,13.3,7.6h32.3c5.5,0,10.5-2.9,13.3-7.7
	l16.2-28c2.7-4.7,2.7-10.6,0-15.3l-16.2-28C1809.2,48.1,1804.1,45.2,1798.7,45.2z"/>
<path class="st0" d="M1700.3,164.3c-3.5,0-6.7-1.9-8.5-4.9l-16.2-28c-1.8-3-1.8-6.8,0-9.8l16.2-28c1.8-3,5-4.9,8.5-4.9h32.3
	c3.5,0,6.7,1.9,8.5,4.9l16.2,28c1.8,3,1.8,6.8,0,9.8l-16.2,28c-1.8,3-5,4.9-8.5,4.9H1700.3z"/>
<path d="M1732.7,94.2c1.5,0,3,0.8,3.7,2.2l16.2,28c0.8,1.3,0.8,3,0,4.3l-16.2,28c-0.8,1.3-2.2,2.1-3.7,2.1h-32.3
	c-1.5,0-3-0.8-3.7-2.1l-16.2-28c-0.8-1.3-0.8-3,0-4.3l16.2-28c0.8-1.3,2.2-2.1,3.7-2.2L1732.7,94.2 M1732.7,83.2h-32.3
	c-5.5,0-10.5,2.9-13.3,7.7l-16.2,28c-2.7,4.7-2.7,10.6,0,15.3l16.2,28c2.7,4.7,7.8,7.6,13.3,7.6h32.3c5.5,0,10.5-2.9,13.3-7.6
	l16.2-28c2.7-4.7,2.7-10.6,0-15.3l-16.2-28C1743.2,86.1,1738.1,83.2,1732.7,83.2z"/>
<path d="M1832.3,88.3c-3.5,0-6.7-1.9-8.5-4.9l-16.2-28c-1.8-3-1.8-6.8,0-9.8l16.2-28c1.8-3,5-4.9,8.5-4.9h32.3
	c3.5,0,6.7,1.9,8.5,4.9l16.2,28c1.8,3,1.8,6.8,0,9.8l-16.2,28c-1.8,3-5,4.9-8.5,4.9H1832.3z"/>
<path d="M1864.7,18.2c1.5,0,3,0.8,3.7,2.1l16.2,28c0.8,1.3,0.8,3,0,4.3l-16.2,28c-0.8,1.3-2.2,2.1-3.7,2.2h-32.3
	c-1.5,0-3-0.8-3.7-2.2l-16.2-28c-0.8-1.3-0.8-3,0-4.3l16.2-28c0.8-1.3,2.2-2.1,3.7-2.1L1864.7,18.2 M1864.7,7.2h-32.3
	c-5.5,0-10.5,2.9-13.3,7.6l-16.2,28c-2.7,4.7-2.7,10.6,0,15.3l16.2,28c2.7,4.7,7.8,7.6,13.3,7.7h32.3c5.5,0,10.5-2.9,13.3-7.7
	l16.2-28c2.7-4.7,2.7-10.6,0-15.3l-16.2-28C1875.2,10.1,1870.1,7.2,1864.7,7.2z"/>
<path d="M1832.3,164.3c-3.5,0-6.7-1.9-8.5-4.9l-16.2-28c-1.8-3-1.8-6.8,0-9.8l16.2-28c1.8-3,5-4.9,8.5-4.9h32.3
	c3.5,0,6.7,1.9,8.5,4.9l16.2,28c1.8,3,1.8,6.8,0,9.8l-16.2,28c-1.8,3-5,4.9-8.5,4.9H1832.3z"/>
<path d="M1864.7,94.2c1.5,0,3,0.8,3.7,2.2l16.2,28c0.8,1.3,0.8,3,0,4.3l-16.2,28c-0.8,1.3-2.2,2.1-3.7,2.1h-32.3
	c-1.5,0-3-0.8-3.7-2.1l-16.2-28c-0.8-1.3-0.8-3,0-4.3l16.2-28c0.8-1.3,2.2-2.1,3.7-2.2L1864.7,94.2 M1864.7,83.2h-32.3
	c-5.5,0-10.5,2.9-13.3,7.7l-16.2,28c-2.7,4.7-2.7,10.6,0,15.3l16.2,28c2.7,4.7,7.8,7.6,13.3,7.6h32.3c5.5,0,10.5-2.9,13.3-7.6
	l16.2-28c2.7-4.7,2.7-10.6,0-15.3l-16.2-28C1875.2,86.1,1870.1,83.2,1864.7,83.2z"/>
</svg>
