<svg id="Livello_1" data-name="Livello 1" xmlns="http://www.w3.org/2000/svg" viewBox="0 0 98.71 112.3"><defs><style>.cls-1{fill:#c7962c;}.cls-2{fill:#614915;}.cls-3{fill:#a37b24;}.cls-4,.cls-5{fill:none;stroke:#a37b24;stroke-miterlimit:10;}.cls-4{stroke-width:1.18px;}.cls-5{stroke-width:0.71px;}</style></defs><title>api</title><g id="api"><ellipse class="cls-1" cx="223.65" cy="385.07" rx="20.2" ry="12.4" transform="translate(-358.1 83.65) rotate(-65.92)"/><ellipse class="cls-1" cx="211.27" cy="385.08" rx="21.8" ry="12.3" transform="translate(-345.19 172.95) rotate(-79.34)"/><path class="cls-2" d="M189.9,400.6s1.1,10.8,11.7,13.9a41.32,41.32,0,0,1,17.5,10.8c14.4-12.9,14.9-37.7-4.3-44.9Z" transform="translate(-138.95 -348.5)"/><path class="cls-3" d="M221.2,384c-5.6,13.1-16,20.5-27.1,25.9-.1.2,4,4.3,8.2,4.9a27.8,27.8,0,0,1,5.6,2.4c8.3-4.7,16.4-14.1,20.7-21.7A20.65,20.65,0,0,0,221.2,384Z" transform="translate(-138.95 -348.5)"/><path class="cls-3" d="M219.1,425.3a19.77,19.77,0,0,0,5.7-6.8,28.54,28.54,0,0,1-7.5,4.9Z" transform="translate(-138.95 -348.5)"/><path class="cls-4" d="M175.5,368.5s-5.9-3.1-8-11.9" transform="translate(-138.95 -348.5)"/><path class="cls-4" d="M182.1,365.8s-4.7-4.6-4.2-13.6" transform="translate(-138.95 -348.5)"/><ellipse class="cls-2" cx="192.2" cy="379.44" rx="24.5" ry="20.3" transform="translate(-317.57 -177.4) rotate(-33.81)"/><ellipse class="cls-2" cx="38.95" cy="2.8" rx="2.9" ry="2.8"/><ellipse class="cls-2" cx="28.35" cy="6.9" rx="2.9" ry="2.8"/><ellipse class="cls-1" cx="146.48" cy="436.8" rx="7.4" ry="12" transform="translate(-201.03 -322.5) rotate(-8.38)"/><ellipse class="cls-1" cx="153.61" cy="438.67" rx="13" ry="7.3" transform="translate(-435.77 204.81) rotate(-84.98)"/><path class="cls-2" d="M163.6,450.8s-2.3,6.1-8.9,6.3a24.81,24.81,0,0,0-11.8,3.7c-6.2-9.6-2.7-23.9,9.5-25.3Z" transform="translate(-138.95 -348.5)"/><path class="cls-3" d="M148.1,436.5c1.1,8.4,6,14.2,11.6,18.9a8.89,8.89,0,0,1-5.5,1.6,14.87,14.87,0,0,0-3.6.5c-4.1-3.9-7.2-10.6-8.5-15.6A13.18,13.18,0,0,1,148.1,436.5Z" transform="translate(-138.95 -348.5)"/><path class="cls-3" d="M142.8,460.7a10.7,10.7,0,0,1-2.2-4.7,19.48,19.48,0,0,0,3.6,4Z" transform="translate(-138.95 -348.5)"/><path class="cls-5" d="M176.9,434.4s3.9-.9,6.5-5.7" transform="translate(-138.95 -348.5)"/><path class="cls-5" d="M173.5,431.9a11.12,11.12,0,0,0,4.5-7.2" transform="translate(-138.95 -348.5)"/><ellipse class="cls-2" cx="165.51" cy="438.19" rx="12.2" ry="14.5" transform="translate(-387.6 -129.11) rotate(-41.46)"/><circle class="cls-2" cx="178.2" cy="424.1" r="1.7" transform="translate(-144.78 -346) rotate(-0.79)"/><circle class="cls-2" cx="183.7" cy="428" r="1.7" transform="translate(-144.83 -345.93) rotate(-0.79)"/></g></svg>