<?xml version="1.0" encoding="utf-8"?>
<!-- Generator: Adobe Illustrator 23.0.1, SVG Export Plug-In . SVG Version: 6.00 Build 0)  -->
<svg version="1.1" id="Livello_1" xmlns="http://www.w3.org/2000/svg" xmlns:xlink="http://www.w3.org/1999/xlink" x="0px" y="0px"
	 viewBox="0 0 1366 768" style="enable-background:new 0 0 1366 768;" xml:space="preserve">
<style type="text/css">
	.st0{display:none;}
	.st1{display:inline;fill:#F9C364;}
	.st2{display:inline;fill:#FFD28A;}
	.st3{display:inline;fill:#E5AB35;}
	.st4{display:inline;fill:#CE9729;}
	.st5{display:inline;fill:#FFFFFF;}
	.st6{display:inline;fill:#C7962C;}
	.st7{display:inline;fill:#614915;}
	.st8{display:inline;fill:#A37B24;}
	.st9{display:inline;fill:none;stroke:#A37B24;stroke-width:1.18;stroke-miterlimit:10;}
	.st10{display:inline;fill:none;stroke:#A37B24;stroke-width:0.71;stroke-miterlimit:10;}
	.st11{fill:#896620;}
	.st12{fill:#49360F;}
	.st13{fill:#C7962C;}
	.st14{fill:#614915;}
	.st15{fill:#A37B24;}
	.st16{display:inline;fill:#49360F;}
	.st17{display:inline;fill:#191203;}
	.st18{display:inline;}
	.st19{fill:#010101;}
	.st20{fill:none;}
	.st21{display:inline;fill:none;stroke:#010101;stroke-width:8;stroke-miterlimit:10;}
	.st22{fill:url(#SVGID_1_);}
</style>
<g>
	<g id="monti" class="st0">
		<rect class="st1" width="1366" height="744.5"/>
		<path class="st2" d="M138.1,296.3c0,7.9-0.5,15.7-1.8,23.6c-3.8,26.1-14.2,50.7-30.1,71.7C80.6,425.8,42.3,448.2,0,453.8V138.9
			C79,149.3,138,216.6,138.1,296.3z"/>
		<path class="st3" d="M1364.4,350.9l1.6-2.2V768H0V334.8h14.8l8.7-9.7l11.7-1.6l18.6,3.3l10.8,1.6l10.8-1.6l11.1-4.8l6.6-3.3l4,3.3
			l11.7,1.6l1-4.8h6.8l9.8-1.6l10.4,2.9l1.4,0.4l10.8-1.6l4-6.4l4,4.8l7.9,4.8l3.8-3.3l9.7-1.6l9.7,1.6l6.8,9.7l1.9-6.4l3.7-2.6l0,0
			l3.1-2.2l1.2-1l8.6-6.4l5.2-3.8l2.5-1.8l0,0l4.9,4.8v0.1l3.8,6.4l4.9,3.3l9.7,9.7l9.7,3.3l13.7-13l6.8,3.3l8.7-6.4l9.7-8.1
			l5.9,8.1l13.7-8.1l47.1-27.5l6,6.4h11.6l9.7,16.1l22.4-4.8l14.6,14.5h17.2l14.6-4.8l5.9,4.8l4.9-1.6l11.7,11.3l8.7-3.3l8.7,8.9
			l14.8-13.7l15.6-13l13.7,3.3l8.7,11.3l19.5-16.1h6.8l30.2,6.1l8.7-3.3l10.8,6.4l10.8-1.6l16.5,6.4l5.9-3.3l6.8-3.3l5.9-1.6
			l10.8-4.8l7.8-9.7l1.9,1.6l2.9,6.4h8.7l3.8,6.4l4.9-3.3l1.6,3.1h5.2l7.8,3.3l4-1.6l4,6.4l4-3.3l3.8,6.6l9.8-3.3l1.9-1.6h1.9
			l1.9,1.6l4.9,6.4l3.8-1.6l4.9,4.8l2.9-1.6l4-4.8l9.7-6.4l1,3.3l7.8,4.8l3-4.8h4.9l9.7-3.3l1.9,8.1l4.9,1.6l1-1.6l2.9-4.8l5.9-4.8
			l9.7,3.3l4.9-1.6l5.9,4.8h5.9l4.9-1.6l4,3.3l6.8-3.3l1.9-3.3l4.9-1.6l4.9-1.6l7.8,3.3l3.8,6.4l5.9,3.3l4.9-4.8l3-3.3h4.9l5.1,1.6
			l6.7,1.6l4.9-1.6l3.7,4.8l5.1,6.4l3-3.3l1.9,3.3l4.9,3.3l4.9,1.6l4-4.8h2.9l4.9,1.6l3-1.6l5.1-6.4l1.8,1.6l1,3.3l22.4,13l1.9-1.6
			h4.9l9.8-1.6l7.8,8.1l3,1.6l3.8,1.6l1.9-1.6l3-1.6l2.9,1.6l4-1.6l5.9-3.3h16.7l4,1.6l4-3.3l2.9,3.3l1.9-3.3l2.9-4.8l2.9-6.4l3-3.3
			l2.9-3.3l2.9,3.3l6.3,8.9l0.5,0.8l4,4.8l6.8,9.7l9.8,1.6l2.9,6.4l1.9-1.6l4,1.6l1.8-0.3l43.4-7.4l2.7-0.4h4.9l2.9-1.6l4,3.3
			l2.9-1.6l4.9,3.3l8.7,1.6l4.9-1.6l1.9,1.6l10.8,11.3l10.8-3.3l10.8-11.3l4.9-4.8l9.8,9.7l4.9-1.6l4,1.6l1.9-3.3h3.8l7.8-1.6
			l5.9-8.1l6.8-6.4l6.8-8.1l4.9,1.6l4,3.3l1,3.3l2.9,4.8l7.8,11.3l4.9-1.6l9.8-1.6l5.9,3.3l6.8-3.3L1364.4,350.9z"/>
	</g>
	<g id="skyline" class="st0">
		<polygon class="st4" points="1351.1,347.2 1366,347.9 1366,768 0,768 0,359.6 37.7,343.4 51.4,343.4 66,339.3 106.3,340.2 
			117.6,340.4 136.1,349.3 149.7,351.2 156.5,347.2 188.6,348.2 256,347.2 285.2,348.2 286.2,357 354.3,356.1 406.9,352.1 
			430.3,341.5 474.1,341.5 532.6,359 579.5,358 588.2,356.1 610.6,356.8 610.6,360.9 687.6,363.9 692.4,357 704.2,357 716.9,354 
			773.3,352.1 778.2,365.8 814.3,366.7 816.2,343.5 816.2,320 820.1,318 826,302.4 833.8,318.9 833.8,328.8 835.7,321.9 
			836.7,366.7 851.3,352.1 890.2,353.1 898,358 934.9,359.8 950.7,364.8 953.6,362.8 980.4,367.6 991.6,370.7 1025.7,365.8 
			1068.5,365.2 1131,364.6 1196.5,363.9 1204.9,363.9 1225.4,369.6 1241,374.5 1260.5,373.6 1266.4,376.3 1266.4,363.9 1284.9,359 
			1290.7,358.8 1290.7,361.8 1337.5,360.7 1337.5,351.2 		"/>
	</g>
	<g id="testo" class="st0">
		<path class="st5" d="M382.3-52.6c-53.4,1.1-108.9,44.9-93,90.3c14.5,40.7,84,49.9,89.9,87.4c5.6,35.1-57.6,61.9-97.3,59.3
			c-5.5-0.3-10.9-1.4-16.1-3.4c-6.7-2.7-11.5-7-13.5-13c-1.9,1-3.7,1.9-5.5,3.1c-1.4,1-2.6,1.9-3.8,2.9c-0.5,0.5-1.2,1.1-1.8,1.6
			c-4,3.8-6.7,8.7-7.9,14.1c-1.1,4.5-1,9.2,0.1,13.5l0,0c3.3,12.6,15.3,23.8,34.6,26.5c1,0.1,1.8,0.3,2.7,0.3h0.7
			c3.6,0.3,7.1,0.4,10.7,0.3c1.4,0,2.7-0.1,4.1-0.3c2.9-0.3,5.9-0.7,8.9-1.2c2.9-0.5,5.6-1.1,8.5-1.9c1.9-0.5,3.8-1.1,5.7-1.6
			c4.5-1.5,9-3.1,13.4-5.1c43.7-19.1,81.7-62.3,71.4-101.9c-11.9-46.7-65.3-43.2-81.1-82.9c-0.7-41.8,74.2-81.1,80.5-70.6
			c7,11.6,0.4,39.8-9.8,55.5C435.8,50.4,436.4-54,382.3-52.6z"/>
		<path class="st5" d="M599.8,151.1c0,0-1.4,1.6-3.7,4.4c-12.6,14.9-52.9,62.2-54.2,62.6c-2.6-22.1,32.4-76.4,44.8-90.3
			c0-19.1-20.5-27.7-34.6-25.5c-16.7,6.4-38.8,36.6-53.7,66.5c4.2-15.3,14.1-31.6,21.3-46c0-19.1-17.5-22.5-31.6-20.5
			c-16.7,6.8-39.2,37-54.1,66.9c4.6-13.7,10.2-27.3,24.7-53.7c-3.8-16.7-13.3-22.1-25.1-23.5c-18.7,39.6-38.8,89.5-37.6,109.6
			c0.8,14.1,5.6,28.5,20.9,29.4c18.7-35,37.6-75.8,66.9-103.5c-6.4,11.1-17.5,34.6-21.7,56.3c-3.8,16.7-3.8,46,18.7,47.3
			c18.7-35,37.6-75.8,66.9-103.5c-11.1,18.7-30.7,56.7-29.4,74.6c1.9,38.2,29.2,28.4,29.2,28.4l36.6-43.3l26.1-30.9L599.8,151.1z"/>
		<path class="st5" d="M664.6,151.1l-4.1,4.8l0,0c-13,15.3-52.5,61.7-53.8,62.2c-2.6-22.1,28.5-73.8,41-87.4c0,0,0-22.1-21.3-27.3
			c0.3-0.8-17.2,24.7-30.2,52.2c-4.9,10.1-8.9,20.6-11.6,31.6c-1.2,4.8-1.8,9.8-1.6,14.8c2.6,38.4,29.8,28.5,29.8,28.5l36.6-43.3
			l26.1-30.9L664.6,151.1z M634,78.1c0,23.5,35.4,20.5,35-3C668,47,633.8,54.8,634,78.1L634,78.1z"/>
		<path class="st5" d="M750.2,151.1l-1.4,1.6c-53.1,65.4-76.6,56.7-76.6,56.7c0.5-13,3.3-25.8,8.1-38c34.6,6.4,81.4-37,51.5-71.6
			c-27-6.6-55.6,25.3-71.4,56l0,0c-5.6,10.9-9.6,21.7-11.2,30.6c0,0.3-0.1,0.4-0.1,0.7c-6.1,35.7,35.1,39.9,35.1,39.9
			c16.4-2,40.2-27.2,57.8-47.7c7.5-8.9,14.1-16.8,18.2-21.7L750.2,151.1z M725.5,117.7c14.5,20.9-19.5,33.6-35.8,35.4
			C705.1,128.4,725.5,117.7,725.5,117.7z"/>
		<path class="st5" d="M817.8,155.3c-12.4,14.6-52.9,62.3-54.4,62.7c-2.2-22.1,30.7-110.8,73.4-166.2c0,0,0-22.1-21.3-27.3
			c-32.1,46-54.9,92.3-66.5,128.3c-2.9,8.6-5.2,17.5-7,26.5c-1.5,7.4-2.2,15-1.9,22.5c2.2,38.4,29.4,28.5,29.4,28.5l39.9-47.3
			l22.8-26.9l-10.7-5.1L817.8,155.3z"/>
		<path class="st5" d="M951.8,151.1l-3.4,4.1c-12.2,14.3-53.1,62.6-54.5,62.8c-2.2-22.1,28.5-69.5,41-83.5c0,0,0-22.1-20.9-27.3
			c-1.9,2.3-3.8,4.8-5.5,7.2c-19.9-37-69.8-3.6-90.6,41c-4.2,8.7-7.1,18.2-8.5,27.9c-0.7,4.6-0.8,9.3-0.7,13.9
			c0.8,22.1,22.5,23.9,26.4,22.5c3-1.2,22.9-23.9,40-43.8c-3.4,9.8-5.1,18.3-4.6,26c2.2,38.4,29.4,28.5,29.4,28.5l42.2-49.9
			l19.5-22.9L951.8,151.1z M830.8,203.4c-0.8-24.7,48.6-109.6,69-75.8l-3.4,5.5C846.9,191.5,830.8,203.4,830.8,203.4z"/>
		<path class="st5" d="M1068.6,62.8c-13.7,4.2-29,6-43.8,6.4c3.8-6,8.1-11.9,12.3-17.5c0,0,0-22.1-21.3-27.3
			c-9.8,14.1-18.7,28.5-26.9,42.2c-15.2-1.8-30.1-4.8-44.8-8.9c-10.2,3.8-14.9,13.7-14.5,18.7c8.5-4.2,29.4-0.8,51.6,3
			c-15,27.6-26.1,53.7-32.8,75.7c-2.6,8.3-4.8,16.8-6.3,25.4c-1.4,7-1.9,14.1-1.8,21.3c2.2,38.4,29.4,28.5,29.4,28.5l42.1-49.9
			l20.6-24.3l-10.7-5.1l-2.5,2.9l0,0c-10.8,12.7-54.1,63.7-55.6,64.1c-1.8-17.9,19.5-80.2,50.7-132.5c7.9,1.6,15.8,2.5,23.9,2.6
			C1057.6,88.4,1069.4,79.5,1068.6,62.8z"/>
		<path class="st5" d="M1130.2,154.6l-4-1.9l-3-1.4l-0.5-0.3c-5.2,6-14.9,17.9-24.7,26c7.6-18.7,11.5-38.4,3.4-57.9
			c1.2-15.7-16.7-24.3-35-19.7c-19.5,4.9-37.2,28.7-47.1,54.4l0,0c-3.4,8.6-5.9,17.5-7.5,26.6c-1.9,11.5-1.9,22,0.5,30.2
			c3.8,12.3,12.3,20.5,28.1,19.7c17.5-1.2,35-15.7,47.8-35.4c12.4-3.6,25-15.3,34.6-26c1.4-1.5,2.6-2.9,3.7-4.2
			c1.5-1.8,2.9-3.4,4.1-5.1c1-1.2,1.9-2.5,2.7-3.4L1130.2,154.6z M1037.1,213.2c-6-4.6,3-36.6,17.9-60.9c-2.6,17.1,0.8,35,14.1,41.4
			C1055,208.6,1040.1,217.6,1037.1,213.2z M1077.5,183.8c-14.9-8.9-3.8-68.2,15.3-55.9C1099.6,146.3,1090.8,165.1,1077.5,183.8z"/>
	</g>
	<g id="api" class="st0">
		
			<ellipse transform="matrix(0.408 -0.913 0.913 0.408 -18.4968 408.1975)" class="st6" cx="305.5" cy="218.4" rx="27.6" ry="16.9"/>
		
			<ellipse transform="matrix(0.185 -0.9827 0.9827 0.185 20.5967 461.5813)" class="st6" cx="288.6" cy="218.4" rx="29.8" ry="16.8"/>
		<path class="st7" d="M259.4,239.6c0,0,1.5,14.8,16,19c9.2,2.9,17.3,7.9,23.9,14.8c19.7-17.6,20.4-51.5-5.9-61.3L259.4,239.6z"/>
		<path class="st8" d="M302.2,216.9c-7.6,17.9-21.9,28-37,35.4c-0.1,0.3,5.5,5.9,11.2,6.7c2.7,0.8,5.2,1.9,7.6,3.3
			c11.3-6.4,22.4-19.3,28.3-29.6C310.8,226.3,307.2,220.9,302.2,216.9z"/>
		<path class="st8" d="M299.3,273.3c3.3-2.5,5.9-5.6,7.8-9.3c-3,2.7-6.6,5.1-10.2,6.7L299.3,273.3z"/>
		<path class="st9" d="M239.7,195.7c0,0-8.1-4.2-10.9-16.3"/>
		<path class="st9" d="M248.7,192c0,0-6.4-6.3-5.7-18.6"/>
		
			<ellipse transform="matrix(0.8309 -0.5564 0.5564 0.8309 -72.8258 181.7027)" class="st7" cx="262.5" cy="210.7" rx="33.5" ry="27.7"/>
		<ellipse class="st7" cx="243" cy="172.2" rx="4" ry="3.8"/>
		<ellipse class="st7" cx="228.5" cy="177.8" rx="4" ry="3.8"/>
		
			<ellipse transform="matrix(0.9893 -0.1457 0.1457 0.9893 -39.978 32.2377)" class="st6" cx="200.1" cy="289" rx="10.1" ry="16.4"/>
		
			<ellipse transform="matrix(8.750030e-02 -0.9962 0.9962 8.750030e-02 -98.9946 475.1039)" class="st6" cx="209.8" cy="291.6" rx="17.8" ry="10"/>
		<path class="st7" d="M223.5,308.2c0,0-3.1,8.3-12.2,8.6c-5.7,0.3-11.2,2-16.1,5.1c-8.5-13.1-3.7-32.6,13-34.6L223.5,308.2z"/>
		<path class="st8" d="M202.3,288.6c1.5,11.5,8.2,19.4,15.8,25.8c-2.2,1.5-4.8,2.3-7.5,2.2c-1.6,0-3.3,0.3-4.9,0.7
			c-5.6-5.3-9.8-14.5-11.6-21.3C195.9,292.9,198.8,290.3,202.3,288.6z"/>
		<path class="st8" d="M195.1,321.7c-1.5-1.9-2.6-4.1-3-6.4c1.4,2,3,3.8,4.9,5.5L195.1,321.7z"/>
		<path class="st10" d="M241.6,285.8c0,0,5.3-1.2,8.9-7.8"/>
		<path class="st10" d="M237,282.3c0,0,4.6-2.7,6.1-9.8"/>
		
			<ellipse transform="matrix(0.7494 -0.6621 0.6621 0.7494 -135.9735 222.6006)" class="st7" cx="226.1" cy="290.9" rx="16.7" ry="19.8"/>
		
			<ellipse transform="matrix(0.9999 -1.378775e-02 1.378775e-02 0.9999 -3.7227 3.382)" class="st7" cx="243.4" cy="271.7" rx="2.3" ry="2.3"/>
		
			<ellipse transform="matrix(0.9999 -1.378771e-02 1.378771e-02 0.9999 -3.7954 3.4861)" class="st7" cx="250.9" cy="277" rx="2.3" ry="2.3"/>
	</g>
	<g id="mole">
		<path class="st11" d="M1068.6,395.7v-13l-1-1.6v-2.9h-2l4.9-5.9c5.2-35.9,19-66.5,40-92.6v-5.2l-1-1.6l-1-2.9h-2.9v-2.9h4.6
			l0.3-33.2l-1.9-1l5.9-6.8l5.9-15.6l-2.9-1v-2.9l2.9-1v-14.8l-1.9-1.9l1-2.9h2.9v-13.7l-1-1.9l1-1l-1.9-1V166l1.9-1.1v-7.6l-1-1
			l1-1.8l2.9-99.6l7.8,422.9l-71.2-16.5v-39.9h1l-1-14.3l-2.9-3.1L1068.6,395.7z"/>
		<path class="st12" d="M1125,54.8l7.8,99.4l1.9,1.9l-1,1.9v7.8l1.9-1v2.9l-1.9,1.9v15.6l4.9,1v1.9l-1.9,2.9l0.4,14.6h2.5v2.9
			l-1.9,2.9l5.9,14.6l6.8,6.8l-1.9,1V262l4.9,1v5.9l-2.9,1.9l1,1.9l-1.9,2.9l1,4.9c23.6,25.8,37.7,57.2,44.8,92.6l4,3.8l-0.8,1.9h-2
			l1.9,15.6l8.7,8.2l-1.9,1.5l1,25.3l1,27.3l-74,20.5L1125,54.8z"/>
		<polygon class="st13" points="1206.7,450.2 1366,464 1366,768 736,768 736,421.8 763,420.6 765.1,428.5 805,439.2 1061.8,441.6 
			1111.9,442 1132.3,443.8 1192,449 		"/>
		<polygon class="st14" points="1347.7,447 1366,454.6 1366,469.1 1345.2,478.6 1319,478.6 1267.4,471.8 1183.9,463.5 1159.2,461.2 
			1167.9,457.9 1175.6,455 1192,449 1206.5,443.7 1212.3,441.5 1230.6,434.8 1284.4,439.2 1295.1,444.1 		"/>
		<path class="st14" d="M1135.3,458.7l32.6-0.8l7.6-2.7l36.9-13.5l-5.5-7.6h-37l-19-5.3l-41-2.9v-6l-30.2-14.5l-72.1,1.9l-18.4,10.7
			l-7.8-3.8l-25.3,7.8l-32.1,3.8l-14.6-8.7l-43.8-2.9l-10.7,6.8l-66.3,1.9l-6.3-10.2l-0.5-0.5l-23.4-2.9l-24.3,12.7l28.3,2.9
			l-9.7,8.7l28.3,9.7l73.1,8.7c38.7-1.1,77.3-0.1,116,2.9l88.7-2.9L1135.3,458.7z"/>
		<polygon class="st15" points="1319,478.6 1320.9,481.5 1321.9,558.6 1348.2,562.4 1346.3,557.6 1346.3,544.9 1351.1,544.9 
			1350.2,481.5 1345.2,478.6 		"/>
		<polygon class="st15" points="1135.3,458.7 1136.8,461.2 1137,551 1165,557 1164.1,464 1159.2,461.2 1167.9,457.9 		"/>
		<polygon class="st15" points="969.7,454.7 970.1,457.2 970,533 1067,541 1065.6,462.1 1058.4,451.9 		"/>
		<polygon class="st11" points="791.9,454.3 792,768 0,768 0,434.7 105.9,433.8 141.9,445.4 163.4,437.7 217.9,442.6 219.9,436.7 
			238.4,430.8 343.7,428 346.1,429.6 357.2,428.9 385.8,429.6 386.4,425.1 391.4,427 442,427 470.3,426.1 521,406.5 607.2,405 
			622.3,421.1 731.5,423 736,424.8 754.2,431.7 780.1,441.5 780.1,446.5 		"/>
	</g>
	<g id="secondo_piano" class="st0">
		<polygon class="st16" points="1366,584.1 1366,768 0,768 0,499.1 13.3,506.6 13.3,518.4 209.5,508.5 210.1,504.7 211.2,505.7 
			211.2,508.5 235.5,507.9 235.5,504.7 239.3,504.5 239.3,507.6 333.9,502.8 336.9,499.8 340.7,502.8 371.8,500.5 371.8,500.8 
			455.7,497.9 456.7,485.2 451.7,482.3 501.5,462.8 551.2,473.6 558,470.6 558,453.1 555.1,451.2 608.7,425.8 736,422.8 
			773.3,421.8 791.9,426.2 806.5,429.7 806.8,428.2 812.4,427.7 817.1,430.7 835.7,430.7 834.8,429.7 838.6,426.7 861,428.6 
			867.8,424.8 882.4,424.8 886.4,426.7 903.9,426.7 917.5,440.4 969.9,448.2 982.8,450.1 987.8,448.2 1024.8,446.3 1025.3,454 
			1028.6,454 1049.5,462.8 1058.8,466.7 1066.6,469.6 1277.8,550.3 1298.4,558.3 		"/>
	</g>
	<g id="primo_piano" class="st0">
		<polygon class="st17" points="1366,524.3 1366,562.4 279.8,562.4 279.8,553.1 278.8,551.3 292.5,531 578.9,517.9 642.3,514.3 
			652.9,511.6 657.9,515 657.9,517.9 669.6,520.5 681.2,513.4 707.6,518.7 736,528.9 775.8,543.4 775.8,522.2 768.9,518.7 
			791.9,514.1 795.3,513.4 795.3,510.8 793.4,507.2 797.2,503.7 821.5,504.6 838.2,501.3 838.2,496.7 842,492.2 849.8,494.9 
			856.6,492.2 907.3,493.3 907.3,489.6 915.1,485.2 920,491.4 962.9,492.2 976.6,482.5 985.3,490.6 1013.6,489.6 1019,483.7 
			1019.3,483.5 1020,483.9 1027.9,488.6 1037.9,488.6 1040.5,485.8 1049.5,475.9 1054.4,470.6 1054.4,466.7 1066.2,466.7 
			1066.3,466.4 1073.9,444.7 1081.6,470.2 1103.2,470.2 1114.9,478.1 1117.8,475.5 1122.6,479.5 1122.6,491.4 1134.3,485.2 
			1136.8,485.6 1164.9,490.4 1321.9,516.9 1347.1,521.2 		"/>
		<polygon class="st17" points="1366,555.7 1366,768 0,768 0,528 53.3,528 128.7,558.3 117.6,558.3 117.6,617 278.8,617 
			279.8,562.4 531.6,545.6 736,548.9 791.9,549.7 1058.8,553.9 1277.8,555.2 		"/>
	</g>
</g>
<g class="st0">
	<g class="st18">
		<polygon class="st19" points="1283.5,736 1283.5,786 1326.8,811 1370.1,786 1370.1,736 1326.8,711 		"/>
	</g>
	<g class="st18">
		<polygon class="st20" points="1280.1,738.3 1280.1,783.7 1240.8,806.4 1201.5,783.7 1201.5,738.3 1240.8,715.6 		"/>
		<path d="M1240.8,801.8l-35.3-20.4v-40.8l35.3-20.4l35.3,20.4v40.8L1240.8,801.8 M1240.8,811l43.3-25v-50l-43.3-25l-43.3,25v50
			L1240.8,811L1240.8,811z"/>
	</g>
	<g class="st18">
		<polygon class="st19" points="1111.5,736 1111.5,786 1154.8,811 1198.1,786 1198.1,736 1154.8,711 		"/>
	</g>
	<g class="st18">
		<polygon class="st19" points="1025.5,736 1025.5,786 1068.8,811 1112.1,786 1112.1,736 1068.8,711 		"/>
	</g>
	<g class="st18">
		<polygon class="st20" points="1022.3,738.3 1022.3,783.7 982.7,806.4 943,783.7 943,738.3 982.7,715.6 		"/>
		<path d="M982.7,801.8l-35.6-20.4v-40.7l35.6-20.4l35.6,20.4v40.7L982.7,801.8 M982.7,811l43.6-25v-50l-43.6-25l-43.6,25v50
			L982.7,811L982.7,811z"/>
	</g>
	<g class="st18">
		<polygon class="st19" points="853,736 853,786 896.3,811 939.6,786 939.6,736 896.3,711 		"/>
	</g>
	<g class="st18">
		<polygon class="st19" points="766,736 766,786 809.3,811 852.6,786 852.6,736 809.3,711 		"/>
	</g>
	<g class="st18">
		<polygon class="st19" points="680,736 680,786 723.3,811 766.6,786 766.6,736 723.3,711 		"/>
	</g>
	<g class="st18">
		<polygon class="st19" points="594.5,736 594.5,786 637.8,811 681.1,786 681.1,736 637.8,711 		"/>
	</g>
	<g class="st18">
		<polygon class="st20" points="591.1,738.3 591.1,783.7 551.8,806.4 512.5,783.7 512.5,738.3 551.8,715.6 		"/>
		<path d="M551.8,801.8l-35.3-20.4v-40.8l35.3-20.4l35.3,20.4v40.8L551.8,801.8 M551.8,811l43.3-25v-50l-43.3-25l-43.3,25v50
			L551.8,811L551.8,811z"/>
	</g>
	<g class="st18">
		<polygon class="st19" points="422.5,736 422.5,786 465.8,811 509.1,786 509.1,736 465.8,711 		"/>
	</g>
	<g class="st18">
		<polygon class="st20" points="419.1,738.3 419.1,783.7 379.8,806.4 340.5,783.7 340.5,738.3 379.8,715.6 		"/>
		<path d="M379.8,801.8l-35.3-20.4v-40.8l35.3-20.4l35.3,20.4v40.8L379.8,801.8 M379.8,811l43.3-25v-50l-43.3-25l-43.3,25v50
			L379.8,811L379.8,811z"/>
	</g>
	<g class="st18">
		<polygon class="st19" points="251,736 251,786 294.3,811 337.6,786 337.6,736 294.3,711 		"/>
	</g>
	<g class="st18">
		<polygon class="st19" points="165,736 165,786 208.3,811 251.6,786 251.6,736 208.3,711 		"/>
	</g>
	<g class="st18">
		<polygon class="st19" points="79,736 79,786 122.3,811 165.6,786 165.6,736 122.3,711 		"/>
	</g>
	<g class="st18">
		<polygon class="st19" points="-7,736 -7,786 36.3,811 79.6,786 79.6,736 36.3,711 		"/>
	</g>
	<g class="st18">
		<path class="st19" d="M1283.8,727.8l-35.3-20.4v-40.8l35.3-20.4l35.3,20.4v40.8L1283.8,727.8 M1283.8,737l43.3-25v-50l-43.3-25
			l-43.3,25v50L1283.8,737L1283.8,737z"/>
	</g>
	<polyline class="st21" points="1026.7,641 1070,666 1113.3,641 1113.3,591 1070,566 	"/>
	<polyline class="st21" points="595.3,592 595.3,642 638.6,667 	"/>
	<polyline class="st21" points="423.6,638 380.3,663 380.3,713 423.6,738 	"/>
	<polyline class="st21" points="1287.9,590 1244.6,565 1201.3,590 1201.3,640 1244.6,665 	"/>
	<g class="st18">
		<path class="st19" d="M1111.8,727.8l-35.3-20.4v-40.8l35.3-20.4l35.3,20.4v40.8L1111.8,727.8 M1111.8,737l43.3-25v-50l-43.3-25
			l-43.3,25v50L1111.8,737L1111.8,737z"/>
	</g>
	<g class="st18">
		<path class="st19" d="M853.3,727.8L818,707.4v-40.8l35.3-20.4l35.3,20.4v40.8L853.3,727.8 M853.3,737l43.3-25v-50l-43.3-25
			L810,662v50L853.3,737L853.3,737z"/>
	</g>
	<g class="st18">
		<path class="st19" d="M810.3,801.8L775,781.4v-40.8l35.3-20.4l35.3,20.4v40.8L810.3,801.8 M810.3,811l43.3-25v-50l-43.3-25
			L767,736v50L810.3,811L810.3,811z"/>
	</g>
	<g class="st18">
		<polygon class="st19" points="1325.5,808 1325.5,858 1368.8,883 1368.8,783 		"/>
	</g>
	<g class="st18">
		<polygon points="1322.1,810.3 1322.1,855.7 1282.8,878.4 1243.5,855.7 1243.5,810.3 1282.8,787.6 		"/>
		<path d="M1282.8,873.8l-35.3-20.4v-40.8l35.3-20.4l35.3,20.4v40.8L1282.8,873.8 M1282.8,883l43.3-25v-50l-43.3-25l-43.3,25v50
			L1282.8,883L1282.8,883z"/>
	</g>
	<g class="st18">
		<polygon class="st19" points="1153.5,808 1153.5,858 1196.8,883 1240.1,858 1240.1,808 1196.8,783 		"/>
	</g>
	<g class="st18">
		<polygon class="st19" points="1067.5,808 1067.5,858 1110.8,883 1154.1,858 1154.1,808 1110.8,783 		"/>
	</g>
	<g class="st18">
		<polygon points="1063.6,810.3 1063.6,855.7 1024.3,878.4 985,855.7 985,810.3 1024.3,787.6 		"/>
		<path d="M1024.3,873.8L989,853.4v-40.8l35.3-20.4l35.3,20.4v40.8L1024.3,873.8 M1024.3,883l43.3-25v-50l-43.3-25L981,808v50
			L1024.3,883L1024.3,883z"/>
	</g>
	<g class="st18">
		<polygon class="st19" points="895,808 895,858 938.3,883 981.6,858 981.6,808 938.3,783 		"/>
	</g>
	<g class="st18">
		<polygon class="st19" points="808,808 808,858 851.3,883 894.6,858 894.6,808 851.3,783 		"/>
	</g>
	<g class="st18">
		<polygon class="st19" points="722,808 722,858 765.3,883 808.6,858 808.6,808 765.3,783 		"/>
	</g>
	<g class="st18">
		<polygon class="st19" points="636.5,808 636.5,858 679.8,883 723.1,858 723.1,808 679.8,783 		"/>
	</g>
	<g class="st18">
		<polygon points="633.1,810.3 633.1,855.7 593.8,878.4 554.5,855.7 554.5,810.3 593.8,787.6 		"/>
		<path d="M593.8,873.8l-35.3-20.4v-40.8l35.3-20.4l35.3,20.4v40.8L593.8,873.8 M593.8,883l43.3-25v-50l-43.3-25l-43.3,25v50
			L593.8,883L593.8,883z"/>
	</g>
	<g class="st18">
		<polygon class="st19" points="464.5,808 464.5,858 507.8,883 551.1,858 551.1,808 507.8,783 		"/>
	</g>
	<g class="st18">
		<polygon points="461.1,810.3 461.1,855.7 421.8,878.4 382.5,855.7 382.5,810.3 421.8,787.6 		"/>
		<path d="M421.8,873.8l-35.3-20.4v-40.8l35.3-20.4l35.3,20.4v40.8L421.8,873.8 M421.8,883l43.3-25v-50l-43.3-25l-43.3,25v50
			L421.8,883L421.8,883z"/>
	</g>
	<g class="st18">
		<polygon class="st19" points="293,808 293,858 336.3,883 379.6,858 379.6,808 336.3,783 		"/>
	</g>
	<g class="st18">
		<polygon class="st19" points="207,808 207,858 250.3,883 293.6,858 293.6,808 250.3,783 		"/>
	</g>
	<g class="st18">
		<polygon points="121,808 121,858 164.3,883 207.6,858 207.6,808 164.3,783 		"/>
	</g>
	<g class="st18">
		<polygon class="st19" points="35,808 35,858 78.3,883 121.6,858 121.6,808 78.3,783 		"/>
	</g>
	<g class="st18">
		<polygon class="st19" points="-5.7,783 37.6,808 37.6,858 -5.7,883 		"/>
	</g>
	<g class="st18">
		<path class="st19" d="M852.3,873.8L817,853.4v-40.8l35.3-20.4l35.3,20.4v40.8L852.3,873.8 M852.3,883l43.3-25v-50l-43.3-25
			L809,808v50L852.3,883L852.3,883z"/>
	</g>
	<g class="st18">
		<path class="st19" d="M679.3,727.8L644,707.4v-40.8l35.3-20.4l35.3,20.4v40.8L679.3,727.8 M679.3,737l43.3-25v-50l-43.3-25
			L636,662v50L679.3,737L679.3,737z"/>
	</g>
	<g class="st18">
		<path class="st19" d="M593.3,727.8L558,707.4v-40.8l35.3-20.4l35.3,20.4v40.8L593.3,727.8 M593.3,737l43.3-25v-50l-43.3-25
			L550,662v50L593.3,737L593.3,737z"/>
	</g>
	<g class="st18">
		<path class="st19" d="M251.3,727.8L216,707.4v-40.8l35.3-20.4l35.3,20.4v40.8L251.3,727.8 M251.3,737l43.3-25v-50l-43.3-25
			L208,662v50L251.3,737L251.3,737z"/>
	</g>
	<g class="st18">
		<path class="st19" d="M79.3,728.8L44,708.4v-40.8l35.3-20.4l35.3,20.4v40.8L79.3,728.8 M79.3,738l43.3-25v-50l-43.3-25L36,663v50
			L79.3,738L79.3,738z"/>
	</g>
</g>
<linearGradient id="SVGID_1_" gradientUnits="userSpaceOnUse" x1="683" y1="0" x2="683" y2="0">
	<stop  offset="0" style="stop-color:#FFFFFF"/>
	<stop  offset="1" style="stop-color:#000000"/>
</linearGradient>
<line class="st22" x1="0" y1="0" x2="1366" y2="0"/>
</svg>
