<svg id="Livello_1" data-name="Livello 1" xmlns="http://www.w3.org/2000/svg" xmlns:xlink="http://www.w3.org/1999/xlink" viewBox="0 0 1366 768"><defs><style>.cls-1{fill:#f9c364;}.cls-2{fill:#ffd28a;}.cls-3{fill:#e5ab35;}.cls-4{fill:url(#Sfumatura_senza_nome_15);}</style><linearGradient id="Sfumatura_senza_nome_15" x1="683" x2="683" gradientUnits="userSpaceOnUse"><stop offset="0" stop-color="#fff"/><stop offset="1"/></linearGradient></defs><title>monti</title><g id="monti"><rect class="cls-1" width="1366" height="744.45"/><path class="cls-2" d="M138.1,296.27a152.83,152.83,0,0,1-1.77,23.63,157.06,157.06,0,0,1-30.06,71.72A159,159,0,0,1,0,453.77V138.91A158.93,158.93,0,0,1,138.1,296.27Z"/><path class="cls-3" d="M1364.36,350.91l1.64-2.19V768H0V334.79H14.75l8.75-9.7,11.74-1.64,18.58,3.28,10.79,1.64,10.79-1.64L86.47,322,93,318.67,97,322l11.74,1.64,1-4.78h6.83l9.84-1.64L136.74,320l1.36.41,10.79-1.64,4-6.42,4,4.78,7.92,4.78,3.82-3.28,9.7-1.64,9.7,1.64,6.83,9.7L196.7,322l3.69-2.6h0l3.14-2.18,1.23-1,8.61-6.42,5.19-3.82,2.46-1.78h0l4.92,4.78v.14l3.82,6.42,4.92,3.28,9.7,9.7,9.7,3.27,13.66-13,6.83,3.28,8.74-6.42,9.7-8.06,5.87,8.06,13.66-8.06,47.13-27.46,6,6.42h11.61l9.7,16.12,22.4-4.78L424,312.39h17.21l14.61-4.78,5.88,4.78,4.92-1.64,11.74,11.34,8.75-3.28,8.74,8.88L510.61,314l15.57-13,13.66,3.28,8.75,11.34,19.53-16.12H575l30.19,6.14,8.74-3.27,10.79,6.42,10.79-1.64L652,313.62l5.88-3.28,6.83-3.28,5.87-1.64,10.79-4.78,7.79-9.7,1.91,1.64,2.87,6.42h8.74l3.83,6.42,4.91-3.28,1.64,3.14h5.19l7.79,3.28,4-1.64,4,6.42,4-3.27,3.83,6.55,9.83-3.28,1.92-1.64h1.91l1.91,1.64,4.92,6.42,3.82-1.64,4.92,4.79,2.87-1.64,4-4.78,9.7-6.42,1,3.27,7.78,4.78,3-4.78h4.91l9.7-3.27,1.92,8.05,4.91,1.64,1-1.64,2.87-4.78,5.87-4.78,9.7,3.28L845,310.2l5.87,4.78h5.88l4.91-1.64,4,3.28,6.83-3.28,1.92-3.27,4.91-1.64,4.92-1.64,7.79,3.28,3.82,6.42,5.88,3.27,4.91-4.78,3-3.28h4.92l5.05,1.64,6.69,1.64,4.92-1.64,3.69,4.78,5.05,6.42,3-3.27,1.91,3.27,4.92,3.28,4.92,1.64,4-4.78h2.87l4.91,1.64,3-1.64,5-6.42,1.78,1.64,1,3.28,22.4,13,1.91-1.64h4.92l9.83-1.64,7.79,8.06,3,1.64,3.82,1.64,1.91-1.64,3-1.64,2.87,1.64,4-1.64,5.87-3.28h16.67l4,1.64,4-3.28,2.87,3.28,1.91-3.28,2.87-4.78,2.87-6.42,3-3.28,2.87-3.28,2.87,3.28,6.28,8.88.55.82,4,4.78,6.83,9.7,9.84,1.64,2.87,6.42,1.91-1.64,4,1.64,1.77-.28,43.44-7.37,2.74-.41h4.91l2.87-1.64,4,3.28,2.87-1.64,4.92,3.28,8.74,1.64,4.92-1.64,1.91,1.64L1222.43,362l10.79-3.28,10.8-11.33,4.91-4.78,9.84,9.69,4.92-1.63,4,1.63,1.91-3.27h3.83l7.78-1.64,5.88-8.06,6.83-6.42,6.83-8.06,4.91,1.64,4,3.28,1,3.27,2.87,4.79,7.79,11.33,4.91-1.64,9.84-1.64,5.87,3.28,6.83-3.28Z"/></g><line class="cls-4" x2="1366"/></svg>