<svg id="Livello_1" data-name="Livello 1" xmlns="http://www.w3.org/2000/svg" xmlns:xlink="http://www.w3.org/1999/xlink" viewBox="0 0 1366 768"><defs><style>.cls-1{fill:#49360f;}.cls-2{fill:url(#Sfumatura_senza_nome_15);}</style><linearGradient id="Sfumatura_senza_nome_15" x1="683" x2="683" gradientUnits="userSpaceOnUse"><stop offset="0" stop-color="#fff"/><stop offset="1"/></linearGradient></defs><title>secondo</title><g id="secondo_piano" data-name="secondo piano"><polygon class="cls-1" points="1366 584.09 1366 768 0 768 0 499.12 13.25 506.64 13.25 518.38 209.54 508.55 210.09 504.72 211.18 505.68 211.18 508.55 235.5 507.87 235.5 504.72 239.32 504.45 239.32 507.59 333.85 502.81 336.86 499.81 340.68 502.81 371.82 500.49 371.82 500.76 455.7 497.89 456.65 485.19 451.74 482.32 501.46 462.79 551.18 473.58 558.01 470.57 558.01 453.09 555.14 451.18 608.69 425.77 736 422.76 773.29 421.81 791.87 426.18 806.49 429.73 806.76 428.23 812.36 427.68 817.14 430.69 835.72 430.69 834.76 429.73 838.59 426.73 860.99 428.64 867.82 424.81 882.44 424.81 886.4 426.73 903.88 426.73 917.54 440.38 969.86 448.17 982.84 450.08 987.75 448.17 1024.77 446.26 1025.32 454.05 1028.6 454.05 1049.5 462.79 1058.79 466.75 1066.57 469.62 1277.76 550.35 1298.38 558.27 1366 584.09"/></g><line class="cls-2" x2="1366"/></svg>