<svg id="Livello_1" data-name="Livello 1" xmlns="http://www.w3.org/2000/svg" viewBox="0 0 659.45 208.04"><defs><style>.cls-1{fill:#fff;}</style></defs><title>testo</title><g id="testo"><path class="cls-1" d="M279.9,186.7c-39.1.8-79.7,32.9-68.1,66.1,10.6,29.8,61.5,36.5,65.8,64,4.1,25.7-42.2,45.3-71.2,43.4a37.17,37.17,0,0,1-11.8-2.5c-4.9-2-8.4-5.1-9.9-9.5a31.83,31.83,0,0,0-4,2.3c-1,.7-1.9,1.4-2.8,2.1-.4.4-.9.8-1.3,1.2a21,21,0,0,0-5.7,20.2h0c2.4,9.2,11.2,17.4,25.3,19.4a13.55,13.55,0,0,0,2,.2h.5a67.72,67.72,0,0,0,7.8.2c1,0,2-.1,3-.2,2.1-.2,4.3-.5,6.5-.9s4.1-.8,6.2-1.4l4.2-1.2c3.3-1.1,6.6-2.3,9.8-3.7,32-14,59.8-45.6,52.3-74.6-8.7-34.2-47.8-31.6-59.4-60.7-.5-30.6,54.3-59.4,58.9-51.7,5.1,8.5.3,29.1-7.2,40.6C319,262.1,319.5,185.7,279.9,186.7Z" transform="translate(-170.25 -186.69)"/><path class="cls-1" d="M439.1,335.8s-1,1.2-2.7,3.2c-9.2,10.9-38.7,45.5-39.7,45.8-1.9-16.2,23.7-55.9,32.8-66.1,0-14-15-20.3-25.3-18.7-12.2,4.7-28.4,26.8-39.3,48.7,3.1-11.2,10.3-23.1,15.6-33.7,0-14-12.8-16.5-23.1-15-12.2,5-28.7,27.1-39.6,49,3.4-10,7.5-20,18.1-39.3-2.8-12.2-9.7-16.2-18.4-17.2-13.7,29-28.4,65.5-27.5,80.2.6,10.3,4.1,20.9,15.3,21.5,13.7-25.6,27.5-55.5,49-75.8-4.7,8.1-12.8,25.3-15.9,41.2-2.8,12.2-2.8,33.7,13.7,34.6,13.7-25.6,27.5-55.5,49-75.8-8.1,13.7-22.5,41.5-21.5,54.6,1.4,28,21.4,20.8,21.4,20.8l26.8-31.7,19.1-22.6Z" transform="translate(-170.25 -186.69)"/><path class="cls-1" d="M486.5,335.8l-3,3.5h0c-9.5,11.2-38.4,45.2-39.4,45.5-1.9-16.2,20.9-54,30-64,0,0,0-16.2-15.6-20,.2-.6-12.6,18.1-22.1,38.2a118.51,118.51,0,0,0-8.5,23.1,39.36,39.36,0,0,0-1.2,10.8c1.9,28.1,21.8,20.9,21.8,20.9l26.8-31.7,19.1-22.6Zm-22.4-53.4c0,17.2,25.9,15,25.6-2.2-.7-20.6-25.7-14.9-25.6,2.2Z" transform="translate(-170.25 -186.69)"/><path class="cls-1" d="M549.2,335.8l-1,1.2c-38.9,47.9-56.1,41.5-56.1,41.5a85.87,85.87,0,0,1,5.9-27.8c25.3,4.7,59.6-27.1,37.7-52.4-19.8-4.8-40.7,18.5-52.3,41h0c-4.1,8-7,15.9-8.2,22.4,0,.2-.1.3-.1.5-4.5,26.1,25.7,29.2,25.7,29.2,12-1.5,29.4-19.9,42.3-34.9,5.5-6.5,10.3-12.3,13.3-15.9Zm-18.1-24.4c10.6,15.3-14.3,24.6-26.2,25.9C516.2,319.2,531.1,311.4,531.1,311.4Z" transform="translate(-170.25 -186.69)"/><path class="cls-1" d="M598.7,338.9c-9.1,10.7-38.7,45.6-39.8,45.9-1.6-16.2,22.5-81.1,53.7-121.7,0,0,0-16.2-15.6-20-23.5,33.7-40.2,67.6-48.7,93.9a158,158,0,0,0-5.1,19.4,70.35,70.35,0,0,0-1.4,16.5c1.6,28.1,21.5,20.9,21.5,20.9l29.2-34.6,16.7-19.7-7.8-3.7Z" transform="translate(-170.25 -186.69)"/><path class="cls-1" d="M696.8,335.8l-2.5,3c-8.9,10.5-38.9,45.8-39.9,46-1.6-16.2,20.9-50.9,30-61.1,0,0,0-16.2-15.3-20-1.4,1.7-2.8,3.5-4,5.3-14.6-27.1-51.1-2.6-66.3,30a68.89,68.89,0,0,0-6.2,20.4,58.12,58.12,0,0,0-.5,10.2c.6,16.2,16.5,17.5,19.3,16.5,2.2-.9,16.8-17.5,29.3-32.1-2.5,7.2-3.7,13.4-3.4,19,1.6,28.1,21.5,20.9,21.5,20.9l30.9-36.5L704,340.6Zm-88.6,38.3c-.6-18.1,35.6-80.2,50.5-55.5l-2.5,4C620,365.4,608.2,374.1,608.2,374.1Z" transform="translate(-170.25 -186.69)"/><path class="cls-1" d="M782.3,271.2c-10,3.1-21.2,4.4-32.1,4.7,2.8-4.4,5.9-8.7,9-12.8,0,0,0-16.2-15.6-20-7.2,10.3-13.7,20.9-19.7,30.9a216.27,216.27,0,0,1-32.8-6.5c-7.5,2.8-10.9,10-10.6,13.7,6.2-3.1,21.5-.6,37.8,2.2-11,20.2-19.1,39.3-24,55.4a148.55,148.55,0,0,0-4.6,18.6,73.61,73.61,0,0,0-1.3,15.6c1.6,28.1,21.5,20.9,21.5,20.9l30.8-36.5,15.1-17.8-7.8-3.7-1.8,2.1h0c-7.9,9.3-39.6,46.6-40.7,46.9-1.3-13.1,14.3-58.7,37.1-97a93.73,93.73,0,0,0,17.5,1.9C774.2,289.9,782.9,283.4,782.3,271.2Z" transform="translate(-170.25 -186.69)"/><path class="cls-1" d="M827.4,338.4l-2.9-1.4-2.2-1-.4-.2c-3.8,4.4-10.9,13.1-18.1,19,5.6-13.7,8.4-28.1,2.5-42.4.9-11.5-12.2-17.8-25.6-14.4-14.3,3.6-27.2,21-34.5,39.8h0a100.88,100.88,0,0,0-5.5,19.5c-1.4,8.4-1.4,16.1.4,22.1,2.8,9,9,15,20.6,14.4,12.8-.9,25.6-11.5,35-25.9,9.1-2.6,18.3-11.2,25.3-19,1-1.1,1.9-2.1,2.7-3.1,1.1-1.3,2.1-2.5,3-3.7.7-.9,1.4-1.8,2-2.5Zm-68.2,42.9c-4.4-3.4,2.2-26.8,13.1-44.6-1.9,12.5.6,25.6,10.3,30.3C772.3,377.9,761.4,384.5,759.2,381.3Zm29.6-21.5c-10.9-6.5-2.8-49.9,11.2-40.9C805,332.3,798.5,346.1,788.8,359.8Z" transform="translate(-170.25 -186.69)"/></g></svg>